<svg width="235" height="58" viewBox="0 0 235 58" fill="none" xmlns="http://www.w3.org/2000/svg">
<rect width="235" height="58" rx="8" fill="url(#paint0_linear_122_3685)" fill-opacity="0.1"/>
<g opacity="0.5">
<path d="M50.4921 38.766H51V36.5319C51 34.3617 49.2222 32.5745 47.0635 32.5745C45.3492 32.5745 43.8254 31.2979 43.5714 29.6383C43.381 28.617 43.6984 27.5957 44.3333 26.766C44.9683 26 45.9841 25.5532 47 25.5532C49.2222 25.5532 51 23.766 51 21.5319V19.2979H50.4921C47.127 19.2979 44.2064 17.1277 43.127 14H36.4603V21.3404C36.4603 23.0638 35.1905 24.5957 33.5397 24.8511C33.2857 24.9149 33.0317 24.9149 32.8413 24.9149C31 24.7872 29.5397 23.2553 29.5397 21.4043V14H22.873C21.7937 17.1277 18.873 19.2979 15.5079 19.2979H15V21.5319C15 23.7021 16.7778 25.4894 18.9365 25.4894C20.6508 25.4894 22.1746 26.766 22.4286 28.4255C22.619 29.4468 22.3016 30.4681 21.6667 31.2979C21.0317 32.0638 20.0159 32.5106 19 32.5106C16.7778 32.5106 15 34.2979 15 36.4681V38.7021H15.5079C18.873 38.7021 21.7937 40.8723 22.873 44H29.5397V36.6596C29.5397 34.9362 30.8095 33.4043 32.4603 33.1489C32.6508 33.0851 32.9048 33.0851 33.0952 33.0851C35 33.2128 36.4603 34.7447 36.4603 36.5958V44H43.127C44.1429 40.9362 47.127 38.766 50.4921 38.766Z" fill="#F6F8FA"/>
</g>
<path d="M68.072 18.304C68.072 18.64 68.1513 18.9107 68.31 19.116C68.478 19.3213 68.702 19.4847 68.982 19.606C69.262 19.718 69.5747 19.8113 69.92 19.886C70.2653 19.9607 70.62 20.0353 70.984 20.11C71.3573 20.1753 71.7167 20.264 72.062 20.376C72.4073 20.488 72.72 20.642 73 20.838C73.28 21.034 73.4993 21.2907 73.658 21.608C73.826 21.9253 73.91 22.3267 73.91 22.812C73.91 23.4187 73.756 23.9367 73.448 24.366C73.1493 24.7953 72.734 25.122 72.202 25.346C71.6793 25.5607 71.0773 25.668 70.396 25.668C69.7147 25.668 69.108 25.5653 68.576 25.36C68.0533 25.1453 67.6147 24.828 67.26 24.408C66.9147 23.9787 66.672 23.4467 66.532 22.812H67.876C68.0347 23.3813 68.324 23.8153 68.744 24.114C69.1733 24.4127 69.7287 24.562 70.41 24.562C71.1287 24.562 71.67 24.4173 72.034 24.128C72.4073 23.8387 72.594 23.456 72.594 22.98C72.594 22.616 72.51 22.322 72.342 22.098C72.1833 21.874 71.964 21.7013 71.684 21.58C71.404 21.4493 71.0913 21.3467 70.746 21.272C70.4007 21.188 70.0413 21.1087 69.668 21.034C69.304 20.9593 68.9493 20.8707 68.604 20.768C68.2587 20.656 67.946 20.5067 67.666 20.32C67.386 20.1333 67.162 19.886 66.994 19.578C66.8353 19.27 66.756 18.8733 66.756 18.388C66.756 17.9307 66.882 17.506 67.134 17.114C67.386 16.722 67.75 16.4093 68.226 16.176C68.7113 15.9333 69.304 15.812 70.004 15.812C70.62 15.812 71.18 15.9147 71.684 16.12C72.1973 16.3253 72.6267 16.6427 72.972 17.072C73.3173 17.492 73.546 18.0427 73.658 18.724H72.3C72.1507 18.0893 71.8753 17.632 71.474 17.352C71.082 17.0627 70.5827 16.918 69.976 16.918C69.3787 16.918 68.912 17.044 68.576 17.296C68.24 17.548 68.072 17.884 68.072 18.304ZM78.4395 25.668C77.7302 25.668 77.1189 25.514 76.6055 25.206C76.1015 24.898 75.7142 24.4547 75.4435 23.876C75.1729 23.288 75.0375 22.5927 75.0375 21.79C75.0375 20.95 75.1729 20.2407 75.4435 19.662C75.7235 19.0833 76.1202 18.6447 76.6335 18.346C77.1469 18.038 77.7489 17.884 78.4395 17.884C79.1489 17.884 79.7555 18.0427 80.2595 18.36C80.7729 18.668 81.1649 19.116 81.4355 19.704C81.7062 20.2827 81.8415 20.978 81.8415 21.79C81.8415 22.6207 81.7015 23.3253 81.4215 23.904C81.1509 24.4827 80.7589 24.9213 80.2455 25.22C79.7415 25.5187 79.1395 25.668 78.4395 25.668ZM78.4395 24.604C79.1302 24.604 79.6575 24.3613 80.0215 23.876C80.3949 23.3907 80.5815 22.6953 80.5815 21.79C80.5815 20.8847 80.3949 20.1847 80.0215 19.69C79.6575 19.1953 79.1302 18.948 78.4395 18.948C77.7489 18.948 77.2169 19.1953 76.8435 19.69C76.4795 20.1753 76.2975 20.8753 76.2975 21.79C76.2975 22.686 76.4842 23.3813 76.8575 23.876C77.2309 24.3613 77.7582 24.604 78.4395 24.604ZM83.5533 17.562C83.5533 16.778 83.7166 16.1993 84.0433 15.826C84.3793 15.4433 84.8879 15.252 85.5693 15.252C85.7279 15.252 85.8633 15.266 85.9753 15.294C86.0966 15.3127 86.1899 15.336 86.2553 15.364V16.246H86.1293C85.5879 16.246 85.2286 16.3533 85.0513 16.568C84.8739 16.7827 84.7853 17.114 84.7853 17.562V25.5H83.5533V17.562ZM82.5173 19.046V18.066H86.2553V19.046H82.5173ZM87.4097 23.358V16.358H88.6417V23.358C88.6417 23.806 88.7304 24.1373 88.9077 24.352C89.0944 24.5667 89.4584 24.674 89.9997 24.674H90.2517V25.556C90.1864 25.5933 90.0791 25.6213 89.9297 25.64C89.7897 25.6587 89.6311 25.668 89.4537 25.668C88.7631 25.668 88.2497 25.4813 87.9137 25.108C87.5777 24.7253 87.4097 24.142 87.4097 23.358ZM86.3737 19.046V18.066H90.2797V19.046H86.3737ZM97.8927 25.5L96.2827 19.942L96.0867 18.92H96.1567L95.9467 19.942L94.3507 25.5H92.8247L90.6127 18.066H91.9427L93.4687 23.834L93.6927 24.772H93.6087L93.8327 23.834L95.5267 18.066H96.8567L98.5507 23.834L98.7607 24.758H98.6767L98.8727 23.834L100.399 18.066H101.673L99.4467 25.5H97.8927ZM103.921 20.488H102.689C102.773 19.9373 102.945 19.4707 103.207 19.088C103.468 18.696 103.818 18.3973 104.257 18.192C104.695 17.9867 105.218 17.884 105.825 17.884C106.487 17.884 107.038 18.0053 107.477 18.248C107.915 18.4907 108.242 18.8313 108.457 19.27C108.671 19.6993 108.779 20.2033 108.779 20.782V23.708C108.779 24.1373 108.797 24.492 108.835 24.772C108.881 25.052 108.951 25.2947 109.045 25.5H107.743C107.649 25.3133 107.593 25.08 107.575 24.8C107.556 24.52 107.547 24.2447 107.547 23.974V20.81C107.547 20.2127 107.397 19.7553 107.099 19.438C106.809 19.1113 106.347 18.948 105.713 18.948C105.181 18.948 104.765 19.088 104.467 19.368C104.177 19.6387 103.995 20.012 103.921 20.488ZM107.729 20.978V21.902C106.898 21.902 106.217 21.944 105.685 22.028C105.162 22.1027 104.756 22.2147 104.467 22.364C104.177 22.504 103.977 22.672 103.865 22.868C103.753 23.064 103.697 23.2787 103.697 23.512C103.697 23.8573 103.827 24.128 104.089 24.324C104.359 24.5107 104.709 24.604 105.139 24.604C105.596 24.604 106.007 24.4967 106.371 24.282C106.735 24.0673 107.019 23.7827 107.225 23.428C107.439 23.064 107.547 22.672 107.547 22.252H108.205C108.167 22.8587 108.046 23.3813 107.841 23.82C107.645 24.2493 107.388 24.5993 107.071 24.87C106.763 25.1407 106.431 25.3413 106.077 25.472C105.722 25.6027 105.367 25.668 105.013 25.668C104.499 25.668 104.047 25.5887 103.655 25.43C103.272 25.2713 102.973 25.0333 102.759 24.716C102.544 24.3987 102.437 24.0067 102.437 23.54C102.437 23.0267 102.572 22.5927 102.843 22.238C103.123 21.874 103.538 21.5987 104.089 21.412C104.611 21.2347 105.157 21.118 105.727 21.062C106.296 21.006 106.963 20.978 107.729 20.978ZM110.798 25.5V18.066H112.03V25.5H110.798ZM112.03 21.342H111.47C111.526 20.5393 111.68 19.886 111.932 19.382C112.194 18.8687 112.52 18.4907 112.912 18.248C113.314 18.0053 113.752 17.884 114.228 17.884C114.378 17.884 114.513 17.9027 114.634 17.94C114.765 17.968 114.863 18.01 114.928 18.066V19.172C114.826 19.1347 114.709 19.1113 114.578 19.102C114.448 19.0833 114.308 19.074 114.158 19.074C113.785 19.074 113.463 19.13 113.192 19.242C112.931 19.3447 112.712 19.4987 112.534 19.704C112.366 19.9093 112.24 20.152 112.156 20.432C112.072 20.7027 112.03 21.006 112.03 21.342ZM121.708 21.076L121.008 21.734C121.008 20.8473 120.822 20.1613 120.448 19.676C120.084 19.1907 119.566 18.948 118.894 18.948C118.204 18.948 117.676 19.1953 117.312 19.69C116.948 20.1753 116.766 20.8753 116.766 21.79C116.766 22.686 116.958 23.3813 117.34 23.876C117.723 24.3613 118.264 24.604 118.964 24.604C119.487 24.604 119.926 24.478 120.28 24.226C120.644 23.974 120.892 23.5913 121.022 23.078H122.31C122.105 23.946 121.704 24.5947 121.106 25.024C120.518 25.4533 119.804 25.668 118.964 25.668C118.246 25.668 117.625 25.514 117.102 25.206C116.589 24.898 116.192 24.4547 115.912 23.876C115.642 23.288 115.506 22.5927 115.506 21.79C115.506 20.95 115.642 20.2407 115.912 19.662C116.192 19.0833 116.584 18.6447 117.088 18.346C117.602 18.038 118.204 17.884 118.894 17.884C119.594 17.884 120.192 18.038 120.686 18.346C121.19 18.654 121.578 19.0927 121.848 19.662C122.119 20.222 122.254 20.8987 122.254 21.692V22H116.024V21.076H121.708ZM132.523 21.076L131.823 21.734C131.823 20.8473 131.636 20.1613 131.263 19.676C130.899 19.1907 130.381 18.948 129.709 18.948C129.018 18.948 128.491 19.1953 128.127 19.69C127.763 20.1753 127.581 20.8753 127.581 21.79C127.581 22.686 127.772 23.3813 128.155 23.876C128.537 24.3613 129.079 24.604 129.779 24.604C130.301 24.604 130.74 24.478 131.095 24.226C131.459 23.974 131.706 23.5913 131.837 23.078H133.125C132.919 23.946 132.518 24.5947 131.921 25.024C131.333 25.4533 130.619 25.668 129.779 25.668C129.06 25.668 128.439 25.514 127.917 25.206C127.403 24.898 127.007 24.4547 126.727 23.876C126.456 23.288 126.321 22.5927 126.321 21.79C126.321 20.95 126.456 20.2407 126.727 19.662C127.007 19.0833 127.399 18.6447 127.903 18.346C128.416 18.038 129.018 17.884 129.709 17.884C130.409 17.884 131.006 18.038 131.501 18.346C132.005 18.654 132.392 19.0927 132.663 19.662C132.933 20.222 133.069 20.8987 133.069 21.692V22H126.839V21.076H132.523ZM134.71 25.5V18.066H135.942V25.5H134.71ZM135.942 21.104H135.354C135.401 20.3947 135.546 19.802 135.788 19.326C136.04 18.85 136.376 18.4907 136.796 18.248C137.216 18.0053 137.697 17.884 138.238 17.884C138.77 17.884 139.223 17.9867 139.596 18.192C139.97 18.388 140.254 18.682 140.45 19.074C140.656 19.466 140.758 19.9513 140.758 20.53V25.5H139.526V20.782C139.526 20.4087 139.466 20.0867 139.344 19.816C139.232 19.536 139.055 19.3213 138.812 19.172C138.579 19.0133 138.276 18.934 137.902 18.934C137.594 18.934 137.319 18.9993 137.076 19.13C136.834 19.2513 136.628 19.4147 136.46 19.62C136.292 19.8253 136.162 20.0587 136.068 20.32C135.984 20.572 135.942 20.8333 135.942 21.104ZM145.368 25.556C144.743 25.556 144.202 25.402 143.744 25.094C143.296 24.786 142.951 24.3473 142.708 23.778C142.466 23.2087 142.344 22.5273 142.344 21.734C142.344 20.4833 142.615 19.5313 143.156 18.878C143.698 18.2153 144.435 17.884 145.368 17.884C146.367 17.884 147.109 18.22 147.594 18.892C148.08 19.5547 148.322 20.4973 148.322 21.72C148.322 22.98 148.056 23.9367 147.524 24.59C147.002 25.234 146.283 25.556 145.368 25.556ZM145.592 24.492C146.246 24.492 146.74 24.254 147.076 23.778C147.422 23.302 147.594 22.616 147.594 21.72C147.594 20.8427 147.417 20.1613 147.062 19.676C146.717 19.1907 146.227 18.948 145.592 18.948C144.948 18.948 144.454 19.186 144.108 19.662C143.772 20.138 143.604 20.8287 143.604 21.734C143.604 22.6113 143.777 23.2927 144.122 23.778C144.468 24.254 144.958 24.492 145.592 24.492ZM148.826 25.724C148.826 26.4147 148.691 26.984 148.42 27.432C148.15 27.88 147.786 28.2113 147.328 28.426C146.871 28.65 146.358 28.762 145.788 28.762C144.911 28.762 144.183 28.552 143.604 28.132C143.026 27.712 142.671 27.0773 142.54 26.228H143.772C143.847 26.7133 144.062 27.0867 144.416 27.348C144.78 27.6093 145.233 27.74 145.774 27.74C146.325 27.74 146.764 27.5813 147.09 27.264C147.426 26.956 147.594 26.4567 147.594 25.766V18.066H148.826V25.724ZM150.802 25.5V18.066H152.034V25.5H150.802ZM150.802 17.072V15.42H152.034V17.072H150.802ZM153.988 25.5V18.066H155.22V25.5H153.988ZM155.22 21.104H154.632C154.678 20.3947 154.823 19.802 155.066 19.326C155.318 18.85 155.654 18.4907 156.074 18.248C156.494 18.0053 156.974 17.884 157.516 17.884C158.048 17.884 158.5 17.9867 158.874 18.192C159.247 18.388 159.532 18.682 159.728 19.074C159.933 19.466 160.036 19.9513 160.036 20.53V25.5H158.804V20.782C158.804 20.4087 158.743 20.0867 158.622 19.816C158.51 19.536 158.332 19.3213 158.09 19.172C157.856 19.0133 157.553 18.934 157.18 18.934C156.872 18.934 156.596 18.9993 156.354 19.13C156.111 19.2513 155.906 19.4147 155.738 19.62C155.57 19.8253 155.439 20.0587 155.346 20.32C155.262 20.572 155.22 20.8333 155.22 21.104ZM167.824 21.076L167.124 21.734C167.124 20.8473 166.937 20.1613 166.564 19.676C166.2 19.1907 165.682 18.948 165.01 18.948C164.319 18.948 163.792 19.1953 163.428 19.69C163.064 20.1753 162.882 20.8753 162.882 21.79C162.882 22.686 163.073 23.3813 163.456 23.876C163.838 24.3613 164.38 24.604 165.08 24.604C165.602 24.604 166.041 24.478 166.396 24.226C166.76 23.974 167.007 23.5913 167.138 23.078H168.426C168.22 23.946 167.819 24.5947 167.222 25.024C166.634 25.4533 165.92 25.668 165.08 25.668C164.361 25.668 163.74 25.514 163.218 25.206C162.704 24.898 162.308 24.4547 162.028 23.876C161.757 23.288 161.622 22.5927 161.622 21.79C161.622 20.95 161.757 20.2407 162.028 19.662C162.308 19.0833 162.7 18.6447 163.204 18.346C163.717 18.038 164.319 17.884 165.01 17.884C165.71 17.884 166.307 18.038 166.802 18.346C167.306 18.654 167.693 19.0927 167.964 19.662C168.234 20.222 168.37 20.8987 168.37 21.692V22H162.14V21.076H167.824ZM175.835 21.076L175.135 21.734C175.135 20.8473 174.949 20.1613 174.575 19.676C174.211 19.1907 173.693 18.948 173.021 18.948C172.331 18.948 171.803 19.1953 171.439 19.69C171.075 20.1753 170.893 20.8753 170.893 21.79C170.893 22.686 171.085 23.3813 171.467 23.876C171.85 24.3613 172.391 24.604 173.091 24.604C173.614 24.604 174.053 24.478 174.407 24.226C174.771 23.974 175.019 23.5913 175.149 23.078H176.437C176.232 23.946 175.831 24.5947 175.233 25.024C174.645 25.4533 173.931 25.668 173.091 25.668C172.373 25.668 171.752 25.514 171.229 25.206C170.716 24.898 170.319 24.4547 170.039 23.876C169.769 23.288 169.633 22.5927 169.633 21.79C169.633 20.95 169.769 20.2407 170.039 19.662C170.319 19.0833 170.711 18.6447 171.215 18.346C171.729 18.038 172.331 17.884 173.021 17.884C173.721 17.884 174.319 18.038 174.813 18.346C175.317 18.654 175.705 19.0927 175.975 19.662C176.246 20.222 176.381 20.8987 176.381 21.692V22H170.151V21.076H175.835ZM178.023 25.5V18.066H179.255V25.5H178.023ZM179.255 21.342H178.695C178.751 20.5393 178.905 19.886 179.157 19.382C179.418 18.8687 179.745 18.4907 180.137 18.248C180.538 18.0053 180.977 17.884 181.453 17.884C181.602 17.884 181.738 17.9027 181.859 17.94C181.99 17.968 182.088 18.01 182.153 18.066V19.172C182.05 19.1347 181.934 19.1113 181.803 19.102C181.672 19.0833 181.532 19.074 181.383 19.074C181.01 19.074 180.688 19.13 180.417 19.242C180.156 19.3447 179.936 19.4987 179.759 19.704C179.591 19.9093 179.465 20.152 179.381 20.432C179.297 20.7027 179.255 21.006 179.255 21.342Z" fill="#F6F8FA"/>
<path d="M72 34.5C69.243 34.5 67 36.743 67 39.5C67 42.257 69.243 44.5 72 44.5C74.757 44.5 77 42.257 77 39.5C77 36.743 74.757 34.5 72 34.5ZM68 39.5C68 39.0505 68.078 38.619 68.2155 38.2155L69 39L70 40V41L71 42L71.5 42.5V43.4655C69.5305 43.218 68 41.536 68 39.5ZM75.165 41.9365C74.8385 41.6735 74.3435 41.5 74 41.5V41C74 40.7348 73.8946 40.4804 73.7071 40.2929C73.5196 40.1054 73.2652 40 73 40H71V38.5C71.2652 38.5 71.5196 38.3946 71.7071 38.2071C71.8946 38.0196 72 37.7652 72 37.5V37H72.5C72.7652 37 73.0196 36.8946 73.2071 36.7071C73.3946 36.5196 73.5 36.2652 73.5 36V35.7945C74.964 36.389 76 37.825 76 39.5C75.9998 40.3823 75.706 41.2395 75.165 41.9365Z" fill="#F6F8FA"/>
<path d="M83.776 37.332C83.776 37.62 83.844 37.852 83.98 38.028C84.124 38.204 84.316 38.344 84.556 38.448C84.796 38.544 85.064 38.624 85.36 38.688C85.656 38.752 85.96 38.816 86.272 38.88C86.592 38.936 86.9 39.012 87.196 39.108C87.492 39.204 87.76 39.336 88 39.504C88.24 39.672 88.428 39.892 88.564 40.164C88.708 40.436 88.78 40.78 88.78 41.196C88.78 41.716 88.648 42.16 88.384 42.528C88.128 42.896 87.772 43.176 87.316 43.368C86.868 43.552 86.352 43.644 85.768 43.644C85.184 43.644 84.664 43.556 84.208 43.38C83.76 43.196 83.384 42.924 83.08 42.564C82.784 42.196 82.576 41.74 82.456 41.196H83.608C83.744 41.684 83.992 42.056 84.352 42.312C84.72 42.568 85.196 42.696 85.78 42.696C86.396 42.696 86.86 42.572 87.172 42.324C87.492 42.076 87.652 41.748 87.652 41.34C87.652 41.028 87.58 40.776 87.436 40.584C87.3 40.392 87.112 40.244 86.872 40.14C86.632 40.028 86.364 39.94 86.068 39.876C85.772 39.804 85.464 39.736 85.144 39.672C84.832 39.608 84.528 39.532 84.232 39.444C83.936 39.348 83.668 39.22 83.428 39.06C83.188 38.9 82.996 38.688 82.852 38.424C82.716 38.16 82.648 37.82 82.648 37.404C82.648 37.012 82.756 36.648 82.972 36.312C83.188 35.976 83.5 35.708 83.908 35.508C84.324 35.3 84.832 35.196 85.432 35.196C85.96 35.196 86.44 35.284 86.872 35.46C87.312 35.636 87.68 35.908 87.976 36.276C88.272 36.636 88.468 37.108 88.564 37.692H87.4C87.272 37.148 87.036 36.756 86.692 36.516C86.356 36.268 85.928 36.144 85.408 36.144C84.896 36.144 84.496 36.252 84.208 36.468C83.92 36.684 83.776 36.972 83.776 37.332ZM90.0705 43.5V37.128H91.1265V43.5H90.0705ZM90.0705 36.276V34.86H91.1265V36.276H90.0705ZM92.8009 43.5V37.128H93.8569V43.5H92.8009ZM93.8569 39.732H93.3529C93.3929 39.124 93.5169 38.616 93.7249 38.208C93.9409 37.8 94.2289 37.492 94.5889 37.284C94.9489 37.076 95.3609 36.972 95.8249 36.972C96.2809 36.972 96.6689 37.06 96.9889 37.236C97.3089 37.404 97.5529 37.656 97.7209 37.992C97.8969 38.328 97.9849 38.744 97.9849 39.24V43.5H96.9289V39.456C96.9289 39.136 96.8769 38.86 96.7729 38.628C96.6769 38.388 96.5249 38.204 96.3169 38.076C96.1169 37.94 95.8569 37.872 95.5369 37.872C95.2729 37.872 95.0369 37.928 94.8289 38.04C94.6209 38.144 94.4449 38.284 94.3009 38.46C94.1569 38.636 94.0449 38.836 93.9649 39.06C93.8929 39.276 93.8569 39.5 93.8569 39.732ZM101.936 43.548C101.4 43.548 100.936 43.416 100.544 43.152C100.16 42.888 99.8641 42.512 99.6561 42.024C99.4481 41.536 99.3441 40.952 99.3441 40.272C99.3441 39.2 99.5761 38.384 100.04 37.824C100.504 37.256 101.136 36.972 101.936 36.972C102.792 36.972 103.428 37.26 103.844 37.836C104.26 38.404 104.468 39.212 104.468 40.26C104.468 41.34 104.24 42.16 103.784 42.72C103.336 43.272 102.72 43.548 101.936 43.548ZM102.128 42.636C102.688 42.636 103.112 42.432 103.4 42.024C103.696 41.616 103.844 41.028 103.844 40.26C103.844 39.508 103.692 38.924 103.388 38.508C103.092 38.092 102.672 37.884 102.128 37.884C101.576 37.884 101.152 38.088 100.856 38.496C100.568 38.904 100.424 39.496 100.424 40.272C100.424 41.024 100.572 41.608 100.868 42.024C101.164 42.432 101.584 42.636 102.128 42.636ZM104.9 43.692C104.9 44.284 104.784 44.772 104.552 45.156C104.32 45.54 104.008 45.824 103.616 46.008C103.224 46.2 102.784 46.296 102.296 46.296C101.544 46.296 100.92 46.116 100.424 45.756C99.9281 45.396 99.6241 44.852 99.5121 44.124H100.568C100.632 44.54 100.816 44.86 101.12 45.084C101.432 45.308 101.82 45.42 102.284 45.42C102.756 45.42 103.132 45.284 103.412 45.012C103.7 44.748 103.844 44.32 103.844 43.728V37.128H104.9V43.692ZM107.566 39.204H106.51C106.582 38.732 106.73 38.332 106.954 38.004C107.178 37.668 107.478 37.412 107.854 37.236C108.23 37.06 108.678 36.972 109.198 36.972C109.766 36.972 110.238 37.076 110.614 37.284C110.99 37.492 111.27 37.784 111.454 38.16C111.638 38.528 111.73 38.96 111.73 39.456V41.964C111.73 42.332 111.746 42.636 111.778 42.876C111.818 43.116 111.878 43.324 111.958 43.5H110.842C110.762 43.34 110.714 43.14 110.698 42.9C110.682 42.66 110.674 42.424 110.674 42.192V39.48C110.674 38.968 110.546 38.576 110.29 38.304C110.042 38.024 109.646 37.884 109.102 37.884C108.646 37.884 108.29 38.004 108.034 38.244C107.786 38.476 107.63 38.796 107.566 39.204ZM110.83 39.624V40.416C110.118 40.416 109.534 40.452 109.078 40.524C108.63 40.588 108.282 40.684 108.034 40.812C107.786 40.932 107.614 41.076 107.518 41.244C107.422 41.412 107.374 41.596 107.374 41.796C107.374 42.092 107.486 42.324 107.71 42.492C107.942 42.652 108.242 42.732 108.61 42.732C109.002 42.732 109.354 42.64 109.666 42.456C109.978 42.272 110.222 42.028 110.398 41.724C110.582 41.412 110.674 41.076 110.674 40.716H111.238C111.206 41.236 111.102 41.684 110.926 42.06C110.758 42.428 110.538 42.728 110.266 42.96C110.002 43.192 109.718 43.364 109.414 43.476C109.11 43.588 108.806 43.644 108.502 43.644C108.062 43.644 107.674 43.576 107.338 43.44C107.01 43.304 106.754 43.1 106.57 42.828C106.386 42.556 106.294 42.22 106.294 41.82C106.294 41.38 106.41 41.008 106.642 40.704C106.882 40.392 107.238 40.156 107.71 39.996C108.158 39.844 108.626 39.744 109.114 39.696C109.602 39.648 110.174 39.624 110.83 39.624ZM116.317 36.972C116.885 36.972 117.369 37.104 117.769 37.368C118.177 37.632 118.489 38.012 118.705 38.508C118.921 39.004 119.029 39.6 119.029 40.296C119.029 41.376 118.785 42.204 118.297 42.78C117.809 43.356 117.149 43.644 116.317 43.644C115.581 43.644 114.993 43.36 114.553 42.792C114.121 42.216 113.905 41.384 113.905 40.296C113.905 39.624 114.001 39.04 114.193 38.544C114.393 38.048 114.673 37.664 115.033 37.392C115.401 37.112 115.829 36.972 116.317 36.972ZM116.245 37.884C115.685 37.884 115.257 38.092 114.961 38.508C114.673 38.916 114.529 39.512 114.529 40.296C114.529 41.072 114.677 41.672 114.973 42.096C115.277 42.52 115.701 42.732 116.245 42.732C116.797 42.732 117.217 42.524 117.505 42.108C117.801 41.684 117.949 41.08 117.949 40.296C117.949 39.528 117.801 38.936 117.505 38.52C117.209 38.096 116.789 37.884 116.245 37.884ZM114.529 46.14H113.473V37.128H114.529V46.14ZM122.979 43.644C122.371 43.644 121.847 43.512 121.407 43.248C120.975 42.984 120.643 42.604 120.411 42.108C120.179 41.604 120.063 41.008 120.063 40.32C120.063 39.6 120.179 38.992 120.411 38.496C120.651 38 120.991 37.624 121.431 37.368C121.871 37.104 122.387 36.972 122.979 36.972C123.587 36.972 124.107 37.108 124.539 37.38C124.979 37.644 125.315 38.028 125.547 38.532C125.779 39.028 125.895 39.624 125.895 40.32C125.895 41.032 125.775 41.636 125.535 42.132C125.303 42.628 124.967 43.004 124.527 43.26C124.095 43.516 123.579 43.644 122.979 43.644ZM122.979 42.732C123.571 42.732 124.023 42.524 124.335 42.108C124.655 41.692 124.815 41.096 124.815 40.32C124.815 39.544 124.655 38.944 124.335 38.52C124.023 38.096 123.571 37.884 122.979 37.884C122.387 37.884 121.931 38.096 121.611 38.52C121.299 38.936 121.143 39.536 121.143 40.32C121.143 41.088 121.303 41.684 121.623 42.108C121.943 42.524 122.395 42.732 122.979 42.732ZM127.254 43.5V37.128H128.31V43.5H127.254ZM128.31 39.936H127.83C127.878 39.248 128.01 38.688 128.226 38.256C128.45 37.816 128.73 37.492 129.066 37.284C129.41 37.076 129.786 36.972 130.194 36.972C130.322 36.972 130.438 36.988 130.542 37.02C130.654 37.044 130.738 37.08 130.794 37.128V38.076C130.706 38.044 130.606 38.024 130.494 38.016C130.382 38 130.262 37.992 130.134 37.992C129.814 37.992 129.538 38.04 129.306 38.136C129.082 38.224 128.894 38.356 128.742 38.532C128.598 38.708 128.49 38.916 128.418 39.156C128.346 39.388 128.31 39.648 128.31 39.936ZM136.605 39.708L136.005 40.272C136.005 39.512 135.845 38.924 135.525 38.508C135.213 38.092 134.769 37.884 134.193 37.884C133.601 37.884 133.149 38.096 132.837 38.52C132.525 38.936 132.369 39.536 132.369 40.32C132.369 41.088 132.533 41.684 132.861 42.108C133.189 42.524 133.653 42.732 134.253 42.732C134.701 42.732 135.077 42.624 135.381 42.408C135.693 42.192 135.905 41.864 136.017 41.424H137.121C136.945 42.168 136.601 42.724 136.089 43.092C135.585 43.46 134.973 43.644 134.253 43.644C133.637 43.644 133.105 43.512 132.657 43.248C132.217 42.984 131.877 42.604 131.637 42.108C131.405 41.604 131.289 41.008 131.289 40.32C131.289 39.6 131.405 38.992 131.637 38.496C131.877 38 132.213 37.624 132.645 37.368C133.085 37.104 133.601 36.972 134.193 36.972C134.793 36.972 135.305 37.104 135.729 37.368C136.161 37.632 136.493 38.008 136.725 38.496C136.957 38.976 137.073 39.556 137.073 40.236V40.5H131.733V39.708H136.605Z" fill="#F6F8FA"/>
<path d="M152.5 37H149.5C149.367 37 149.24 37.0527 149.146 37.1464C149.053 37.2402 149 37.3674 149 37.5V39H148V35.5C148 35.3674 147.947 35.2402 147.854 35.1464C147.76 35.0527 147.633 35 147.5 35H143.5C143.367 35 143.24 35.0527 143.146 35.1464C143.053 35.2402 143 35.3674 143 35.5V43.5C143 43.6326 143.053 43.7598 143.146 43.8536C143.24 43.9473 143.367 44 143.5 44H152.5C152.633 44 152.76 43.9473 152.854 43.8536C152.947 43.7598 153 43.6326 153 43.5V37.5C153 37.3674 152.947 37.2402 152.854 37.1464C152.76 37.0527 152.633 37 152.5 37ZM146 36.5H147V37.5H146V36.5ZM145 41.5H144V40.5H145V41.5ZM145 39.5H144V38.5H145V39.5ZM145 37.5H144V36.5H145V37.5ZM147 41.5H146V40.5H147V41.5ZM147 39.5H146V38.5H147V39.5ZM151.5 41.5H150.5V40.5H151.5V41.5ZM151.5 39.5H150.5V38.5H151.5V39.5Z" fill="#F6F8FA"/>
<path d="M158.936 43.5V35.34H160.04V43.5H158.936ZM162.212 43.5H159.728V42.612H162.188C162.708 42.612 163.12 42.484 163.424 42.228C163.728 41.964 163.88 41.616 163.88 41.184C163.88 40.752 163.712 40.408 163.376 40.152C163.048 39.896 162.596 39.768 162.02 39.768H159.728V38.88H161.756C162.284 38.88 162.692 38.76 162.98 38.52C163.276 38.28 163.424 37.964 163.424 37.572C163.424 37.156 163.276 36.828 162.98 36.588C162.692 36.348 162.292 36.228 161.78 36.228H159.728V35.34H161.804C162.644 35.34 163.312 35.536 163.808 35.928C164.312 36.32 164.564 36.848 164.564 37.512C164.564 37.992 164.412 38.4 164.108 38.736C163.804 39.064 163.364 39.272 162.788 39.36V39.108C163.508 39.18 164.056 39.408 164.432 39.792C164.816 40.168 165.008 40.64 165.008 41.208C165.008 41.936 164.76 42.5 164.264 42.9C163.768 43.3 163.084 43.5 162.212 43.5ZM166.363 43.5V37.128H167.419V43.5H166.363ZM166.363 36.276V34.86H167.419V36.276H166.363ZM171.686 43.644C171.078 43.644 170.554 43.512 170.114 43.248C169.682 42.984 169.35 42.604 169.118 42.108C168.886 41.604 168.77 41.008 168.77 40.32C168.77 39.6 168.886 38.992 169.118 38.496C169.358 38 169.698 37.624 170.138 37.368C170.578 37.104 171.094 36.972 171.686 36.972C172.294 36.972 172.814 37.108 173.246 37.38C173.686 37.644 174.022 38.028 174.254 38.532C174.486 39.028 174.602 39.624 174.602 40.32C174.602 41.032 174.482 41.636 174.242 42.132C174.01 42.628 173.674 43.004 173.234 43.26C172.802 43.516 172.286 43.644 171.686 43.644ZM171.686 42.732C172.278 42.732 172.73 42.524 173.042 42.108C173.362 41.692 173.522 41.096 173.522 40.32C173.522 39.544 173.362 38.944 173.042 38.52C172.73 38.096 172.278 37.884 171.686 37.884C171.094 37.884 170.638 38.096 170.318 38.52C170.006 38.936 169.85 39.536 169.85 40.32C169.85 41.088 170.01 41.684 170.33 42.108C170.65 42.524 171.102 42.732 171.686 42.732ZM176.105 41.664V35.664H177.161V41.664C177.161 42.048 177.237 42.332 177.389 42.516C177.549 42.7 177.861 42.792 178.325 42.792H178.541V43.548C178.485 43.58 178.393 43.604 178.265 43.62C178.145 43.636 178.009 43.644 177.857 43.644C177.265 43.644 176.825 43.484 176.537 43.164C176.249 42.836 176.105 42.336 176.105 41.664ZM175.217 37.968V37.128H178.565V37.968H175.217ZM184.562 39.708L183.962 40.272C183.962 39.512 183.802 38.924 183.482 38.508C183.17 38.092 182.726 37.884 182.15 37.884C181.558 37.884 181.106 38.096 180.794 38.52C180.482 38.936 180.326 39.536 180.326 40.32C180.326 41.088 180.49 41.684 180.818 42.108C181.146 42.524 181.61 42.732 182.21 42.732C182.658 42.732 183.034 42.624 183.338 42.408C183.65 42.192 183.862 41.864 183.974 41.424H185.078C184.902 42.168 184.558 42.724 184.046 43.092C183.542 43.46 182.93 43.644 182.21 43.644C181.594 43.644 181.062 43.512 180.614 43.248C180.174 42.984 179.834 42.604 179.594 42.108C179.362 41.604 179.246 41.008 179.246 40.32C179.246 39.6 179.362 38.992 179.594 38.496C179.834 38 180.17 37.624 180.602 37.368C181.042 37.104 181.558 36.972 182.15 36.972C182.75 36.972 183.262 37.104 183.686 37.368C184.118 37.632 184.45 38.008 184.682 38.496C184.914 38.976 185.03 39.556 185.03 40.236V40.5H179.69V39.708H184.562ZM191.706 39.324H190.65C190.562 38.836 190.37 38.476 190.074 38.244C189.778 38.004 189.418 37.884 188.994 37.884C188.41 37.884 187.962 38.096 187.65 38.52C187.346 38.936 187.194 39.536 187.194 40.32C187.194 41.096 187.354 41.696 187.674 42.12C187.994 42.536 188.446 42.744 189.03 42.744C189.454 42.744 189.81 42.632 190.098 42.408C190.394 42.176 190.594 41.832 190.698 41.376H191.754C191.61 42.168 191.29 42.744 190.794 43.104C190.298 43.464 189.702 43.644 189.006 43.644C188.406 43.644 187.89 43.512 187.458 43.248C187.026 42.976 186.694 42.592 186.462 42.096C186.23 41.6 186.114 41.008 186.114 40.32C186.114 39.6 186.23 38.992 186.462 38.496C186.694 38 187.026 37.624 187.458 37.368C187.89 37.104 188.402 36.972 188.994 36.972C189.466 36.972 189.894 37.06 190.278 37.236C190.662 37.412 190.978 37.676 191.226 38.028C191.482 38.372 191.642 38.804 191.706 39.324ZM193.059 43.5V34.86H194.115V43.5H193.059ZM194.115 39.732H193.611C193.651 39.124 193.775 38.616 193.983 38.208C194.199 37.8 194.487 37.492 194.847 37.284C195.207 37.076 195.619 36.972 196.083 36.972C196.539 36.972 196.927 37.06 197.247 37.236C197.567 37.404 197.811 37.656 197.979 37.992C198.155 38.328 198.243 38.744 198.243 39.24V43.5H197.187V39.456C197.187 39.136 197.135 38.86 197.031 38.628C196.935 38.388 196.783 38.204 196.575 38.076C196.375 37.94 196.115 37.872 195.795 37.872C195.531 37.872 195.295 37.928 195.087 38.04C194.879 38.144 194.703 38.284 194.559 38.46C194.415 38.636 194.303 38.836 194.223 39.06C194.151 39.276 194.115 39.5 194.115 39.732Z" fill="#F6F8FA"/>
<defs>
<linearGradient id="paint0_linear_122_3685" x1="-87.5" y1="29" x2="113.301" y2="-210.002" gradientUnits="userSpaceOnUse">
<stop stop-color="#F6F8FA" stop-opacity="0"/>
<stop offset="1" stop-color="#F6F8FA"/>
</linearGradient>
</defs>
</svg>
