<svg width="235" height="58" viewBox="0 0 235 58" fill="none" xmlns="http://www.w3.org/2000/svg">
<rect width="235" height="58" rx="8" fill="url(#paint0_linear_120_3417)" fill-opacity="0.1"/>
<g opacity="0.5">
<path d="M33 11C23.0891 11 15 19.0891 15 29C15 38.9109 23.0891 47 33 47C42.9109 47 51 38.9109 51 29C51 19.0891 42.9109 11 33 11ZM20.0283 29C20.0283 25.2834 21.6316 21.8583 24.1822 19.5263C25.2024 18.579 26.9514 18.8704 27.6802 20.1093L32.1984 27.9069C32.6356 28.6356 32.6356 29.5101 32.1984 30.2389L27.6802 38.0364C26.9514 39.3482 25.2024 39.5668 24.1093 38.5465C21.6316 36.0688 20.0283 32.7166 20.0283 29ZM38.3198 37.8907L33.8016 30.0931C33.3644 29.3644 33.3644 28.4899 33.8016 27.7611L38.3198 19.9636C39.0486 18.7247 40.7247 18.4332 41.8178 19.3806C44.3684 21.7126 45.9717 25.1377 45.9717 28.8542C45.9717 32.5709 44.3684 35.996 41.8178 38.3279C40.7247 39.4939 39.0486 39.2024 38.3198 37.8907Z" fill="#F6F8FA"/>
</g>
<path d="M68.072 19.804C68.072 20.14 68.1513 20.4107 68.31 20.616C68.478 20.8213 68.702 20.9847 68.982 21.106C69.262 21.218 69.5747 21.3113 69.92 21.386C70.2653 21.4607 70.62 21.5353 70.984 21.61C71.3573 21.6753 71.7167 21.764 72.062 21.876C72.4073 21.988 72.72 22.142 73 22.338C73.28 22.534 73.4993 22.7907 73.658 23.108C73.826 23.4253 73.91 23.8267 73.91 24.312C73.91 24.9187 73.756 25.4367 73.448 25.866C73.1493 26.2953 72.734 26.622 72.202 26.846C71.6793 27.0607 71.0773 27.168 70.396 27.168C69.7147 27.168 69.108 27.0653 68.576 26.86C68.0533 26.6453 67.6147 26.328 67.26 25.908C66.9147 25.4787 66.672 24.9467 66.532 24.312H67.876C68.0347 24.8813 68.324 25.3153 68.744 25.614C69.1733 25.9127 69.7287 26.062 70.41 26.062C71.1287 26.062 71.67 25.9173 72.034 25.628C72.4073 25.3387 72.594 24.956 72.594 24.48C72.594 24.116 72.51 23.822 72.342 23.598C72.1833 23.374 71.964 23.2013 71.684 23.08C71.404 22.9493 71.0913 22.8467 70.746 22.772C70.4007 22.688 70.0413 22.6087 69.668 22.534C69.304 22.4593 68.9493 22.3707 68.604 22.268C68.2587 22.156 67.946 22.0067 67.666 21.82C67.386 21.6333 67.162 21.386 66.994 21.078C66.8353 20.77 66.756 20.3733 66.756 19.888C66.756 19.4307 66.882 19.006 67.134 18.614C67.386 18.222 67.75 17.9093 68.226 17.676C68.7113 17.4333 69.304 17.312 70.004 17.312C70.62 17.312 71.18 17.4147 71.684 17.62C72.1973 17.8253 72.6267 18.1427 72.972 18.572C73.3173 18.992 73.546 19.5427 73.658 20.224H72.3C72.1507 19.5893 71.8753 19.132 71.474 18.852C71.082 18.5627 70.5827 18.418 69.976 18.418C69.3787 18.418 68.912 18.544 68.576 18.796C68.24 19.048 68.072 19.384 68.072 19.804ZM78.4395 27.168C77.7302 27.168 77.1189 27.014 76.6055 26.706C76.1015 26.398 75.7142 25.9547 75.4435 25.376C75.1729 24.788 75.0375 24.0927 75.0375 23.29C75.0375 22.45 75.1729 21.7407 75.4435 21.162C75.7235 20.5833 76.1202 20.1447 76.6335 19.846C77.1469 19.538 77.7489 19.384 78.4395 19.384C79.1489 19.384 79.7555 19.5427 80.2595 19.86C80.7729 20.168 81.1649 20.616 81.4355 21.204C81.7062 21.7827 81.8415 22.478 81.8415 23.29C81.8415 24.1207 81.7015 24.8253 81.4215 25.404C81.1509 25.9827 80.7589 26.4213 80.2455 26.72C79.7415 27.0187 79.1395 27.168 78.4395 27.168ZM78.4395 26.104C79.1302 26.104 79.6575 25.8613 80.0215 25.376C80.3949 24.8907 80.5815 24.1953 80.5815 23.29C80.5815 22.3847 80.3949 21.6847 80.0215 21.19C79.6575 20.6953 79.1302 20.448 78.4395 20.448C77.7489 20.448 77.2169 20.6953 76.8435 21.19C76.4795 21.6753 76.2975 22.3753 76.2975 23.29C76.2975 24.186 76.4842 24.8813 76.8575 25.376C77.2309 25.8613 77.7582 26.104 78.4395 26.104ZM83.5533 19.062C83.5533 18.278 83.7166 17.6993 84.0433 17.326C84.3793 16.9433 84.8879 16.752 85.5693 16.752C85.7279 16.752 85.8633 16.766 85.9753 16.794C86.0966 16.8127 86.1899 16.836 86.2553 16.864V17.746H86.1293C85.5879 17.746 85.2286 17.8533 85.0513 18.068C84.8739 18.2827 84.7853 18.614 84.7853 19.062V27H83.5533V19.062ZM82.5173 20.546V19.566H86.2553V20.546H82.5173ZM87.4097 24.858V17.858H88.6417V24.858C88.6417 25.306 88.7304 25.6373 88.9077 25.852C89.0944 26.0667 89.4584 26.174 89.9997 26.174H90.2517V27.056C90.1864 27.0933 90.0791 27.1213 89.9297 27.14C89.7897 27.1587 89.6311 27.168 89.4537 27.168C88.7631 27.168 88.2497 26.9813 87.9137 26.608C87.5777 26.2253 87.4097 25.642 87.4097 24.858ZM86.3737 20.546V19.566H90.2797V20.546H86.3737ZM97.8927 27L96.2827 21.442L96.0867 20.42H96.1567L95.9467 21.442L94.3507 27H92.8247L90.6127 19.566H91.9427L93.4687 25.334L93.6927 26.272H93.6087L93.8327 25.334L95.5267 19.566H96.8567L98.5507 25.334L98.7607 26.258H98.6767L98.8727 25.334L100.399 19.566H101.673L99.4467 27H97.8927ZM103.921 21.988H102.689C102.773 21.4373 102.945 20.9707 103.207 20.588C103.468 20.196 103.818 19.8973 104.257 19.692C104.695 19.4867 105.218 19.384 105.825 19.384C106.487 19.384 107.038 19.5053 107.477 19.748C107.915 19.9907 108.242 20.3313 108.457 20.77C108.671 21.1993 108.779 21.7033 108.779 22.282V25.208C108.779 25.6373 108.797 25.992 108.835 26.272C108.881 26.552 108.951 26.7947 109.045 27H107.743C107.649 26.8133 107.593 26.58 107.575 26.3C107.556 26.02 107.547 25.7447 107.547 25.474V22.31C107.547 21.7127 107.397 21.2553 107.099 20.938C106.809 20.6113 106.347 20.448 105.713 20.448C105.181 20.448 104.765 20.588 104.467 20.868C104.177 21.1387 103.995 21.512 103.921 21.988ZM107.729 22.478V23.402C106.898 23.402 106.217 23.444 105.685 23.528C105.162 23.6027 104.756 23.7147 104.467 23.864C104.177 24.004 103.977 24.172 103.865 24.368C103.753 24.564 103.697 24.7787 103.697 25.012C103.697 25.3573 103.827 25.628 104.089 25.824C104.359 26.0107 104.709 26.104 105.139 26.104C105.596 26.104 106.007 25.9967 106.371 25.782C106.735 25.5673 107.019 25.2827 107.225 24.928C107.439 24.564 107.547 24.172 107.547 23.752H108.205C108.167 24.3587 108.046 24.8813 107.841 25.32C107.645 25.7493 107.388 26.0993 107.071 26.37C106.763 26.6407 106.431 26.8413 106.077 26.972C105.722 27.1027 105.367 27.168 105.013 27.168C104.499 27.168 104.047 27.0887 103.655 26.93C103.272 26.7713 102.973 26.5333 102.759 26.216C102.544 25.8987 102.437 25.5067 102.437 25.04C102.437 24.5267 102.572 24.0927 102.843 23.738C103.123 23.374 103.538 23.0987 104.089 22.912C104.611 22.7347 105.157 22.618 105.727 22.562C106.296 22.506 106.963 22.478 107.729 22.478ZM110.798 27V19.566H112.03V27H110.798ZM112.03 22.842H111.47C111.526 22.0393 111.68 21.386 111.932 20.882C112.194 20.3687 112.52 19.9907 112.912 19.748C113.314 19.5053 113.752 19.384 114.228 19.384C114.378 19.384 114.513 19.4027 114.634 19.44C114.765 19.468 114.863 19.51 114.928 19.566V20.672C114.826 20.6347 114.709 20.6113 114.578 20.602C114.448 20.5833 114.308 20.574 114.158 20.574C113.785 20.574 113.463 20.63 113.192 20.742C112.931 20.8447 112.712 20.9987 112.534 21.204C112.366 21.4093 112.24 21.652 112.156 21.932C112.072 22.2027 112.03 22.506 112.03 22.842ZM121.708 22.576L121.008 23.234C121.008 22.3473 120.822 21.6613 120.448 21.176C120.084 20.6907 119.566 20.448 118.894 20.448C118.204 20.448 117.676 20.6953 117.312 21.19C116.948 21.6753 116.766 22.3753 116.766 23.29C116.766 24.186 116.958 24.8813 117.34 25.376C117.723 25.8613 118.264 26.104 118.964 26.104C119.487 26.104 119.926 25.978 120.28 25.726C120.644 25.474 120.892 25.0913 121.022 24.578H122.31C122.105 25.446 121.704 26.0947 121.106 26.524C120.518 26.9533 119.804 27.168 118.964 27.168C118.246 27.168 117.625 27.014 117.102 26.706C116.589 26.398 116.192 25.9547 115.912 25.376C115.642 24.788 115.506 24.0927 115.506 23.29C115.506 22.45 115.642 21.7407 115.912 21.162C116.192 20.5833 116.584 20.1447 117.088 19.846C117.602 19.538 118.204 19.384 118.894 19.384C119.594 19.384 120.192 19.538 120.686 19.846C121.19 20.154 121.578 20.5927 121.848 21.162C122.119 21.722 122.254 22.3987 122.254 23.192V23.5H116.024V22.576H121.708ZM132.523 22.576L131.823 23.234C131.823 22.3473 131.636 21.6613 131.263 21.176C130.899 20.6907 130.381 20.448 129.709 20.448C129.018 20.448 128.491 20.6953 128.127 21.19C127.763 21.6753 127.581 22.3753 127.581 23.29C127.581 24.186 127.772 24.8813 128.155 25.376C128.537 25.8613 129.079 26.104 129.779 26.104C130.301 26.104 130.74 25.978 131.095 25.726C131.459 25.474 131.706 25.0913 131.837 24.578H133.125C132.919 25.446 132.518 26.0947 131.921 26.524C131.333 26.9533 130.619 27.168 129.779 27.168C129.06 27.168 128.439 27.014 127.917 26.706C127.403 26.398 127.007 25.9547 126.727 25.376C126.456 24.788 126.321 24.0927 126.321 23.29C126.321 22.45 126.456 21.7407 126.727 21.162C127.007 20.5833 127.399 20.1447 127.903 19.846C128.416 19.538 129.018 19.384 129.709 19.384C130.409 19.384 131.006 19.538 131.501 19.846C132.005 20.154 132.392 20.5927 132.663 21.162C132.933 21.722 133.069 22.3987 133.069 23.192V23.5H126.839V22.576H132.523ZM134.71 27V19.566H135.942V27H134.71ZM135.942 22.604H135.354C135.401 21.8947 135.546 21.302 135.788 20.826C136.04 20.35 136.376 19.9907 136.796 19.748C137.216 19.5053 137.697 19.384 138.238 19.384C138.77 19.384 139.223 19.4867 139.596 19.692C139.97 19.888 140.254 20.182 140.45 20.574C140.656 20.966 140.758 21.4513 140.758 22.03V27H139.526V22.282C139.526 21.9087 139.466 21.5867 139.344 21.316C139.232 21.036 139.055 20.8213 138.812 20.672C138.579 20.5133 138.276 20.434 137.902 20.434C137.594 20.434 137.319 20.4993 137.076 20.63C136.834 20.7513 136.628 20.9147 136.46 21.12C136.292 21.3253 136.162 21.5587 136.068 21.82C135.984 22.072 135.942 22.3333 135.942 22.604ZM145.368 27.056C144.743 27.056 144.202 26.902 143.744 26.594C143.296 26.286 142.951 25.8473 142.708 25.278C142.466 24.7087 142.344 24.0273 142.344 23.234C142.344 21.9833 142.615 21.0313 143.156 20.378C143.698 19.7153 144.435 19.384 145.368 19.384C146.367 19.384 147.109 19.72 147.594 20.392C148.08 21.0547 148.322 21.9973 148.322 23.22C148.322 24.48 148.056 25.4367 147.524 26.09C147.002 26.734 146.283 27.056 145.368 27.056ZM145.592 25.992C146.246 25.992 146.74 25.754 147.076 25.278C147.422 24.802 147.594 24.116 147.594 23.22C147.594 22.3427 147.417 21.6613 147.062 21.176C146.717 20.6907 146.227 20.448 145.592 20.448C144.948 20.448 144.454 20.686 144.108 21.162C143.772 21.638 143.604 22.3287 143.604 23.234C143.604 24.1113 143.777 24.7927 144.122 25.278C144.468 25.754 144.958 25.992 145.592 25.992ZM148.826 27.224C148.826 27.9147 148.691 28.484 148.42 28.932C148.15 29.38 147.786 29.7113 147.328 29.926C146.871 30.15 146.358 30.262 145.788 30.262C144.911 30.262 144.183 30.052 143.604 29.632C143.026 29.212 142.671 28.5773 142.54 27.728H143.772C143.847 28.2133 144.062 28.5867 144.416 28.848C144.78 29.1093 145.233 29.24 145.774 29.24C146.325 29.24 146.764 29.0813 147.09 28.764C147.426 28.456 147.594 27.9567 147.594 27.266V19.566H148.826V27.224ZM150.802 27V19.566H152.034V27H150.802ZM150.802 18.572V16.92H152.034V18.572H150.802ZM153.988 27V19.566H155.22V27H153.988ZM155.22 22.604H154.632C154.678 21.8947 154.823 21.302 155.066 20.826C155.318 20.35 155.654 19.9907 156.074 19.748C156.494 19.5053 156.974 19.384 157.516 19.384C158.048 19.384 158.5 19.4867 158.874 19.692C159.247 19.888 159.532 20.182 159.728 20.574C159.933 20.966 160.036 21.4513 160.036 22.03V27H158.804V22.282C158.804 21.9087 158.743 21.5867 158.622 21.316C158.51 21.036 158.332 20.8213 158.09 20.672C157.856 20.5133 157.553 20.434 157.18 20.434C156.872 20.434 156.596 20.4993 156.354 20.63C156.111 20.7513 155.906 20.9147 155.738 21.12C155.57 21.3253 155.439 21.5587 155.346 21.82C155.262 22.072 155.22 22.3333 155.22 22.604ZM167.824 22.576L167.124 23.234C167.124 22.3473 166.937 21.6613 166.564 21.176C166.2 20.6907 165.682 20.448 165.01 20.448C164.319 20.448 163.792 20.6953 163.428 21.19C163.064 21.6753 162.882 22.3753 162.882 23.29C162.882 24.186 163.073 24.8813 163.456 25.376C163.838 25.8613 164.38 26.104 165.08 26.104C165.602 26.104 166.041 25.978 166.396 25.726C166.76 25.474 167.007 25.0913 167.138 24.578H168.426C168.22 25.446 167.819 26.0947 167.222 26.524C166.634 26.9533 165.92 27.168 165.08 27.168C164.361 27.168 163.74 27.014 163.218 26.706C162.704 26.398 162.308 25.9547 162.028 25.376C161.757 24.788 161.622 24.0927 161.622 23.29C161.622 22.45 161.757 21.7407 162.028 21.162C162.308 20.5833 162.7 20.1447 163.204 19.846C163.717 19.538 164.319 19.384 165.01 19.384C165.71 19.384 166.307 19.538 166.802 19.846C167.306 20.154 167.693 20.5927 167.964 21.162C168.234 21.722 168.37 22.3987 168.37 23.192V23.5H162.14V22.576H167.824ZM175.835 22.576L175.135 23.234C175.135 22.3473 174.949 21.6613 174.575 21.176C174.211 20.6907 173.693 20.448 173.021 20.448C172.331 20.448 171.803 20.6953 171.439 21.19C171.075 21.6753 170.893 22.3753 170.893 23.29C170.893 24.186 171.085 24.8813 171.467 25.376C171.85 25.8613 172.391 26.104 173.091 26.104C173.614 26.104 174.053 25.978 174.407 25.726C174.771 25.474 175.019 25.0913 175.149 24.578H176.437C176.232 25.446 175.831 26.0947 175.233 26.524C174.645 26.9533 173.931 27.168 173.091 27.168C172.373 27.168 171.752 27.014 171.229 26.706C170.716 26.398 170.319 25.9547 170.039 25.376C169.769 24.788 169.633 24.0927 169.633 23.29C169.633 22.45 169.769 21.7407 170.039 21.162C170.319 20.5833 170.711 20.1447 171.215 19.846C171.729 19.538 172.331 19.384 173.021 19.384C173.721 19.384 174.319 19.538 174.813 19.846C175.317 20.154 175.705 20.5927 175.975 21.162C176.246 21.722 176.381 22.3987 176.381 23.192V23.5H170.151V22.576H175.835ZM178.023 27V19.566H179.255V27H178.023ZM179.255 22.842H178.695C178.751 22.0393 178.905 21.386 179.157 20.882C179.418 20.3687 179.745 19.9907 180.137 19.748C180.538 19.5053 180.977 19.384 181.453 19.384C181.602 19.384 181.738 19.4027 181.859 19.44C181.99 19.468 182.088 19.51 182.153 19.566V20.672C182.05 20.6347 181.934 20.6113 181.803 20.602C181.672 20.5833 181.532 20.574 181.383 20.574C181.01 20.574 180.688 20.63 180.417 20.742C180.156 20.8447 179.936 20.9987 179.759 21.204C179.591 21.4093 179.465 21.652 179.381 21.932C179.297 22.2027 179.255 22.506 179.255 22.842Z" fill="#F6F8FA"/>
<path d="M72 34.5C69.243 34.5 67 36.743 67 39.5C67 42.257 69.243 44.5 72 44.5C74.757 44.5 77 42.257 77 39.5C77 36.743 74.757 34.5 72 34.5ZM68 39.5C68 39.0505 68.078 38.619 68.2155 38.2155L69 39L70 40V41L71 42L71.5 42.5V43.4655C69.5305 43.218 68 41.536 68 39.5ZM75.165 41.9365C74.8385 41.6735 74.3435 41.5 74 41.5V41C74 40.7348 73.8946 40.4804 73.7071 40.2929C73.5196 40.1054 73.2652 40 73 40H71V38.5C71.2652 38.5 71.5196 38.3946 71.7071 38.2071C71.8946 38.0196 72 37.7652 72 37.5V37H72.5C72.7652 37 73.0196 36.8946 73.2071 36.7071C73.3946 36.5196 73.5 36.2652 73.5 36V35.7945C74.964 36.389 76 37.825 76 39.5C75.9998 40.3823 75.706 41.2395 75.165 41.9365Z" fill="#F6F8FA"/>
<path d="M88.38 38.16H87.42C87.2933 37.7467 87.0633 37.43 86.73 37.21C86.4033 36.9833 86.0233 36.87 85.59 36.87C85.15 36.87 84.77 36.98 84.45 37.2C84.1367 37.42 83.8933 37.7367 83.72 38.15C83.5533 38.5567 83.47 39.0433 83.47 39.61C83.47 40.1767 83.5533 40.6633 83.72 41.07C83.8867 41.4767 84.1267 41.79 84.44 42.01C84.76 42.2233 85.1433 42.33 85.59 42.33C86.01 42.33 86.38 42.2233 86.7 42.01C87.02 41.7967 87.2533 41.4867 87.4 41.08H88.37C88.2433 41.5067 88.0433 41.8733 87.77 42.18C87.4967 42.4867 87.17 42.72 86.79 42.88C86.4167 43.04 86.0133 43.12 85.58 43.12C84.9467 43.12 84.4 42.98 83.94 42.7C83.4867 42.4133 83.1367 42.01 82.89 41.49C82.65 40.9633 82.53 40.3367 82.53 39.61C82.53 38.8833 82.6533 38.2567 82.9 37.73C83.1533 37.2033 83.51 36.7967 83.97 36.51C84.43 36.2233 84.98 36.08 85.62 36.08C86.06 36.08 86.4667 36.16 86.84 36.32C87.22 36.4733 87.5433 36.7067 87.81 37.02C88.0833 37.3267 88.2733 37.7067 88.38 38.16ZM90.3166 39.42H89.4366C89.4966 39.0267 89.62 38.6933 89.8066 38.42C89.9933 38.14 90.2433 37.9267 90.5566 37.78C90.87 37.6333 91.2433 37.56 91.6766 37.56C92.15 37.56 92.5433 37.6467 92.8566 37.82C93.17 37.9933 93.4033 38.2367 93.5566 38.55C93.71 38.8567 93.7866 39.2167 93.7866 39.63V41.72C93.7866 42.0267 93.8 42.28 93.8266 42.48C93.86 42.68 93.91 42.8533 93.9766 43H93.0466C92.98 42.8667 92.94 42.7 92.9266 42.5C92.9133 42.3 92.9066 42.1033 92.9066 41.91V39.65C92.9066 39.2233 92.8 38.8967 92.5866 38.67C92.38 38.4367 92.05 38.32 91.5966 38.32C91.2166 38.32 90.92 38.42 90.7066 38.62C90.5 38.8133 90.37 39.08 90.3166 39.42ZM93.0366 39.77V40.43C92.4433 40.43 91.9566 40.46 91.5766 40.52C91.2033 40.5733 90.9133 40.6533 90.7066 40.76C90.5 40.86 90.3566 40.98 90.2766 41.12C90.1966 41.26 90.1566 41.4133 90.1566 41.58C90.1566 41.8267 90.25 42.02 90.4366 42.16C90.63 42.2933 90.88 42.36 91.1866 42.36C91.5133 42.36 91.8066 42.2833 92.0666 42.13C92.3266 41.9767 92.53 41.7733 92.6766 41.52C92.83 41.26 92.9066 40.98 92.9066 40.68H93.3766C93.35 41.1133 93.2633 41.4867 93.1166 41.8C92.9766 42.1067 92.7933 42.3567 92.5666 42.55C92.3466 42.7433 92.11 42.8867 91.8566 42.98C91.6033 43.0733 91.35 43.12 91.0966 43.12C90.73 43.12 90.4066 43.0633 90.1266 42.95C89.8533 42.8367 89.64 42.6667 89.4866 42.44C89.3333 42.2133 89.2566 41.9333 89.2566 41.6C89.2566 41.2333 89.3533 40.9233 89.5466 40.67C89.7466 40.41 90.0433 40.2133 90.4366 40.08C90.81 39.9533 91.2 39.87 91.6066 39.83C92.0133 39.79 92.49 39.77 93.0366 39.77ZM97.6093 37.56C98.0826 37.56 98.486 37.67 98.8193 37.89C99.1593 38.11 99.4193 38.4267 99.5993 38.84C99.7793 39.2533 99.8693 39.75 99.8693 40.33C99.8693 41.23 99.666 41.92 99.2593 42.4C98.8526 42.88 98.3026 43.12 97.6093 43.12C96.996 43.12 96.506 42.8833 96.1393 42.41C95.7793 41.93 95.5993 41.2367 95.5993 40.33C95.5993 39.77 95.6793 39.2833 95.8393 38.87C96.006 38.4567 96.2393 38.1367 96.5393 37.91C96.846 37.6767 97.2026 37.56 97.6093 37.56ZM97.5493 38.32C97.0826 38.32 96.726 38.4933 96.4793 38.84C96.2393 39.18 96.1193 39.6767 96.1193 40.33C96.1193 40.9767 96.2426 41.4767 96.4893 41.83C96.7426 42.1833 97.096 42.36 97.5493 42.36C98.0093 42.36 98.3593 42.1867 98.5993 41.84C98.846 41.4867 98.9693 40.9833 98.9693 40.33C98.9693 39.69 98.846 39.1967 98.5993 38.85C98.3526 38.4967 98.0026 38.32 97.5493 38.32ZM96.1193 45.2H95.2393V37.69H96.1193V45.2ZM105.161 39.84L104.661 40.31C104.661 39.6767 104.527 39.1867 104.261 38.84C104.001 38.4933 103.631 38.32 103.151 38.32C102.657 38.32 102.281 38.4967 102.021 38.85C101.761 39.1967 101.631 39.6967 101.631 40.35C101.631 40.99 101.767 41.4867 102.041 41.84C102.314 42.1867 102.701 42.36 103.201 42.36C103.574 42.36 103.887 42.27 104.141 42.09C104.401 41.91 104.577 41.6367 104.671 41.27H105.591C105.444 41.89 105.157 42.3533 104.731 42.66C104.311 42.9667 103.801 43.12 103.201 43.12C102.687 43.12 102.244 43.01 101.871 42.79C101.504 42.57 101.221 42.2533 101.021 41.84C100.827 41.42 100.731 40.9233 100.731 40.35C100.731 39.75 100.827 39.2433 101.021 38.83C101.221 38.4167 101.501 38.1033 101.861 37.89C102.227 37.67 102.657 37.56 103.151 37.56C103.651 37.56 104.077 37.67 104.431 37.89C104.791 38.11 105.067 38.4233 105.261 38.83C105.454 39.23 105.551 39.7133 105.551 40.28V40.5H101.101V39.84H105.161ZM110.47 43V36.2H111.39V43H110.47ZM108.14 36.98V36.2H113.72V36.98H108.14ZM115.993 43.12C115.486 43.12 115.049 43.01 114.683 42.79C114.323 42.57 114.046 42.2533 113.853 41.84C113.659 41.42 113.563 40.9233 113.563 40.35C113.563 39.75 113.659 39.2433 113.853 38.83C114.053 38.4167 114.336 38.1033 114.703 37.89C115.069 37.67 115.499 37.56 115.993 37.56C116.499 37.56 116.933 37.6733 117.293 37.9C117.659 38.12 117.939 38.44 118.133 38.86C118.326 39.2733 118.423 39.77 118.423 40.35C118.423 40.9433 118.323 41.4467 118.123 41.86C117.929 42.2733 117.649 42.5867 117.283 42.8C116.923 43.0133 116.493 43.12 115.993 43.12ZM115.993 42.36C116.486 42.36 116.863 42.1867 117.123 41.84C117.389 41.4933 117.523 40.9967 117.523 40.35C117.523 39.7033 117.389 39.2033 117.123 38.85C116.863 38.4967 116.486 38.32 115.993 38.32C115.499 38.32 115.119 38.4967 114.853 38.85C114.593 39.1967 114.463 39.6967 114.463 40.35C114.463 40.99 114.596 41.4867 114.863 41.84C115.129 42.1867 115.506 42.36 115.993 42.36ZM124.058 43L122.908 39.03L122.768 38.3H122.818L122.668 39.03L121.528 43H120.438L118.858 37.69H119.808L120.898 41.81L121.058 42.48H120.998L121.158 41.81L122.368 37.69H123.318L124.528 41.81L124.678 42.47H124.618L124.758 41.81L125.848 37.69H126.758L125.168 43H124.058ZM127.554 43V37.69H128.434V43H127.554ZM128.434 39.86H128.014C128.047 39.3533 128.15 38.93 128.324 38.59C128.504 38.25 128.744 37.9933 129.044 37.82C129.344 37.6467 129.687 37.56 130.074 37.56C130.454 37.56 130.777 37.6333 131.044 37.78C131.31 37.92 131.514 38.13 131.654 38.41C131.8 38.69 131.874 39.0367 131.874 39.45V43H130.994V39.63C130.994 39.3633 130.95 39.1333 130.864 38.94C130.784 38.74 130.657 38.5867 130.484 38.48C130.317 38.3667 130.1 38.31 129.834 38.31C129.614 38.31 129.417 38.3567 129.244 38.45C129.07 38.5367 128.924 38.6533 128.804 38.8C128.684 38.9467 128.59 39.1133 128.524 39.3C128.464 39.48 128.434 39.6667 128.434 39.86Z" fill="#F6F8FA"/>
<path d="M147.5 37H144.5C144.367 37 144.24 37.0527 144.146 37.1464C144.053 37.2402 144 37.3674 144 37.5V39H143V35.5C143 35.3674 142.947 35.2402 142.854 35.1464C142.76 35.0527 142.633 35 142.5 35H138.5C138.367 35 138.24 35.0527 138.146 35.1464C138.053 35.2402 138 35.3674 138 35.5V43.5C138 43.6326 138.053 43.7598 138.146 43.8536C138.24 43.9473 138.367 44 138.5 44H147.5C147.633 44 147.76 43.9473 147.854 43.8536C147.947 43.7598 148 43.6326 148 43.5V37.5C148 37.3674 147.947 37.2402 147.854 37.1464C147.76 37.0527 147.633 37 147.5 37ZM141 36.5H142V37.5H141V36.5ZM140 41.5H139V40.5H140V41.5ZM140 39.5H139V38.5H140V39.5ZM140 37.5H139V36.5H140V37.5ZM142 41.5H141V40.5H142V41.5ZM142 39.5H141V38.5H142V39.5ZM146.5 41.5H145.5V40.5H146.5V41.5ZM146.5 39.5H145.5V38.5H146.5V39.5Z" fill="#F6F8FA"/>
<path d="M154.61 41.37V40.63H158.12V41.37H154.61ZM158.65 43L156.58 37.69L156.36 37.03H156.4L156.18 37.69L154.11 43H153.2L155.87 36.2H156.93L159.61 43H158.65ZM160.507 43V35.8H161.387V43H160.507ZM162.902 41.47V36.47H163.782V41.47C163.782 41.79 163.845 42.0267 163.972 42.18C164.105 42.3333 164.365 42.41 164.752 42.41H164.932V43.04C164.885 43.0667 164.809 43.0867 164.702 43.1C164.602 43.1133 164.489 43.12 164.362 43.12C163.869 43.12 163.502 42.9867 163.262 42.72C163.022 42.4467 162.902 42.03 162.902 41.47ZM162.162 38.39V37.69H164.952V38.39H162.162ZM165.79 43V37.69H166.67V43H165.79ZM165.79 36.98V35.8H166.67V36.98H165.79ZM170.225 43.12C169.719 43.12 169.282 43.01 168.915 42.79C168.555 42.57 168.279 42.2533 168.085 41.84C167.892 41.42 167.795 40.9233 167.795 40.35C167.795 39.75 167.892 39.2433 168.085 38.83C168.285 38.4167 168.569 38.1033 168.935 37.89C169.302 37.67 169.732 37.56 170.225 37.56C170.732 37.56 171.165 37.6733 171.525 37.9C171.892 38.12 172.172 38.44 172.365 38.86C172.559 39.2733 172.655 39.77 172.655 40.35C172.655 40.9433 172.555 41.4467 172.355 41.86C172.162 42.2733 171.882 42.5867 171.515 42.8C171.155 43.0133 170.725 43.12 170.225 43.12ZM170.225 42.36C170.719 42.36 171.095 42.1867 171.355 41.84C171.622 41.4933 171.755 40.9967 171.755 40.35C171.755 39.7033 171.622 39.2033 171.355 38.85C171.095 38.4967 170.719 38.32 170.225 38.32C169.732 38.32 169.352 38.4967 169.085 38.85C168.825 39.1967 168.695 39.6967 168.695 40.35C168.695 40.99 168.829 41.4867 169.095 41.84C169.362 42.1867 169.739 42.36 170.225 42.36Z" fill="#F6F8FA"/>
<defs>
<linearGradient id="paint0_linear_120_3417" x1="-87.5" y1="29" x2="113.301" y2="-210.002" gradientUnits="userSpaceOnUse">
<stop stop-color="#F6F8FA" stop-opacity="0"/>
<stop offset="1" stop-color="#F6F8FA"/>
</linearGradient>
</defs>
</svg>
