<svg width="235" height="58" viewBox="0 0 235 58" fill="none" xmlns="http://www.w3.org/2000/svg">
<rect width="235" height="58" rx="8" fill="url(#paint0_linear_120_3387)" fill-opacity="0.1"/>
<g opacity="0.5">
<path d="M32.9603 11.9136V28.9997L29.0662 26.7745C22.1523 22.801 17.8609 15.4103 17.8609 7.38379H15V26.9335C15 33.2911 18.6556 39.1719 24.457 41.9533L33.0397 46.0858V28.9997L36.9338 31.2249C43.8477 35.1984 48.1391 42.5891 48.1391 50.6156H51V31.0659C51 24.7083 47.3444 18.8275 41.543 16.046L32.9603 11.9136Z" fill="#F6F8FA"/>
</g>
<path d="M74.932 20.224H73.588C73.4107 19.6453 73.0887 19.202 72.622 18.894C72.1647 18.5767 71.6327 18.418 71.026 18.418C70.41 18.418 69.878 18.572 69.43 18.88C68.9913 19.188 68.6507 19.6313 68.408 20.21C68.1747 20.7793 68.058 21.4607 68.058 22.254C68.058 23.0473 68.1747 23.7287 68.408 24.298C68.6413 24.8673 68.9773 25.306 69.416 25.614C69.864 25.9127 70.4007 26.062 71.026 26.062C71.614 26.062 72.132 25.9127 72.58 25.614C73.028 25.3153 73.3547 24.8813 73.56 24.312H74.918C74.7407 24.9093 74.4607 25.4227 74.078 25.852C73.6953 26.2813 73.238 26.608 72.706 26.832C72.1833 27.056 71.6187 27.168 71.012 27.168C70.1253 27.168 69.36 26.972 68.716 26.58C68.0813 26.1787 67.5913 25.614 67.246 24.886C66.91 24.1487 66.742 23.2713 66.742 22.254C66.742 21.2367 66.9147 20.3593 67.26 19.622C67.6147 18.8847 68.114 18.3153 68.758 17.914C69.402 17.5127 70.172 17.312 71.068 17.312C71.684 17.312 72.2533 17.424 72.776 17.648C73.308 17.8627 73.7607 18.1893 74.134 18.628C74.5167 19.0573 74.7827 19.5893 74.932 20.224ZM76.8453 30.248C76.7053 30.248 76.5653 30.234 76.4253 30.206C76.2946 30.178 76.192 30.1547 76.1173 30.136V29.184H76.4953C76.7193 29.184 76.9106 29.1653 77.0693 29.128C77.228 29.0907 77.3726 29.0113 77.5033 28.89C77.634 28.7687 77.7693 28.582 77.9093 28.33C78.0493 28.0873 78.208 27.756 78.3853 27.336L78.6373 26.762L75.5993 19.566H76.9293L78.9453 24.48L79.3653 25.726H79.1973L79.6173 24.48L81.5773 19.566H82.8373L79.3653 27.98C79.1786 28.428 79.0013 28.7967 78.8333 29.086C78.6653 29.3847 78.488 29.618 78.3013 29.786C78.124 29.954 77.9186 30.0707 77.6853 30.136C77.452 30.2107 77.172 30.248 76.8453 30.248ZM87.2101 19.384C87.8728 19.384 88.4374 19.538 88.9041 19.846C89.3801 20.154 89.7441 20.5973 89.9961 21.176C90.2481 21.7547 90.3741 22.45 90.3741 23.262C90.3741 24.522 90.0894 25.488 89.5201 26.16C88.9508 26.832 88.1808 27.168 87.2101 27.168C86.3514 27.168 85.6654 26.8367 85.1521 26.174C84.6481 25.502 84.3961 24.5313 84.3961 23.262C84.3961 22.478 84.5081 21.7967 84.7321 21.218C84.9654 20.6393 85.2921 20.1913 85.7121 19.874C86.1414 19.5473 86.6408 19.384 87.2101 19.384ZM87.1261 20.448C86.4728 20.448 85.9734 20.6907 85.6281 21.176C85.2921 21.652 85.1241 22.3473 85.1241 23.262C85.1241 24.1673 85.2968 24.8673 85.6421 25.362C85.9968 25.8567 86.4914 26.104 87.1261 26.104C87.7701 26.104 88.2601 25.8613 88.5961 25.376C88.9414 24.8813 89.1141 24.1767 89.1141 23.262C89.1141 22.366 88.9414 21.6753 88.5961 21.19C88.2508 20.6953 87.7608 20.448 87.1261 20.448ZM85.1241 27H83.8921V16.92H85.1241V27ZM97.7825 22.576L97.0825 23.234C97.0825 22.3473 96.8958 21.6613 96.5225 21.176C96.1585 20.6907 95.6405 20.448 94.9685 20.448C94.2778 20.448 93.7505 20.6953 93.3865 21.19C93.0225 21.6753 92.8405 22.3753 92.8405 23.29C92.8405 24.186 93.0318 24.8813 93.4145 25.376C93.7972 25.8613 94.3385 26.104 95.0385 26.104C95.5612 26.104 95.9998 25.978 96.3545 25.726C96.7185 25.474 96.9658 25.0913 97.0965 24.578H98.3845C98.1792 25.446 97.7778 26.0947 97.1805 26.524C96.5925 26.9533 95.8785 27.168 95.0385 27.168C94.3198 27.168 93.6992 27.014 93.1765 26.706C92.6632 26.398 92.2665 25.9547 91.9865 25.376C91.7158 24.788 91.5805 24.0927 91.5805 23.29C91.5805 22.45 91.7158 21.7407 91.9865 21.162C92.2665 20.5833 92.6585 20.1447 93.1625 19.846C93.6758 19.538 94.2778 19.384 94.9685 19.384C95.6685 19.384 96.2658 19.538 96.7605 19.846C97.2645 20.154 97.6518 20.5927 97.9225 21.162C98.1932 21.722 98.3285 22.3987 98.3285 23.192V23.5H92.0985V22.576H97.7825ZM99.9702 27V19.566H101.202V27H99.9702ZM101.202 22.842H100.642C100.698 22.0393 100.852 21.386 101.104 20.882C101.366 20.3687 101.692 19.9907 102.084 19.748C102.486 19.5053 102.924 19.384 103.4 19.384C103.55 19.384 103.685 19.4027 103.806 19.44C103.937 19.468 104.035 19.51 104.1 19.566V20.672C103.998 20.6347 103.881 20.6113 103.75 20.602C103.62 20.5833 103.48 20.574 103.33 20.574C102.957 20.574 102.635 20.63 102.364 20.742C102.103 20.8447 101.884 20.9987 101.706 21.204C101.538 21.4093 101.412 21.652 101.328 21.932C101.244 22.2027 101.202 22.506 101.202 22.842ZM106.103 21.47C106.103 21.7687 106.187 21.9973 106.355 22.156C106.532 22.3147 106.766 22.436 107.055 22.52C107.344 22.604 107.662 22.674 108.007 22.73C108.352 22.7767 108.693 22.8373 109.029 22.912C109.374 22.9867 109.692 23.0987 109.981 23.248C110.27 23.388 110.499 23.5887 110.667 23.85C110.844 24.1113 110.933 24.4613 110.933 24.9C110.933 25.3573 110.807 25.7587 110.555 26.104C110.303 26.44 109.953 26.7013 109.505 26.888C109.057 27.0747 108.539 27.168 107.951 27.168C107.074 27.168 106.341 26.958 105.753 26.538C105.174 26.1087 104.815 25.4553 104.675 24.578H105.907C105.991 25.0913 106.215 25.488 106.579 25.768C106.952 26.048 107.424 26.188 107.993 26.188C108.553 26.188 108.978 26.076 109.267 25.852C109.556 25.6187 109.701 25.3293 109.701 24.984C109.701 24.6947 109.612 24.4707 109.435 24.312C109.267 24.1533 109.038 24.0367 108.749 23.962C108.469 23.878 108.156 23.808 107.811 23.752C107.475 23.696 107.139 23.6307 106.803 23.556C106.467 23.4813 106.154 23.374 105.865 23.234C105.585 23.0847 105.356 22.8793 105.179 22.618C105.011 22.3473 104.927 21.9927 104.927 21.554C104.927 21.1713 105.025 20.8167 105.221 20.49C105.417 20.1633 105.716 19.8973 106.117 19.692C106.518 19.4867 107.022 19.384 107.629 19.384C108.17 19.384 108.651 19.4727 109.071 19.65C109.5 19.8273 109.855 20.1073 110.135 20.49C110.415 20.8727 110.592 21.372 110.667 21.988H109.435C109.342 21.4093 109.136 20.9987 108.819 20.756C108.502 20.5133 108.082 20.392 107.559 20.392C107.102 20.392 106.742 20.4947 106.481 20.7C106.229 20.9053 106.103 21.162 106.103 21.47ZM118.222 22.576L117.522 23.234C117.522 22.3473 117.335 21.6613 116.962 21.176C116.598 20.6907 116.08 20.448 115.408 20.448C114.717 20.448 114.19 20.6953 113.826 21.19C113.462 21.6753 113.28 22.3753 113.28 23.29C113.28 24.186 113.471 24.8813 113.854 25.376C114.237 25.8613 114.778 26.104 115.478 26.104C116.001 26.104 116.439 25.978 116.794 25.726C117.158 25.474 117.405 25.0913 117.536 24.578H118.824C118.619 25.446 118.217 26.0947 117.62 26.524C117.032 26.9533 116.318 27.168 115.478 27.168C114.759 27.168 114.139 27.014 113.616 26.706C113.103 26.398 112.706 25.9547 112.426 25.376C112.155 24.788 112.02 24.0927 112.02 23.29C112.02 22.45 112.155 21.7407 112.426 21.162C112.706 20.5833 113.098 20.1447 113.602 19.846C114.115 19.538 114.717 19.384 115.408 19.384C116.108 19.384 116.705 19.538 117.2 19.846C117.704 20.154 118.091 20.5927 118.362 21.162C118.633 21.722 118.768 22.3987 118.768 23.192V23.5H112.538V22.576H118.222ZM126.556 22.128H125.324C125.221 21.5587 124.997 21.1387 124.652 20.868C124.306 20.588 123.886 20.448 123.392 20.448C122.71 20.448 122.188 20.6953 121.824 21.19C121.469 21.6753 121.292 22.3753 121.292 23.29C121.292 24.1953 121.478 24.8953 121.852 25.39C122.225 25.8753 122.752 26.118 123.434 26.118C123.928 26.118 124.344 25.9873 124.68 25.726C125.025 25.4553 125.258 25.054 125.38 24.522H126.612C126.444 25.446 126.07 26.118 125.492 26.538C124.913 26.958 124.218 27.168 123.406 27.168C122.706 27.168 122.104 27.014 121.6 26.706C121.096 26.3887 120.708 25.9407 120.438 25.362C120.167 24.7833 120.032 24.0927 120.032 23.29C120.032 22.45 120.167 21.7407 120.438 21.162C120.708 20.5833 121.096 20.1447 121.6 19.846C122.104 19.538 122.701 19.384 123.392 19.384C123.942 19.384 124.442 19.4867 124.89 19.692C125.338 19.8973 125.706 20.2053 125.996 20.616C126.294 21.0173 126.481 21.5213 126.556 22.128ZM134.098 19.566V27H132.866V19.566H134.098ZM132.866 23.962H133.454C133.417 24.6713 133.272 25.264 133.02 25.74C132.768 26.216 132.437 26.5753 132.026 26.818C131.616 27.0513 131.144 27.168 130.612 27.168C130.099 27.168 129.656 27.07 129.282 26.874C128.909 26.6687 128.624 26.37 128.428 25.978C128.232 25.586 128.134 25.1053 128.134 24.536V19.566H129.366V24.284C129.366 24.6573 129.422 24.984 129.534 25.264C129.646 25.5347 129.819 25.7447 130.052 25.894C130.286 26.0433 130.584 26.118 130.948 26.118C131.247 26.118 131.513 26.0573 131.746 25.936C131.989 25.8147 132.19 25.6513 132.348 25.446C132.516 25.2313 132.642 24.998 132.726 24.746C132.82 24.4847 132.866 24.2233 132.866 23.962ZM136.064 27V19.566H137.296V27H136.064ZM137.296 22.842H136.736C136.792 22.0393 136.946 21.386 137.198 20.882C137.459 20.3687 137.786 19.9907 138.178 19.748C138.579 19.5053 139.018 19.384 139.494 19.384C139.643 19.384 139.779 19.4027 139.9 19.44C140.031 19.468 140.129 19.51 140.194 19.566V20.672C140.091 20.6347 139.975 20.6113 139.844 20.602C139.713 20.5833 139.573 20.574 139.424 20.574C139.051 20.574 138.729 20.63 138.458 20.742C138.197 20.8447 137.977 20.9987 137.8 21.204C137.632 21.4093 137.506 21.652 137.422 21.932C137.338 22.2027 137.296 22.506 137.296 22.842ZM141.287 27V19.566H142.519V27H141.287ZM141.287 18.572V16.92H142.519V18.572H141.287ZM144.64 24.858V17.858H145.872V24.858C145.872 25.306 145.961 25.6373 146.138 25.852C146.325 26.0667 146.689 26.174 147.23 26.174H147.482V27.056C147.417 27.0933 147.31 27.1213 147.16 27.14C147.02 27.1587 146.862 27.168 146.684 27.168C145.994 27.168 145.48 26.9813 145.144 26.608C144.808 26.2253 144.64 25.642 144.64 24.858ZM143.604 20.546V19.566H147.51V20.546H143.604ZM149.019 30.248C148.879 30.248 148.739 30.234 148.599 30.206C148.468 30.178 148.366 30.1547 148.291 30.136V29.184H148.669C148.893 29.184 149.084 29.1653 149.243 29.128C149.402 29.0907 149.546 29.0113 149.677 28.89C149.808 28.7687 149.943 28.582 150.083 28.33C150.223 28.0873 150.382 27.756 150.559 27.336L150.811 26.762L147.773 19.566H149.103L151.119 24.48L151.539 25.726H151.371L151.791 24.48L153.751 19.566H155.011L151.539 27.98C151.352 28.428 151.175 28.7967 151.007 29.086C150.839 29.3847 150.662 29.618 150.475 29.786C150.298 29.954 150.092 30.0707 149.859 30.136C149.626 30.2107 149.346 30.248 149.019 30.248ZM160.003 21.988H158.771C158.855 21.4373 159.027 20.9707 159.289 20.588C159.55 20.196 159.9 19.8973 160.339 19.692C160.777 19.4867 161.3 19.384 161.907 19.384C162.569 19.384 163.12 19.5053 163.559 19.748C163.997 19.9907 164.324 20.3313 164.539 20.77C164.753 21.1993 164.861 21.7033 164.861 22.282V25.208C164.861 25.6373 164.879 25.992 164.917 26.272C164.963 26.552 165.033 26.7947 165.127 27H163.825C163.731 26.8133 163.675 26.58 163.657 26.3C163.638 26.02 163.629 25.7447 163.629 25.474V22.31C163.629 21.7127 163.479 21.2553 163.181 20.938C162.891 20.6113 162.429 20.448 161.795 20.448C161.263 20.448 160.847 20.588 160.549 20.868C160.259 21.1387 160.077 21.512 160.003 21.988ZM163.811 22.478V23.402C162.98 23.402 162.299 23.444 161.767 23.528C161.244 23.6027 160.838 23.7147 160.549 23.864C160.259 24.004 160.059 24.172 159.947 24.368C159.835 24.564 159.779 24.7787 159.779 25.012C159.779 25.3573 159.909 25.628 160.171 25.824C160.441 26.0107 160.791 26.104 161.221 26.104C161.678 26.104 162.089 25.9967 162.453 25.782C162.817 25.5673 163.101 25.2827 163.307 24.928C163.521 24.564 163.629 24.172 163.629 23.752H164.287C164.249 24.3587 164.128 24.8813 163.923 25.32C163.727 25.7493 163.47 26.0993 163.153 26.37C162.845 26.6407 162.513 26.8413 162.159 26.972C161.804 27.1027 161.449 27.168 161.095 27.168C160.581 27.168 160.129 27.0887 159.737 26.93C159.354 26.7713 159.055 26.5333 158.841 26.216C158.626 25.8987 158.519 25.5067 158.519 25.04C158.519 24.5267 158.654 24.0927 158.925 23.738C159.205 23.374 159.62 23.0987 160.171 22.912C160.693 22.7347 161.239 22.618 161.809 22.562C162.378 22.506 163.045 22.478 163.811 22.478ZM166.88 27V19.566H168.112V27H166.88ZM168.112 22.604H167.524C167.571 21.8947 167.716 21.302 167.958 20.826C168.21 20.35 168.546 19.9907 168.966 19.748C169.386 19.5053 169.867 19.384 170.408 19.384C170.94 19.384 171.393 19.4867 171.766 19.692C172.14 19.888 172.424 20.182 172.62 20.574C172.826 20.966 172.928 21.4513 172.928 22.03V27H171.696V22.282C171.696 21.9087 171.636 21.5867 171.514 21.316C171.402 21.036 171.225 20.8213 170.982 20.672C170.749 20.5133 170.446 20.434 170.072 20.434C169.764 20.434 169.489 20.4993 169.246 20.63C169.004 20.7513 168.798 20.9147 168.63 21.12C168.462 21.3253 168.332 21.5587 168.238 21.82C168.154 22.072 168.112 22.3333 168.112 22.604ZM176.026 21.988H174.794C174.878 21.4373 175.051 20.9707 175.312 20.588C175.573 20.196 175.923 19.8973 176.362 19.692C176.801 19.4867 177.323 19.384 177.93 19.384C178.593 19.384 179.143 19.5053 179.582 19.748C180.021 19.9907 180.347 20.3313 180.562 20.77C180.777 21.1993 180.884 21.7033 180.884 22.282V25.208C180.884 25.6373 180.903 25.992 180.94 26.272C180.987 26.552 181.057 26.7947 181.15 27H179.848C179.755 26.8133 179.699 26.58 179.68 26.3C179.661 26.02 179.652 25.7447 179.652 25.474V22.31C179.652 21.7127 179.503 21.2553 179.204 20.938C178.915 20.6113 178.453 20.448 177.818 20.448C177.286 20.448 176.871 20.588 176.572 20.868C176.283 21.1387 176.101 21.512 176.026 21.988ZM179.834 22.478V23.402C179.003 23.402 178.322 23.444 177.79 23.528C177.267 23.6027 176.861 23.7147 176.572 23.864C176.283 24.004 176.082 24.172 175.97 24.368C175.858 24.564 175.802 24.7787 175.802 25.012C175.802 25.3573 175.933 25.628 176.194 25.824C176.465 26.0107 176.815 26.104 177.244 26.104C177.701 26.104 178.112 25.9967 178.476 25.782C178.84 25.5673 179.125 25.2827 179.33 24.928C179.545 24.564 179.652 24.172 179.652 23.752H180.31C180.273 24.3587 180.151 24.8813 179.946 25.32C179.75 25.7493 179.493 26.0993 179.176 26.37C178.868 26.6407 178.537 26.8413 178.182 26.972C177.827 27.1027 177.473 27.168 177.118 27.168C176.605 27.168 176.152 27.0887 175.76 26.93C175.377 26.7713 175.079 26.5333 174.864 26.216C174.649 25.8987 174.542 25.5067 174.542 25.04C174.542 24.5267 174.677 24.0927 174.948 23.738C175.228 23.374 175.643 23.0987 176.194 22.912C176.717 22.7347 177.263 22.618 177.832 22.562C178.401 22.506 179.069 22.478 179.834 22.478ZM182.904 27V16.92H184.136V27H182.904ZM186.425 30.248C186.285 30.248 186.145 30.234 186.005 30.206C185.875 30.178 185.772 30.1547 185.697 30.136V29.184H186.075C186.299 29.184 186.491 29.1653 186.649 29.128C186.808 29.0907 186.953 29.0113 187.083 28.89C187.214 28.7687 187.349 28.582 187.489 28.33C187.629 28.0873 187.788 27.756 187.965 27.336L188.217 26.762L185.179 19.566H186.509L188.525 24.48L188.945 25.726H188.777L189.197 24.48L191.157 19.566H192.417L188.945 27.98C188.759 28.428 188.581 28.7967 188.413 29.086C188.245 29.3847 188.068 29.618 187.881 29.786C187.704 29.954 187.499 30.0707 187.265 30.136C187.032 30.2107 186.752 30.248 186.425 30.248ZM194.245 21.47C194.245 21.7687 194.329 21.9973 194.497 22.156C194.675 22.3147 194.908 22.436 195.197 22.52C195.487 22.604 195.804 22.674 196.149 22.73C196.495 22.7767 196.835 22.8373 197.171 22.912C197.517 22.9867 197.834 23.0987 198.123 23.248C198.413 23.388 198.641 23.5887 198.809 23.85C198.987 24.1113 199.075 24.4613 199.075 24.9C199.075 25.3573 198.949 25.7587 198.697 26.104C198.445 26.44 198.095 26.7013 197.647 26.888C197.199 27.0747 196.681 27.168 196.093 27.168C195.216 27.168 194.483 26.958 193.895 26.538C193.317 26.1087 192.957 25.4553 192.817 24.578H194.049C194.133 25.0913 194.357 25.488 194.721 25.768C195.095 26.048 195.566 26.188 196.135 26.188C196.695 26.188 197.12 26.076 197.409 25.852C197.699 25.6187 197.843 25.3293 197.843 24.984C197.843 24.6947 197.755 24.4707 197.577 24.312C197.409 24.1533 197.181 24.0367 196.891 23.962C196.611 23.878 196.299 23.808 195.953 23.752C195.617 23.696 195.281 23.6307 194.945 23.556C194.609 23.4813 194.297 23.374 194.007 23.234C193.727 23.0847 193.499 22.8793 193.321 22.618C193.153 22.3473 193.069 21.9927 193.069 21.554C193.069 21.1713 193.167 20.8167 193.363 20.49C193.559 20.1633 193.858 19.8973 194.259 19.692C194.661 19.4867 195.165 19.384 195.771 19.384C196.313 19.384 196.793 19.4727 197.213 19.65C197.643 19.8273 197.997 20.1073 198.277 20.49C198.557 20.8727 198.735 21.372 198.809 21.988H197.577C197.484 21.4093 197.279 20.9987 196.961 20.756C196.644 20.5133 196.224 20.392 195.701 20.392C195.244 20.392 194.885 20.4947 194.623 20.7C194.371 20.9053 194.245 21.162 194.245 21.47ZM200.709 24.858V17.858H201.941V24.858C201.941 25.306 202.029 25.6373 202.207 25.852C202.393 26.0667 202.757 26.174 203.299 26.174H203.551V27.056C203.485 27.0933 203.378 27.1213 203.229 27.14C203.089 27.1587 202.93 27.168 202.753 27.168C202.062 27.168 201.549 26.9813 201.213 26.608C200.877 26.2253 200.709 25.642 200.709 24.858ZM199.673 20.546V19.566H203.579V20.546H199.673Z" fill="#F6F8FA"/>
<path d="M72 34.5C69.243 34.5 67 36.743 67 39.5C67 42.257 69.243 44.5 72 44.5C74.757 44.5 77 42.257 77 39.5C77 36.743 74.757 34.5 72 34.5ZM68 39.5C68 39.0505 68.078 38.619 68.2155 38.2155L69 39L70 40V41L71 42L71.5 42.5V43.4655C69.5305 43.218 68 41.536 68 39.5ZM75.165 41.9365C74.8385 41.6735 74.3435 41.5 74 41.5V41C74 40.7348 73.8946 40.4804 73.7071 40.2929C73.5196 40.1054 73.2652 40 73 40H71V38.5C71.2652 38.5 71.5196 38.3946 71.7071 38.2071C71.8946 38.0196 72 37.7652 72 37.5V37H72.5C72.7652 37 73.0196 36.8946 73.2071 36.7071C73.3946 36.5196 73.5 36.2652 73.5 36V35.7945C74.964 36.389 76 37.825 76 39.5C75.9998 40.3823 75.706 41.2395 75.165 41.9365Z" fill="#F6F8FA"/>
<path d="M82.78 43V36.2H83.7V43H82.78ZM85.51 43H83.44V42.26H85.49C85.9233 42.26 86.2667 42.1533 86.52 41.94C86.7733 41.72 86.9 41.43 86.9 41.07C86.9 40.71 86.76 40.4233 86.48 40.21C86.2067 39.9967 85.83 39.89 85.35 39.89H83.44V39.15H85.13C85.57 39.15 85.91 39.05 86.15 38.85C86.3967 38.65 86.52 38.3867 86.52 38.06C86.52 37.7133 86.3967 37.44 86.15 37.24C85.91 37.04 85.5767 36.94 85.15 36.94H83.44V36.2H85.17C85.87 36.2 86.4267 36.3633 86.84 36.69C87.26 37.0167 87.47 37.4567 87.47 38.01C87.47 38.41 87.3433 38.75 87.09 39.03C86.8367 39.3033 86.47 39.4767 85.99 39.55V39.34C86.59 39.4 87.0467 39.59 87.36 39.91C87.68 40.2233 87.84 40.6167 87.84 41.09C87.84 41.6967 87.6333 42.1667 87.22 42.5C86.8067 42.8333 86.2367 43 85.51 43ZM89.7795 39.42H88.8995C88.9595 39.0267 89.0829 38.6933 89.2695 38.42C89.4562 38.14 89.7062 37.9267 90.0195 37.78C90.3329 37.6333 90.7062 37.56 91.1395 37.56C91.6129 37.56 92.0062 37.6467 92.3195 37.82C92.6329 37.9933 92.8662 38.2367 93.0195 38.55C93.1729 38.8567 93.2495 39.2167 93.2495 39.63V41.72C93.2495 42.0267 93.2629 42.28 93.2895 42.48C93.3229 42.68 93.3729 42.8533 93.4395 43H92.5095C92.4429 42.8667 92.4029 42.7 92.3895 42.5C92.3762 42.3 92.3695 42.1033 92.3695 41.91V39.65C92.3695 39.2233 92.2629 38.8967 92.0495 38.67C91.8429 38.4367 91.5129 38.32 91.0595 38.32C90.6795 38.32 90.3829 38.42 90.1695 38.62C89.9629 38.8133 89.8329 39.08 89.7795 39.42ZM92.4995 39.77V40.43C91.9062 40.43 91.4195 40.46 91.0395 40.52C90.6662 40.5733 90.3762 40.6533 90.1695 40.76C89.9629 40.86 89.8195 40.98 89.7395 41.12C89.6595 41.26 89.6195 41.4133 89.6195 41.58C89.6195 41.8267 89.7129 42.02 89.8995 42.16C90.0929 42.2933 90.3429 42.36 90.6495 42.36C90.9762 42.36 91.2695 42.2833 91.5295 42.13C91.7895 41.9767 91.9929 41.7733 92.1395 41.52C92.2929 41.26 92.3695 40.98 92.3695 40.68H92.8395C92.8129 41.1133 92.7262 41.4867 92.5795 41.8C92.4395 42.1067 92.2562 42.3567 92.0295 42.55C91.8095 42.7433 91.5729 42.8867 91.3195 42.98C91.0662 43.0733 90.8129 43.12 90.5595 43.12C90.1929 43.12 89.8695 43.0633 89.5895 42.95C89.3162 42.8367 89.1029 42.6667 88.9495 42.44C88.7962 42.2133 88.7195 41.9333 88.7195 41.6C88.7195 41.2333 88.8162 40.9233 89.0095 40.67C89.2095 40.41 89.5062 40.2133 89.8995 40.08C90.2729 39.9533 90.6629 39.87 91.0695 39.83C91.4762 39.79 91.9529 39.77 92.4995 39.77ZM94.6922 43V37.69H95.5722V43H94.6922ZM95.5722 40.03H95.1722C95.2122 39.4567 95.3222 38.99 95.5022 38.63C95.6889 38.2633 95.9222 37.9933 96.2022 37.82C96.4889 37.6467 96.8022 37.56 97.1422 37.56C97.2489 37.56 97.3455 37.5733 97.4322 37.6C97.5255 37.62 97.5955 37.65 97.6422 37.69V38.48C97.5689 38.4533 97.4855 38.4367 97.3922 38.43C97.2989 38.4167 97.1989 38.41 97.0922 38.41C96.8255 38.41 96.5955 38.45 96.4022 38.53C96.2155 38.6033 96.0589 38.7133 95.9322 38.86C95.8122 39.0067 95.7222 39.18 95.6622 39.38C95.6022 39.5733 95.5722 39.79 95.5722 40.03ZM102.715 39.52H101.835C101.762 39.1133 101.602 38.8133 101.355 38.62C101.108 38.42 100.808 38.32 100.455 38.32C99.9683 38.32 99.595 38.4967 99.335 38.85C99.0817 39.1967 98.955 39.6967 98.955 40.35C98.955 40.9967 99.0883 41.4967 99.355 41.85C99.6217 42.1967 99.9983 42.37 100.485 42.37C100.838 42.37 101.135 42.2767 101.375 42.09C101.622 41.8967 101.788 41.61 101.875 41.23H102.755C102.635 41.89 102.368 42.37 101.955 42.67C101.542 42.97 101.045 43.12 100.465 43.12C99.965 43.12 99.535 43.01 99.175 42.79C98.815 42.5633 98.5383 42.2433 98.345 41.83C98.1517 41.4167 98.055 40.9233 98.055 40.35C98.055 39.75 98.1517 39.2433 98.345 38.83C98.5383 38.4167 98.815 38.1033 99.175 37.89C99.535 37.67 99.9617 37.56 100.455 37.56C100.848 37.56 101.205 37.6333 101.525 37.78C101.845 37.9267 102.108 38.1467 102.315 38.44C102.528 38.7267 102.662 39.0867 102.715 39.52ZM108.003 39.84L107.503 40.31C107.503 39.6767 107.369 39.1867 107.103 38.84C106.843 38.4933 106.473 38.32 105.993 38.32C105.499 38.32 105.123 38.4967 104.863 38.85C104.603 39.1967 104.473 39.6967 104.473 40.35C104.473 40.99 104.609 41.4867 104.883 41.84C105.156 42.1867 105.543 42.36 106.043 42.36C106.416 42.36 106.729 42.27 106.983 42.09C107.243 41.91 107.419 41.6367 107.513 41.27H108.433C108.286 41.89 107.999 42.3533 107.573 42.66C107.153 42.9667 106.643 43.12 106.043 43.12C105.529 43.12 105.086 43.01 104.713 42.79C104.346 42.57 104.063 42.2533 103.863 41.84C103.669 41.42 103.573 40.9233 103.573 40.35C103.573 39.75 103.669 39.2433 103.863 38.83C104.063 38.4167 104.343 38.1033 104.703 37.89C105.069 37.67 105.499 37.56 105.993 37.56C106.493 37.56 106.919 37.67 107.273 37.89C107.633 38.11 107.909 38.4233 108.103 38.83C108.296 39.23 108.393 39.7133 108.393 40.28V40.5H103.943V39.84H108.003ZM109.565 43V35.8H110.445V43H109.565ZM114.001 43.12C113.494 43.12 113.057 43.01 112.691 42.79C112.331 42.57 112.054 42.2533 111.861 41.84C111.667 41.42 111.571 40.9233 111.571 40.35C111.571 39.75 111.667 39.2433 111.861 38.83C112.061 38.4167 112.344 38.1033 112.711 37.89C113.077 37.67 113.507 37.56 114.001 37.56C114.507 37.56 114.941 37.6733 115.301 37.9C115.667 38.12 115.947 38.44 116.141 38.86C116.334 39.2733 116.431 39.77 116.431 40.35C116.431 40.9433 116.331 41.4467 116.131 41.86C115.937 42.2733 115.657 42.5867 115.291 42.8C114.931 43.0133 114.501 43.12 114.001 43.12ZM114.001 42.36C114.494 42.36 114.871 42.1867 115.131 41.84C115.397 41.4933 115.531 40.9967 115.531 40.35C115.531 39.7033 115.397 39.2033 115.131 38.85C114.871 38.4967 114.494 38.32 114.001 38.32C113.507 38.32 113.127 38.4967 112.861 38.85C112.601 39.1967 112.471 39.6967 112.471 40.35C112.471 40.99 112.604 41.4867 112.871 41.84C113.137 42.1867 113.514 42.36 114.001 42.36ZM117.563 43V37.69H118.443V43H117.563ZM118.443 39.86H118.023C118.057 39.3533 118.16 38.93 118.333 38.59C118.513 38.25 118.753 37.9933 119.053 37.82C119.353 37.6467 119.697 37.56 120.083 37.56C120.463 37.56 120.787 37.6333 121.053 37.78C121.32 37.92 121.523 38.13 121.663 38.41C121.81 38.69 121.883 39.0367 121.883 39.45V43H121.003V39.63C121.003 39.3633 120.96 39.1333 120.873 38.94C120.793 38.74 120.667 38.5867 120.493 38.48C120.327 38.3667 120.11 38.31 119.843 38.31C119.623 38.31 119.427 38.3567 119.253 38.45C119.08 38.5367 118.933 38.6533 118.813 38.8C118.693 38.9467 118.6 39.1133 118.533 39.3C118.473 39.48 118.443 39.6667 118.443 39.86ZM124.096 39.42H123.216C123.276 39.0267 123.399 38.6933 123.586 38.42C123.773 38.14 124.023 37.9267 124.336 37.78C124.649 37.6333 125.023 37.56 125.456 37.56C125.929 37.56 126.323 37.6467 126.636 37.82C126.949 37.9933 127.183 38.2367 127.336 38.55C127.489 38.8567 127.566 39.2167 127.566 39.63V41.72C127.566 42.0267 127.579 42.28 127.606 42.48C127.639 42.68 127.689 42.8533 127.756 43H126.826C126.759 42.8667 126.719 42.7 126.706 42.5C126.693 42.3 126.686 42.1033 126.686 41.91V39.65C126.686 39.2233 126.579 38.8967 126.366 38.67C126.159 38.4367 125.829 38.32 125.376 38.32C124.996 38.32 124.699 38.42 124.486 38.62C124.279 38.8133 124.149 39.08 124.096 39.42ZM126.816 39.77V40.43C126.223 40.43 125.736 40.46 125.356 40.52C124.983 40.5733 124.693 40.6533 124.486 40.76C124.279 40.86 124.136 40.98 124.056 41.12C123.976 41.26 123.936 41.4133 123.936 41.58C123.936 41.8267 124.029 42.02 124.216 42.16C124.409 42.2933 124.659 42.36 124.966 42.36C125.293 42.36 125.586 42.2833 125.846 42.13C126.106 41.9767 126.309 41.7733 126.456 41.52C126.609 41.26 126.686 40.98 126.686 40.68H127.156C127.129 41.1133 127.043 41.4867 126.896 41.8C126.756 42.1067 126.573 42.3567 126.346 42.55C126.126 42.7433 125.889 42.8867 125.636 42.98C125.383 43.0733 125.129 43.12 124.876 43.12C124.509 43.12 124.186 43.0633 123.906 42.95C123.633 42.8367 123.419 42.6667 123.266 42.44C123.113 42.2133 123.036 41.9333 123.036 41.6C123.036 41.2333 123.133 40.9233 123.326 40.67C123.526 40.41 123.823 40.2133 124.216 40.08C124.589 39.9533 124.979 39.87 125.386 39.83C125.793 39.79 126.269 39.77 126.816 39.77Z" fill="#F6F8FA"/>
<path d="M143.5 37H140.5C140.367 37 140.24 37.0527 140.146 37.1464C140.053 37.2402 140 37.3674 140 37.5V39H139V35.5C139 35.3674 138.947 35.2402 138.854 35.1464C138.76 35.0527 138.633 35 138.5 35H134.5C134.367 35 134.24 35.0527 134.146 35.1464C134.053 35.2402 134 35.3674 134 35.5V43.5C134 43.6326 134.053 43.7598 134.146 43.8536C134.24 43.9473 134.367 44 134.5 44H143.5C143.633 44 143.76 43.9473 143.854 43.8536C143.947 43.7598 144 43.6326 144 43.5V37.5C144 37.3674 143.947 37.2402 143.854 37.1464C143.76 37.0527 143.633 37 143.5 37ZM137 36.5H138V37.5H137V36.5ZM136 41.5H135V40.5H136V41.5ZM136 39.5H135V38.5H136V39.5ZM136 37.5H135V36.5H136V37.5ZM138 41.5H137V40.5H138V41.5ZM138 39.5H137V38.5H138V39.5ZM142.5 41.5H141.5V40.5H142.5V41.5ZM142.5 39.5H141.5V38.5H142.5V39.5Z" fill="#F6F8FA"/>
<path d="M149.78 43V36.2H150.7V43H149.78ZM152 42.25C152.52 42.25 152.967 42.1467 153.34 41.94C153.713 41.7267 153.997 41.4233 154.19 41.03C154.39 40.6367 154.49 40.1633 154.49 39.61C154.49 39.05 154.39 38.5733 154.19 38.18C153.997 37.78 153.713 37.4767 153.34 37.27C152.967 37.0567 152.52 36.95 152 36.95H150.44V36.2H152C152.707 36.2 153.313 36.3367 153.82 36.61C154.333 36.8833 154.73 37.2733 155.01 37.78C155.29 38.2867 155.43 38.8967 155.43 39.61C155.43 40.3167 155.29 40.9233 155.01 41.43C154.73 41.9367 154.333 42.3267 153.82 42.6C153.313 42.8667 152.707 43 152 43H150.44V42.25H152ZM156.673 43V37.69H157.553V43H156.673ZM157.553 40.03H157.153C157.193 39.4567 157.303 38.99 157.483 38.63C157.669 38.2633 157.903 37.9933 158.183 37.82C158.469 37.6467 158.783 37.56 159.123 37.56C159.229 37.56 159.326 37.5733 159.413 37.6C159.506 37.62 159.576 37.65 159.623 37.69V38.48C159.549 38.4533 159.466 38.4367 159.373 38.43C159.279 38.4167 159.179 38.41 159.073 38.41C158.806 38.41 158.576 38.45 158.383 38.53C158.196 38.6033 158.039 38.7133 157.913 38.86C157.793 39.0067 157.703 39.18 157.643 39.38C157.583 39.5733 157.553 39.79 157.553 40.03ZM160.403 43V37.69H161.283V43H160.403ZM160.403 36.98V35.8H161.283V36.98H160.403ZM164.009 43L162.029 37.69H162.979L164.449 41.81L164.649 42.5H164.519L164.709 41.81L166.179 37.69H167.069L165.089 43H164.009ZM171.975 39.84L171.475 40.31C171.475 39.6767 171.342 39.1867 171.075 38.84C170.815 38.4933 170.445 38.32 169.965 38.32C169.472 38.32 169.095 38.4967 168.835 38.85C168.575 39.1967 168.445 39.6967 168.445 40.35C168.445 40.99 168.582 41.4867 168.855 41.84C169.129 42.1867 169.515 42.36 170.015 42.36C170.389 42.36 170.702 42.27 170.955 42.09C171.215 41.91 171.392 41.6367 171.485 41.27H172.405C172.259 41.89 171.972 42.3533 171.545 42.66C171.125 42.9667 170.615 43.12 170.015 43.12C169.502 43.12 169.059 43.01 168.685 42.79C168.319 42.57 168.035 42.2533 167.835 41.84C167.642 41.42 167.545 40.9233 167.545 40.35C167.545 39.75 167.642 39.2433 167.835 38.83C168.035 38.4167 168.315 38.1033 168.675 37.89C169.042 37.67 169.472 37.56 169.965 37.56C170.465 37.56 170.892 37.67 171.245 37.89C171.605 38.11 171.882 38.4233 172.075 38.83C172.269 39.23 172.365 39.7133 172.365 40.28V40.5H167.915V39.84H171.975ZM173.618 43V36.2H174.538V43H173.618ZM179.058 43.12C178.398 43.12 177.828 42.98 177.348 42.7C176.868 42.4133 176.498 42.0067 176.238 41.48C175.978 40.9533 175.848 40.33 175.848 39.61C175.848 38.8833 175.978 38.2567 176.238 37.73C176.498 37.2033 176.868 36.7967 177.348 36.51C177.828 36.2233 178.398 36.08 179.058 36.08C179.718 36.08 180.288 36.2233 180.768 36.51C181.248 36.7967 181.618 37.2033 181.878 37.73C182.138 38.2567 182.268 38.8833 182.268 39.61C182.268 40.33 182.138 40.9533 181.878 41.48C181.618 42.0067 181.248 42.4133 180.768 42.7C180.288 42.98 179.718 43.12 179.058 43.12ZM179.058 42.33C179.532 42.33 179.938 42.22 180.278 42C180.618 41.78 180.878 41.4667 181.058 41.06C181.238 40.6533 181.328 40.17 181.328 39.61C181.328 39.0433 181.238 38.5567 181.058 38.15C180.878 37.7367 180.618 37.42 180.278 37.2C179.938 36.98 179.532 36.87 179.058 36.87C178.585 36.87 178.178 36.98 177.838 37.2C177.498 37.42 177.238 37.7367 177.058 38.15C176.878 38.5567 176.788 39.0433 176.788 39.61C176.788 40.17 176.878 40.6533 177.058 41.06C177.238 41.4667 177.498 41.78 177.838 42C178.178 42.22 178.585 42.33 179.058 42.33Z" fill="#F6F8FA"/>
<defs>
<linearGradient id="paint0_linear_120_3387" x1="-87.5" y1="29" x2="113.301" y2="-210.002" gradientUnits="userSpaceOnUse">
<stop stop-color="#F6F8FA" stop-opacity="0"/>
<stop offset="1" stop-color="#F6F8FA"/>
</linearGradient>
</defs>
</svg>
