<svg width="1192" height="558" viewBox="0 0 1192 558" fill="none" xmlns="http://www.w3.org/2000/svg">
<path d="M269.09 47.559L257.747 40.9198L257.823 27.7781L269.246 21.2744L280.589 27.9112L280.515 41.0566L269.09 47.559Z" fill="#F6F8FA"/>
<path d="M280.515 68.3969L269.171 61.7577L269.247 48.6172L280.67 42.1123L292.011 48.7491L291.939 61.892L280.515 68.3969Z" fill="#F6F8FA"/>
<path d="M256.473 67.7544L245.128 61.1151L245.202 47.9746L256.627 41.4698L267.97 48.1065L267.895 61.2494L256.473 67.7544Z" fill="#F6F8FA"/>
<path d="M304.1 68.6775L292.756 62.0358L292.832 48.8953L304.255 42.3904L315.598 49.0297L315.523 62.1726L304.1 68.6775Z" fill="#F6F8FA"/>
<path d="M292.532 47.8L281.189 41.1607L281.264 28.0227L292.688 21.5178L304.03 28.1546L303.954 41.295L292.532 47.8Z" fill="#F6F8FA"/>
<path d="M316.21 48.0428L304.867 41.4023L304.946 28.2619L316.365 21.7582L327.71 28.3962L327.632 41.5354L316.21 48.0428Z" fill="#F6F8FA"/>
<path d="M339.649 48.2837L328.307 41.6445L328.381 28.5016L339.804 21.9967L351.148 28.6347L351.072 41.7789L339.649 48.2837Z" fill="#F6F8FA"/>
<path d="M268.675 88.9079L257.33 82.2686L257.404 69.1282L268.829 62.622L280.171 69.2601L280.097 82.4042L268.675 88.9079Z" fill="#F6F8FA"/>
<path d="M292.117 89.1469L280.772 82.5076L280.846 69.3671L292.271 62.8622L303.611 69.5015L303.536 82.6408L292.117 89.1469Z" fill="#F6F8FA"/>
<path d="M315.79 89.3888L304.446 82.7495L304.522 69.6066L315.945 63.1042L327.288 69.7434L327.211 82.8815L315.79 89.3888Z" fill="#F6F8FA"/>
<path d="M339.231 89.6307L327.888 82.9926L327.962 69.8497L339.384 63.3436L350.727 69.9804L350.653 83.1245L339.231 89.6307Z" fill="#F6F8FA"/>
<path d="M353.453 153.216L342.108 146.576L342.184 133.437L353.607 126.93L364.95 133.569L364.873 146.708L353.453 153.216Z" fill="#F6F8FA"/>
<path d="M376.595 152.978L365.251 146.336L365.33 133.193L376.749 126.692L388.094 133.33L388.016 146.47L376.595 152.978Z" fill="#F6F8FA"/>
<path d="M400.707 153.216L389.364 146.578L389.439 133.436L400.863 126.93L412.206 133.565L412.131 146.712L400.707 153.216Z" fill="#F6F8FA"/>
<path d="M327.812 110.784L316.467 104.146L316.541 91.0043L327.964 84.4982L339.308 91.1338L339.232 104.28L327.812 110.784Z" fill="#F6F8FA"/>
<path d="M340.486 131.703L329.145 125.064L329.217 111.921L340.64 105.416L351.984 112.053L351.908 125.196L340.486 131.703Z" fill="#F6F8FA"/>
<path d="M315.79 132.264L304.446 125.625L304.521 112.482L315.945 105.977L327.288 112.614L327.213 125.757L315.79 132.264Z" fill="#F6F8FA"/>
<path d="M329.067 153.218L317.727 146.578L317.799 133.437L329.223 126.931L340.566 133.569L340.492 146.71L329.067 153.218Z" fill="#F6F8FA"/>
<path d="M317.648 174.826L306.304 168.186L306.379 155.046L317.801 148.541L329.144 155.18L329.068 168.318L317.648 174.826Z" fill="#F6F8FA"/>
<path d="M341.35 174.826L330.006 168.184L330.085 155.042L341.505 148.541L352.849 155.178L352.773 168.317L341.35 174.826Z" fill="#F6F8FA"/>
<path d="M364.874 174.826L353.531 168.189L353.605 155.046L365.028 148.541L376.372 155.177L376.296 168.323L364.874 174.826Z" fill="#F6F8FA"/>
<path d="M294.121 174.584L282.779 167.944L282.853 154.803L294.275 148.297L305.62 154.935L305.543 168.078L294.121 174.584Z" fill="#F6F8FA"/>
<path d="M363.329 48.5285L351.984 41.8868L352.061 28.7463L363.48 22.2438L374.825 28.8794L374.75 42.0199L363.329 48.5285Z" fill="#F6F8FA"/>
<path d="M280.395 26.2846L269.05 19.6454L269.124 6.50487L280.549 0L291.891 6.63923L291.814 19.7773L280.395 26.2846Z" fill="#F6F8FA"/>
<path d="M304.074 26.5275L292.73 19.8858L292.808 6.74409L304.229 0.240409L315.573 6.87964L315.495 20.0177L304.074 26.5275Z" fill="#F6F8FA"/>
<path d="M327.512 26.7675L316.17 20.1282L316.244 6.98527L327.666 0.480343L339.01 7.11719L338.934 20.2601L327.512 26.7675Z" fill="#F6F8FA"/>
<path d="M351.194 27.0084L339.85 20.3715L339.926 7.22862L351.348 0.723755L362.69 7.36298L362.615 20.5023L351.194 27.0084Z" fill="#F6F8FA"/>
<path d="M386.764 48.7684L375.422 42.1268L375.499 28.9851L386.923 22.4789L398.266 29.117L398.188 42.2586L386.764 48.7684Z" fill="#F6F8FA"/>
<path d="M410.446 49.0084L399.104 42.3668L399.178 29.2275L410.6 22.7226L421.945 29.3619L421.868 42.5011L410.446 49.0084Z" fill="#F6F8FA"/>
<path d="M433.884 49.2484L422.542 42.608L422.615 29.4663L434.036 22.9614L445.381 29.5994L445.304 42.7399L433.884 49.2484Z" fill="#F6F8FA"/>
<path d="M457.805 49.4941L446.46 42.8524L446.537 29.7132L457.956 23.2119L469.299 29.8463L469.223 42.9868L457.805 49.4941Z" fill="#F6F8FA"/>
<path d="M481.241 49.7331L469.898 43.0915L469.975 29.9534L481.397 23.4485L492.74 30.0829L492.664 43.2258L481.241 49.7331Z" fill="#F6F8FA"/>
<path d="M646.692 156.703L635.348 150.064L635.424 136.922L646.847 130.416L658.186 137.054L658.113 150.198L646.692 156.703Z" fill="#F6F8FA"/>
<path d="M670.134 156.941L658.788 150.301L658.861 137.162L670.293 130.659L681.627 137.296L681.554 150.435L670.134 156.941Z" fill="#F6F8FA"/>
<path d="M693.814 157.186L682.468 150.544L682.541 137.401L693.961 130.9L705.307 137.536L705.234 150.679L693.814 157.186Z" fill="#F6F8FA"/>
<path d="M717.251 157.425L705.904 150.785L705.978 137.645L717.397 131.138L728.744 137.776L728.67 150.918L717.251 157.425Z" fill="#F6F8FA"/>
<path d="M740.932 157.669L729.586 151.028L729.659 137.887L741.079 131.383L752.425 138.021L752.352 151.159L740.932 157.669Z" fill="#F6F8FA"/>
<path d="M764.371 157.911L753.024 151.268L753.098 138.125L764.517 131.621L775.864 138.259L775.79 151.401L764.371 157.911Z" fill="#F6F8FA"/>
<path d="M788.04 158.151L776.706 151.509L776.779 138.371L788.199 131.865L799.545 138.503L799.472 151.641L788.04 158.151Z" fill="#F6F8FA"/>
<path d="M811.489 158.392L800.142 151.751L800.216 138.608L811.635 132.106L822.982 138.743L822.908 151.881L811.489 158.392Z" fill="#F6F8FA"/>
<path d="M835.405 158.634L824.059 151.994L824.132 138.855L835.564 132.35L846.898 138.988L846.825 152.126L835.405 158.634Z" fill="#F6F8FA"/>
<path d="M858.841 158.874L847.495 152.233L847.568 139.092L859 132.59L870.334 139.225L870.261 152.366L858.841 158.874Z" fill="#F6F8FA"/>
<path d="M883.185 158.992L871.838 152.355L871.924 139.212L883.343 132.707L894.69 139.344L894.604 152.484L883.185 158.992Z" fill="#F6F8FA"/>
<path d="M906.623 159.235L895.276 152.591L895.362 139.45L906.781 132.946L918.128 139.583L918.042 152.726L906.623 159.235Z" fill="#F6F8FA"/>
<path d="M930.304 159.474L918.958 152.834L919.031 139.695L930.463 133.19L941.81 139.827L941.724 152.968L930.304 159.474Z" fill="#F6F8FA"/>
<path d="M953.742 159.715L942.408 153.074L942.481 139.933L953.9 133.431L965.247 140.066L965.161 153.207L953.742 159.715Z" fill="#F6F8FA"/>
<path d="M977.664 159.958L966.318 153.317L966.391 140.179L977.811 133.675L989.157 140.31L989.084 153.451L977.664 159.958Z" fill="#F6F8FA"/>
<path d="M1001.1 160.199L989.758 153.557L989.832 140.419L1001.25 133.913L1012.6 140.549L1012.52 153.692L1001.1 160.199Z" fill="#F6F8FA"/>
<path d="M682.724 135.788L671.377 129.15L671.451 116.008L682.883 109.503L694.217 116.14L694.143 129.284L682.724 135.788Z" fill="#F6F8FA"/>
<path d="M706.16 136.027L694.814 129.39L694.887 116.25L706.319 109.743L717.653 116.382L717.579 129.522L706.16 136.027Z" fill="#F6F8FA"/>
<path d="M729.842 136.272L718.495 129.63L718.569 116.489L729.988 109.987L741.335 116.624L741.261 129.764L729.842 136.272Z" fill="#F6F8FA"/>
<path d="M753.282 136.512L741.935 129.874L742.009 116.732L753.428 110.226L764.775 116.861L764.701 130.005L753.282 136.512Z" fill="#F6F8FA"/>
<path d="M776.964 136.755L765.617 130.114L765.691 116.973L777.11 110.468L788.457 117.108L788.383 130.246L776.964 136.755Z" fill="#F6F8FA"/>
<path d="M800.388 136.995L789.054 130.352L789.127 117.212L800.547 110.707L811.893 117.346L811.82 130.487L800.388 136.995Z" fill="#F6F8FA"/>
<path d="M824.071 137.235L812.737 130.596L812.811 117.456L824.23 110.951L835.577 117.59L835.503 130.728L824.071 137.235Z" fill="#F6F8FA"/>
<path d="M847.52 137.478L836.174 130.834L836.247 117.694L847.667 111.189L859.013 117.828L858.927 130.966L847.52 137.478Z" fill="#F6F8FA"/>
<path d="M871.432 137.721L860.086 131.082L860.159 117.941L871.579 111.44L882.925 118.076L882.852 131.214L871.432 137.721Z" fill="#F6F8FA"/>
<path d="M894.87 137.963L883.524 131.32L883.597 118.182L895.029 111.678L906.363 118.311L906.29 131.454L894.87 137.963Z" fill="#F6F8FA"/>
<path d="M919.214 138.076L907.867 131.438L907.953 118.298L919.373 111.79L930.719 118.43L930.633 131.569L919.214 138.076Z" fill="#F6F8FA"/>
<path d="M942.65 138.322L931.304 131.678L931.389 118.537L942.809 112.032L954.155 118.669L954.07 131.81L942.65 138.322Z" fill="#F6F8FA"/>
<path d="M966.33 138.56L954.984 131.92L955.057 118.779L966.489 112.275L977.835 118.913L977.75 132.054L966.33 138.56Z" fill="#F6F8FA"/>
<path d="M989.767 138.801L978.433 132.159L978.494 119.019L989.926 112.514L1001.27 119.152L1001.19 132.292L989.767 138.801Z" fill="#F6F8FA"/>
<path d="M835.562 115.606L824.215 108.966L824.289 95.8248L835.708 89.3211L847.055 95.9579L846.981 109.101L835.562 115.606Z" fill="#F6F8FA"/>
<path d="M859.002 115.846L847.656 109.206L847.729 96.0659L859.148 89.5635L870.495 96.2027L870.422 109.341L859.002 115.846Z" fill="#F6F8FA"/>
<path d="M882.67 116.088L871.336 109.447L871.409 96.3042L882.828 89.8029L894.175 96.4397L894.089 109.579L882.67 116.088Z" fill="#F6F8FA"/>
<path d="M906.106 116.33L894.772 109.691L894.845 96.5483L906.265 90.0433L917.611 96.6814L917.538 109.826L906.106 116.33Z" fill="#F6F8FA"/>
<path d="M929.79 116.571L918.444 109.932L918.53 96.7904L929.949 90.2867L941.296 96.926L941.21 110.065L929.79 116.571Z" fill="#F6F8FA"/>
<path d="M953.227 116.814L941.88 110.17L941.966 97.0284L953.385 90.5247L964.732 97.1627L964.646 110.304L953.227 116.814Z" fill="#F6F8FA"/>
<path d="M976.909 117.057L965.562 110.414L965.635 97.2736L977.067 90.77L988.401 97.408L988.328 110.548L976.909 117.057Z" fill="#F6F8FA"/>
<path d="M1000.35 117.294L989.004 110.654L989.077 97.5132L1000.51 91.0071L1011.84 97.6463L1011.77 110.786L1000.35 117.294Z" fill="#F6F8FA"/>
<path d="M1024.27 117.538L1012.92 110.899L1013 97.7558L1024.42 91.2558L1035.76 97.8901L1035.69 111.031L1024.27 117.538Z" fill="#F6F8FA"/>
<path d="M847.154 93.6113L835.82 86.9721L835.893 73.8341L847.313 67.328L858.659 73.966L858.574 87.1065L847.154 93.6113Z" fill="#F6F8FA"/>
<path d="M870.837 93.857L859.491 87.2178L859.564 74.0761L870.984 67.5724L882.33 74.2092L882.257 87.3497L870.837 93.857Z" fill="#F6F8FA"/>
<path d="M894.273 94.0961L882.927 87.4568L883 74.3163L894.432 67.809L905.766 74.4458L905.693 87.5912L894.273 94.0961Z" fill="#F6F8FA"/>
<path d="M917.957 94.3389L906.611 87.6997L906.684 74.5591L918.116 68.0567L929.45 74.691L929.377 87.8316L917.957 94.3389Z" fill="#F6F8FA"/>
<path d="M859.208 72.7772L847.861 66.138L847.935 52.9999L859.367 46.4939L870.701 53.1318L870.627 66.2724L859.208 72.7772Z" fill="#F6F8FA"/>
<path d="M882.891 73.0201L871.545 66.3784L871.618 53.2367L883.038 46.7354L894.384 53.3722L894.311 66.5127L882.891 73.0201Z" fill="#F6F8FA"/>
<path d="M870.837 51.6219L859.491 44.9839L859.564 31.8421L870.984 25.3385L882.33 31.9765L882.257 45.117L870.837 51.6219Z" fill="#F6F8FA"/>
<path d="M894.519 51.8676L883.173 45.2259L883.246 32.0854L894.666 25.5829L906.012 32.2197L905.939 45.3603L894.519 51.8676Z" fill="#F6F8FA"/>
<path d="M906.328 73.2629L894.981 66.6236L895.055 53.4831L906.474 46.9758L917.821 53.6151L917.747 66.758L906.328 73.2629Z" fill="#F6F8FA"/>
<path d="M741.985 115.361L730.639 108.722L730.712 95.5837L742.132 89.0788L753.478 95.7156L753.405 108.854L741.985 115.361Z" fill="#F6F8FA"/>
<path d="M765.652 115.606L754.306 108.965L754.391 95.8223L765.811 89.3211L777.157 95.9579L777.072 109.098L765.652 115.606Z" fill="#F6F8FA"/>
<path d="M754.353 94.8236L743.007 88.1807L743.08 75.0402L754.512 68.5365L765.846 75.1758L765.773 88.3138L754.353 94.8236Z" fill="#F6F8FA"/>
<path d="M789.089 115.846L777.755 109.206L777.828 96.0635L789.248 89.5586L800.594 96.1967L800.521 109.338L789.089 115.846Z" fill="#F6F8FA"/>
<path d="M742.703 74.4922L731.357 67.8529L731.43 54.7124L742.85 48.2075L754.196 54.8468L754.123 67.9848L742.703 74.4922Z" fill="#F6F8FA"/>
<path d="M766.374 74.7369L755.027 68.0952L755.113 54.9534L766.533 48.4522L777.879 55.0878L777.806 68.2283L766.374 74.7369Z" fill="#F6F8FA"/>
<path d="M754.353 53.8168L743.007 47.1751L743.08 34.0347L754.512 27.5297L765.846 34.169L765.773 47.3082L754.353 53.8168Z" fill="#F6F8FA"/>
<path d="M789.811 74.9769L778.477 68.3352L778.55 55.1947L789.97 48.6898L801.316 55.3266L801.243 68.4696L789.811 74.9769Z" fill="#F6F8FA"/>
<path d="M611.712 53.8168L600.37 47.1751L600.444 34.0371L611.867 27.5322L623.21 34.1714L623.135 47.3095L611.712 53.8168Z" fill="#F6F8FA"/>
<path d="M611.712 134.639L600.37 127.997L600.444 114.857L611.867 108.354L623.21 114.994L623.135 128.132L611.712 134.639Z" fill="#F6F8FA"/>
<path d="M528.694 114.29L517.351 107.649L517.426 94.5107L528.848 88.0046L540.191 94.6439L540.115 107.783L528.694 114.29Z" fill="#F6F8FA"/>
<path d="M504.865 114.29L493.519 107.649L493.596 94.5107L505.018 88.0046L516.361 94.6439L516.285 107.783L504.865 114.29Z" fill="#F6F8FA"/>
<path d="M635.392 54.0596L624.049 47.4216L624.126 34.2787L635.546 27.775L646.891 34.4131L646.815 47.5535L635.392 54.0596Z" fill="#F6F8FA"/>
<path d="M658.834 54.3025L647.488 47.6607L647.56 34.5203L658.98 28.0154L670.327 34.6509L670.253 47.7951L658.834 54.3025Z" fill="#F6F8FA"/>
<path d="M635.274 93.3704L623.929 86.7312L624.004 73.5907L635.428 67.087L646.77 73.7251L646.693 86.8643L635.274 93.3704Z" fill="#F6F8FA"/>
<path d="M658.957 93.6132L647.607 86.9716L647.685 73.8311L659.103 67.3274L670.45 73.9655L670.376 87.1059L658.957 93.6132Z" fill="#F6F8FA"/>
<path d="M682.393 93.857L671.047 87.2178L671.12 74.0761L682.54 67.5687L693.886 74.208L693.813 87.3497L682.393 93.857Z" fill="#F6F8FA"/>
<path d="M623.854 113.805L612.509 107.168L612.586 94.0251L624.008 87.5215L635.351 94.1594L635.275 107.3L623.854 113.805Z" fill="#F6F8FA"/>
<path d="M647.53 114.049L636.185 107.407L636.263 94.2652L647.684 87.764L659.029 94.4032L658.956 107.541L647.53 114.049Z" fill="#F6F8FA"/>
<path d="M670.963 114.29L659.629 107.652L659.702 94.5107L671.122 88.0034L682.468 94.6402L682.395 107.783L670.963 114.29Z" fill="#F6F8FA"/>
<path d="M930.012 73.5038L918.665 66.8645L918.738 53.7241L930.158 47.2192L941.504 53.856L941.431 66.9965L930.012 73.5038Z" fill="#F6F8FA"/>
<path d="M941.391 94.5817L930.045 87.94L930.118 74.7971L941.55 68.2922L952.884 74.9314L952.811 88.0719L941.391 94.5817Z" fill="#F6F8FA"/>
<path d="M965.077 94.8236L953.731 88.1807L953.804 75.0414L965.224 68.5365L976.57 75.1758L976.497 88.3138L965.077 94.8236Z" fill="#F6F8FA"/>
<path d="M988.513 95.0607L977.167 88.4191L977.24 75.2786L988.66 68.7761L1000.01 75.4117L999.933 88.5522L988.513 95.0607Z" fill="#F6F8FA"/>
<path d="M1012.43 95.3064L1001.08 88.6647L1001.16 75.5267L1012.58 69.023L1023.92 75.6586L1023.85 88.7991L1012.43 95.3064Z" fill="#F6F8FA"/>
<path d="M846.737 180.16L835.391 173.521L835.464 160.381L846.896 153.878L858.23 160.515L858.157 173.655L846.737 180.16Z" fill="#F6F8FA"/>
<path d="M870.419 180.403L859.073 173.763L859.146 160.62L870.566 154.118L881.912 160.755L881.839 173.894L870.419 180.403Z" fill="#F6F8FA"/>
<path d="M893.858 180.645L882.511 174.006L882.584 160.863L894.004 154.358L905.35 160.996L905.277 174.14L893.858 180.645Z" fill="#F6F8FA"/>
<path d="M776.022 179.258L764.688 172.619L764.761 159.478L776.181 152.972L787.527 159.611L787.454 172.751L776.022 179.258Z" fill="#F6F8FA"/>
<path d="M799.705 179.502L788.358 172.862L788.444 159.719L799.863 153.217L811.21 159.856L811.124 172.994L799.705 179.502Z" fill="#F6F8FA"/>
<path d="M823.141 179.741L811.794 173.103L811.88 159.961L823.299 153.454L834.646 160.09L834.56 173.235L823.141 179.741Z" fill="#F6F8FA"/>
<path d="M610.951 177.689L599.604 171.05L599.68 157.91L611.102 151.406L622.445 158.044L622.371 171.185L610.951 177.689Z" fill="#F6F8FA"/>
<path d="M634.631 177.933L623.286 171.292L623.362 158.151L634.783 151.649L646.128 158.285L646.051 171.426L634.631 177.933Z" fill="#F6F8FA"/>
<path d="M658.066 178.176L646.722 171.538L646.799 158.396L658.225 151.889L669.559 158.526L669.486 171.67L658.066 178.176Z" fill="#F6F8FA"/>
<path d="M563.946 177.213L552.603 170.57L552.679 157.431L564.1 150.929L575.444 157.565L575.368 170.706L563.946 177.213Z" fill="#F6F8FA"/>
<path d="M551.531 155.899L540.186 149.256L540.262 136.116L551.685 129.613L563.028 136.25L562.951 149.391L551.531 155.899Z" fill="#F6F8FA"/>
<path d="M705.122 178.176L693.776 171.534L693.862 158.394L705.281 151.891L716.615 158.528L716.542 171.669L705.122 178.176Z" fill="#F6F8FA"/>
<path d="M587.386 177.455L576.045 170.815L576.117 157.673L587.542 151.168L598.883 157.805L598.81 170.949L587.386 177.455Z" fill="#F6F8FA"/>
<path d="M669.423 199.968L658.089 193.329L658.162 180.188L669.582 173.684L680.928 180.323L680.843 193.461L669.423 199.968Z" fill="#F6F8FA"/>
<path d="M693.108 200.211L681.761 193.572L681.847 180.43L693.266 173.926L704.613 180.563L704.527 193.704L693.108 200.211Z" fill="#F6F8FA"/>
<path d="M716.542 200.454L705.196 193.812L705.269 180.672L716.701 174.167L728.047 180.804L727.962 193.947L716.542 200.454Z" fill="#F6F8FA"/>
<path d="M622.426 199.491L611.082 192.849L611.158 179.708L622.581 173.206L633.924 179.846L633.847 192.984L622.426 199.491Z" fill="#F6F8FA"/>
<path d="M645.865 199.732L634.522 193.094L634.596 179.952L646.019 173.445L657.369 180.084L657.283 193.225L645.865 199.732Z" fill="#F6F8FA"/>
<path d="M598.194 241.48L586.85 234.838L586.926 221.7L598.348 215.196L609.691 221.832L609.615 234.972L598.194 241.48Z" fill="#F6F8FA"/>
<path d="M621.874 241.72L610.53 235.079L610.607 221.938L622.028 215.436L633.373 222.073L633.295 235.213L621.874 241.72Z" fill="#F6F8FA"/>
<path d="M645.309 241.963L633.969 235.323L634.041 222.181L645.463 215.674L656.804 222.313L656.731 235.456L645.309 241.963Z" fill="#F6F8FA"/>
<path d="M551.193 241L539.848 234.358L539.926 221.217L551.347 214.715L562.691 221.352L562.615 234.492L551.193 241Z" fill="#F6F8FA"/>
<path d="M574.632 241.242L563.29 234.602L563.363 221.461L574.786 214.954L586.13 221.593L586.054 234.736L574.632 241.242Z" fill="#F6F8FA"/>
<path d="M552.229 198.051L540.885 191.411L540.961 178.27L552.384 171.766L563.725 178.404L563.65 191.545L552.229 198.051Z" fill="#F6F8FA"/>
<path d="M575.664 198.291L564.321 191.652L564.396 178.511L575.819 172.004L587.163 178.642L587.087 191.786L575.664 198.291Z" fill="#F6F8FA"/>
<path d="M917.527 180.887L906.193 174.248L906.266 161.106L917.686 154.602L929.032 161.241L928.959 174.381L917.527 180.887Z" fill="#F6F8FA"/>
<path d="M940.967 181.129L929.633 174.485L929.706 161.343L941.126 154.838L952.472 161.477L952.399 174.619L940.967 181.129Z" fill="#F6F8FA"/>
<path d="M964.647 181.371L953.313 174.729L953.386 161.588L964.806 155.085L976.152 161.723L976.079 174.863L964.647 181.371Z" fill="#F6F8FA"/>
<path d="M988.086 181.609L976.751 174.967L976.825 161.826L988.244 155.322L999.591 161.961L999.505 175.1L988.086 181.609Z" fill="#F6F8FA"/>
<path d="M1012.01 181.852L1000.66 175.213L1000.74 162.071L1012.16 155.57L1023.5 162.205L1023.43 175.345L1012.01 181.852Z" fill="#F6F8FA"/>
<path d="M1023.43 202.137L1012.09 195.497L1012.16 182.356L1023.58 175.854L1034.92 182.49L1034.85 195.629L1023.43 202.137Z" fill="#F6F8FA"/>
<path d="M1012.01 222.973L1000.66 216.332L1000.74 203.192L1012.16 196.69L1023.5 203.326L1023.43 216.466L1012.01 222.973Z" fill="#F6F8FA"/>
<path d="M1047.7 117.783L1036.36 111.139L1036.44 98.0005L1047.86 91.4956L1059.2 98.1324L1059.13 111.273L1047.7 117.783Z" fill="#F6F8FA"/>
<path d="M1072.05 117.897L1060.71 111.255L1060.78 98.1148L1072.21 91.6099L1083.55 98.2491L1083.47 111.387L1072.05 117.897Z" fill="#F6F8FA"/>
<path d="M1083.47 138.801L1072.13 132.162L1072.2 119.021L1083.63 112.516L1094.96 119.153L1094.89 132.294L1083.47 138.801Z" fill="#F6F8FA"/>
<path d="M1071.3 159.234L1059.95 152.594L1060.02 139.454L1071.44 132.949L1082.79 139.586L1082.72 152.726L1071.3 159.234Z" fill="#F6F8FA"/>
<path d="M1095.49 118.135L1084.14 111.492L1084.22 98.3517L1095.65 91.8468L1106.98 98.4861L1106.91 111.627L1095.49 118.135Z" fill="#F6F8FA"/>
<path d="M1119.17 118.378L1107.83 111.736L1107.9 98.5982L1119.32 92.0933L1130.67 98.7301L1130.59 111.871L1119.17 118.378Z" fill="#F6F8FA"/>
<path d="M1143.52 118.135L1132.19 111.492L1132.26 98.3541L1143.68 91.8505L1155.03 98.4861L1154.96 111.627L1143.52 118.135Z" fill="#F6F8FA"/>
<path d="M764.516 200.452L753.17 193.813L753.255 180.67L764.675 174.167L776.021 180.804L775.948 193.947L764.516 200.452Z" fill="#F6F8FA"/>
<path d="M787.954 200.69L776.608 194.051L776.693 180.91L788.113 174.408L799.459 181.045L799.386 194.183L787.954 200.69Z" fill="#F6F8FA"/>
<path d="M811.636 200.932L800.29 194.291L800.375 181.15L811.795 174.646L823.129 181.285L823.056 194.425L811.636 200.932Z" fill="#F6F8FA"/>
<path d="M835.074 201.175L823.728 194.535L823.813 181.393L835.233 174.888L846.567 181.524L846.494 194.667L835.074 201.175Z" fill="#F6F8FA"/>
<path d="M858.756 201.416L847.41 194.776L847.483 181.635L858.915 175.131L870.249 181.768L870.176 194.908L858.756 201.416Z" fill="#F6F8FA"/>
<path d="M882.194 201.659L870.848 195.014L870.921 181.874L882.353 175.369L893.687 182.006L893.614 195.149L882.194 201.659Z" fill="#F6F8FA"/>
<path d="M905.876 201.9L894.53 195.26L894.603 182.119L906.023 175.616L917.369 182.253L917.296 195.392L905.876 201.9Z" fill="#F6F8FA"/>
<path d="M929.314 202.139L917.968 195.498L918.041 182.356L929.461 175.852L940.807 182.49L940.734 195.63L929.314 202.139Z" fill="#F6F8FA"/>
<path d="M953.226 202.383L941.892 195.742L941.965 182.601L953.385 176.1L964.731 182.735L964.645 195.875L953.226 202.383Z" fill="#F6F8FA"/>
<path d="M728.547 221.284L717.201 214.647L717.274 201.504L728.706 195L740.04 201.639L739.967 214.782L728.547 221.284Z" fill="#F6F8FA"/>
<path d="M704.525 221.284L693.179 214.647L693.264 201.504L704.684 195L716.018 201.639L715.945 214.782L704.525 221.284Z" fill="#F6F8FA"/>
<path d="M751.985 221.526L740.639 214.884L740.725 201.746L752.144 195.243L763.491 201.881L763.405 215.019L751.985 221.526Z" fill="#F6F8FA"/>
<path d="M775.669 221.77L764.323 215.128L764.396 201.986L775.828 195.485L787.162 202.121L787.089 215.262L775.669 221.77Z" fill="#F6F8FA"/>
<path d="M799.107 222.009L787.761 215.37L787.834 202.229L799.266 195.722L810.6 202.359L810.527 215.501L799.107 222.009Z" fill="#F6F8FA"/>
<path d="M822.787 222.253L811.441 215.613L811.514 202.472L822.934 195.968L834.28 202.605L834.207 215.745L822.787 222.253Z" fill="#F6F8FA"/>
<path d="M846.227 222.495L834.881 215.85L834.954 202.709L846.386 196.205L857.72 202.842L857.647 215.985L846.227 222.495Z" fill="#F6F8FA"/>
<path d="M869.909 222.735L858.563 216.094L858.636 202.955L870.056 196.447L881.402 203.087L881.329 216.226L869.909 222.735Z" fill="#F6F8FA"/>
<path d="M893.346 222.975L881.999 216.334L882.073 203.192L893.492 196.688L904.838 203.326L904.765 216.467L893.346 222.975Z" fill="#F6F8FA"/>
<path d="M917.26 223.219L905.913 216.578L905.999 203.437L917.419 196.936L928.753 203.571L928.679 216.712L917.26 223.219Z" fill="#F6F8FA"/>
<path d="M739.848 243.085L728.502 236.446L728.587 223.303L740.007 216.799L751.353 223.435L751.28 236.579L739.848 243.085Z" fill="#F6F8FA"/>
<path d="M715.944 242.363L704.61 235.725L704.683 222.583L716.103 216.077L727.449 222.715L727.376 235.859L715.944 242.363Z" fill="#F6F8FA"/>
<path d="M692.031 242.363L680.684 235.725L680.757 222.583L692.177 216.077L703.523 222.715L703.45 235.859L692.031 242.363Z" fill="#F6F8FA"/>
<path d="M763.283 243.324L751.949 236.685L752.022 223.544L763.442 217.04L774.788 223.677L774.715 236.817L763.283 243.324Z" fill="#F6F8FA"/>
<path d="M786.966 243.567L775.62 236.925L775.705 223.782L787.125 217.281L798.471 223.919L798.386 237.059L786.966 243.567Z" fill="#F6F8FA"/>
<path d="M810.403 243.807L799.069 237.167L799.142 224.026L810.562 217.52L821.908 224.158L821.835 237.301L810.403 243.807Z" fill="#F6F8FA"/>
<path d="M834.084 244.05L822.738 237.411L822.811 224.268L834.243 217.765L845.577 224.403L845.504 237.541L834.084 244.05Z" fill="#F6F8FA"/>
<path d="M857.522 244.29L846.176 237.648L846.249 224.505L857.681 218.002L869.015 224.639L868.942 237.782L857.522 244.29Z" fill="#F6F8FA"/>
<path d="M881.204 244.533L869.858 237.892L869.931 224.751L881.351 218.249L892.697 224.885L892.624 238.026L881.204 244.533Z" fill="#F6F8FA"/>
<path d="M904.64 244.772L893.294 238.131L893.367 224.988L904.787 218.485L916.133 225.122L916.06 238.26L904.64 244.772Z" fill="#F6F8FA"/>
<path d="M928.568 245.015L917.221 238.375L917.295 225.234L928.714 218.733L940.061 225.369L939.987 238.509L928.568 245.015Z" fill="#F6F8FA"/>
<path d="M822.249 265.209L810.902 258.567L810.976 245.426L822.395 238.919L833.742 245.558L833.668 258.701L822.249 265.209Z" fill="#F6F8FA"/>
<path d="M821.406 307.038L810.06 300.397L810.133 287.256L821.565 280.749L832.899 287.388L832.826 300.531L821.406 307.038Z" fill="#F6F8FA"/>
<path d="M845.933 265.447L834.586 258.807L834.66 245.666L846.079 239.162L857.425 245.8L857.352 258.941L845.933 265.447Z" fill="#F6F8FA"/>
<path d="M809.99 285.883L798.644 279.243L798.717 266.101L810.149 259.594L821.483 266.233L821.41 279.376L809.99 285.883Z" fill="#F6F8FA"/>
<path d="M833.672 286.122L822.326 279.483L822.399 266.34L833.831 259.837L845.165 266.474L845.092 279.615L833.672 286.122Z" fill="#F6F8FA"/>
<path d="M881.204 286.003L869.858 279.364L869.931 266.223L881.351 259.716L892.697 266.353L892.624 279.498L881.204 286.003Z" fill="#F6F8FA"/>
<path d="M904.888 286.247L893.542 279.605L893.615 266.465L905.034 259.96L916.381 266.597L916.307 279.737L904.888 286.247Z" fill="#F6F8FA"/>
<path d="M880.788 327.597L869.442 320.956L869.515 307.814L880.935 301.311L892.281 307.946L892.208 321.089L880.788 327.597Z" fill="#F6F8FA"/>
<path d="M893.346 348.27L881.999 341.631L882.073 328.489L893.492 321.985L904.838 328.621L904.765 341.763L893.346 348.27Z" fill="#F6F8FA"/>
<path d="M905.069 368.705L893.723 362.065L893.796 348.923L905.216 342.42L916.562 349.058L916.489 362.196L905.069 368.705Z" fill="#F6F8FA"/>
<path d="M928.677 368.705L917.331 362.065L917.404 348.923L928.836 342.42L940.17 349.058L940.097 362.196L928.677 368.705Z" fill="#F6F8FA"/>
<path d="M939.145 337.451L927.798 330.811L927.872 317.671L939.303 311.166L950.637 317.805L950.564 330.944L939.145 337.451Z" fill="#F6F8FA"/>
<path d="M892.625 306.916L881.279 300.274L881.352 287.136L892.772 280.628L904.118 287.265L904.045 300.408L892.625 306.916Z" fill="#F6F8FA"/>
<path d="M916.307 307.156L904.961 300.518L905.034 287.375L916.454 280.87L927.8 287.509L927.727 300.648L916.307 307.156Z" fill="#F6F8FA"/>
<path d="M869.357 265.69L858.022 259.045L858.096 245.903L869.515 239.4L880.862 246.038L880.788 259.18L869.357 265.69Z" fill="#F6F8FA"/>
<path d="M893.042 265.93L881.708 259.289L881.781 246.15L893.201 239.645L904.547 246.283L904.462 259.421L893.042 265.93Z" fill="#F6F8FA"/>
<path d="M961.203 296.104L949.857 289.462L949.93 276.322L961.35 269.817L972.696 276.454L972.623 289.595L961.203 296.104Z" fill="#F6F8FA"/>
<path d="M984.458 337.451L973.112 330.811L973.197 317.671L984.617 311.166L995.951 317.805L995.878 330.944L984.458 337.451Z" fill="#F6F8FA"/>
<path d="M995.875 358.449L984.541 351.81L984.614 338.667L996.034 332.164L1007.38 338.801L1007.29 351.942L995.875 358.449Z" fill="#F6F8FA"/>
<path d="M1020.24 358.449L1008.9 351.81L1008.97 338.667L1020.39 332.164L1031.74 338.801L1031.66 351.942L1020.24 358.449Z" fill="#F6F8FA"/>
<path d="M972.281 394.99L960.934 388.351L961.008 375.208L972.439 368.706L983.774 375.343L983.7 388.483L972.281 394.99Z" fill="#F6F8FA"/>
<path d="M996.635 394.99L985.289 388.351L985.375 375.208L996.794 368.706L1008.14 375.343L1008.05 388.483L996.635 394.99Z" fill="#F6F8FA"/>
<path d="M984.458 416.145L973.112 409.506L973.197 396.363L984.617 389.86L995.951 396.497L995.878 409.637L984.458 416.145Z" fill="#F6F8FA"/>
<path d="M1008.82 416.145L997.474 409.506L997.547 396.363L1008.97 389.86L1020.31 396.497L1020.24 409.637L1008.82 416.145Z" fill="#F6F8FA"/>
<path d="M1032.58 416.145L1021.23 409.506L1021.32 396.363L1032.74 389.86L1044.08 396.497L1044 409.637L1032.58 416.145Z" fill="#F6F8FA"/>
<path d="M1044.74 437.3L1033.4 430.663L1033.47 417.52L1044.89 411.016L1056.23 417.655L1056.16 430.794L1044.74 437.3Z" fill="#F6F8FA"/>
<path d="M1056.92 458.138L1045.57 451.496L1045.66 438.356L1057.08 431.851L1068.43 438.489L1068.34 451.629L1056.92 458.138Z" fill="#F6F8FA"/>
<path d="M936.495 416.145L925.149 409.506L925.234 396.363L936.654 389.86L948 396.497L947.915 409.637L936.495 416.145Z" fill="#F6F8FA"/>
<path d="M960.863 416.145L949.517 409.506L949.59 396.363L961.01 389.86L972.356 396.497L972.283 409.637L960.863 416.145Z" fill="#F6F8FA"/>
<path d="M972.197 437.3L960.851 430.663L960.924 417.52L972.356 411.016L983.703 417.655L983.617 430.794L972.197 437.3Z" fill="#F6F8FA"/>
<path d="M996.562 437.3L985.215 430.663L985.289 417.52L996.708 411.016L1008.05 417.655L1007.98 430.794L996.562 437.3Z" fill="#F6F8FA"/>
<path d="M1020.32 437.3L1008.98 430.663L1009.06 417.52L1020.48 411.016L1031.82 417.655L1031.74 430.794L1020.32 437.3Z" fill="#F6F8FA"/>
<path d="M924.233 437.3L912.886 430.663L912.972 417.52L924.392 411.016L935.726 417.655L935.652 430.794L924.233 437.3Z" fill="#F6F8FA"/>
<path d="M948.599 437.3L937.252 430.663L937.326 417.52L948.745 411.016L960.092 417.655L960.018 430.794L948.599 437.3Z" fill="#F6F8FA"/>
<path d="M1032.53 458.138L1021.2 451.496L1021.27 438.356L1032.69 431.851L1044.03 438.489L1043.95 451.629L1032.53 458.138Z" fill="#F6F8FA"/>
<path d="M959.983 458.138L948.649 451.496L948.723 438.356L960.142 431.851L971.489 438.489L971.415 451.629L959.983 458.138Z" fill="#F6F8FA"/>
<path d="M984.346 458.138L973 451.496L973.073 438.356L984.505 431.851L995.839 438.489L995.766 451.629L984.346 458.138Z" fill="#F6F8FA"/>
<path d="M1008.11 458.138L996.767 451.496L996.84 438.356L1008.26 431.851L1019.61 438.489L1019.53 451.629L1008.11 458.138Z" fill="#F6F8FA"/>
<path d="M1069.91 479.291L1058.57 472.652L1058.64 459.509L1070.06 453.006L1081.41 459.645L1081.33 472.784L1069.91 479.291Z" fill="#F6F8FA"/>
<path d="M1180.49 486.985L1169.15 480.346L1169.23 467.203L1180.65 460.7L1192 467.338L1191.91 480.478L1180.49 486.985Z" fill="#F6F8FA"/>
<path d="M1167.99 508.576L1156.65 501.938L1156.73 488.797L1168.15 482.29L1179.49 488.93L1179.42 502.069L1167.99 508.576Z" fill="#F6F8FA"/>
<path d="M1045.5 551.935L1034.15 545.296L1034.23 532.154L1045.66 525.65L1056.99 532.287L1056.92 545.428L1045.5 551.935Z" fill="#F6F8FA"/>
<path d="M1069.16 358.449L1057.81 351.81L1057.89 338.667L1069.31 332.164L1080.65 338.801L1080.58 351.942L1069.16 358.449Z" fill="#F6F8FA"/>
<path d="M996.562 479.291L985.215 472.652L985.289 459.509L996.708 453.006L1008.05 459.645L1007.98 472.784L996.562 479.291Z" fill="#F6F8FA"/>
<path d="M1045.53 479.291L1034.18 472.652L1034.25 459.509L1045.67 453.006L1057.02 459.645L1056.95 472.784L1045.53 479.291Z" fill="#F6F8FA"/>
<path d="M1021.1 479.291L1009.76 472.652L1009.83 459.509L1021.26 453.006L1032.59 459.645L1032.52 472.784L1021.1 479.291Z" fill="#F6F8FA"/>
<path d="M1057.74 500.126L1046.39 493.488L1046.46 480.347L1057.88 473.841L1069.23 480.479L1069.16 493.619L1057.74 500.126Z" fill="#F6F8FA"/>
<path d="M1033.31 500.126L1021.97 493.488L1022.04 480.347L1033.46 473.841L1044.81 480.479L1044.73 493.619L1033.31 500.126Z" fill="#F6F8FA"/>
<path d="M936.384 458.138L925.037 451.496L925.111 438.356L936.542 431.851L947.877 438.489L947.803 451.629L936.384 458.138Z" fill="#F6F8FA"/>
<path d="M912.52 458.138L901.174 451.496L901.247 438.356L912.667 431.851L924.013 438.489L923.94 451.629L912.52 458.138Z" fill="#F6F8FA"/>
<path d="M947.535 479.291L936.189 472.652L936.274 459.509L947.694 453.006L959.04 459.645L958.955 472.784L947.535 479.291Z" fill="#F6F8FA"/>
<path d="M971.905 479.291L960.558 472.652L960.632 459.509L972.051 453.006L983.398 459.645L983.324 472.784L971.905 479.291Z" fill="#F6F8FA"/>
<path d="M935.48 500.126L924.134 493.488L924.207 480.347L935.627 473.841L946.973 480.479L946.9 493.619L935.48 500.126Z" fill="#F6F8FA"/>
<path d="M923.94 479.291L912.594 472.652L912.667 459.509L924.099 453.006L935.433 459.645L935.36 472.784L923.94 479.291Z" fill="#F6F8FA"/>
<path d="M1032.58 379.601L1021.23 372.962L1021.32 359.821L1032.74 353.317L1044.08 359.955L1044 373.095L1032.58 379.601Z" fill="#F6F8FA"/>
<path d="M972.621 317.137L961.274 310.497L961.348 297.357L972.767 290.851L984.114 297.489L984.04 310.63L972.621 317.137Z" fill="#F6F8FA"/>
<path d="M916.478 266.17L905.144 259.53L905.218 246.387L916.637 239.882L927.984 246.521L927.898 259.661L916.478 266.17Z" fill="#F6F8FA"/>
<path d="M940.401 266.416L929.055 259.772L929.128 246.634L940.548 240.13L951.894 246.766L951.821 259.906L940.401 266.416Z" fill="#F6F8FA"/>
<path d="M562.557 262.077L551.211 255.438L551.287 242.298L562.712 235.793L574.052 242.432L573.98 255.575L562.557 262.077Z" fill="#F6F8FA"/>
<path d="M538.652 261.356L527.309 254.717L527.384 241.577L538.807 235.072L550.15 241.709L550.076 254.852L538.652 261.356Z" fill="#F6F8FA"/>
<path d="M514.738 261.356L503.393 254.717L503.47 241.577L514.89 235.072L526.235 241.709L526.16 254.852L514.738 261.356Z" fill="#F6F8FA"/>
<path d="M585.997 262.317L574.654 255.676L574.728 242.538L586.151 236.034L597.494 242.672L597.419 255.81L585.997 262.317Z" fill="#F6F8FA"/>
<path d="M609.675 262.561L598.332 255.922L598.408 242.78L609.829 236.277L621.173 242.915L621.097 256.055L609.675 262.561Z" fill="#F6F8FA"/>
<path d="M633.111 262.803L621.769 256.161L621.842 243.021L633.264 236.514L644.609 243.152L644.535 256.296L633.111 262.803Z" fill="#F6F8FA"/>
<path d="M656.796 263.045L645.451 256.406L645.525 243.264L656.954 236.76L668.289 243.397L668.215 256.538L656.796 263.045Z" fill="#F6F8FA"/>
<path d="M680.233 263.287L668.887 256.644L668.96 243.501L680.392 236.997L691.726 243.637L691.653 256.779L680.233 263.287Z" fill="#F6F8FA"/>
<path d="M703.915 263.528L692.569 256.885L692.642 243.746L704.062 237.243L715.408 243.88L715.335 257.019L703.915 263.528Z" fill="#F6F8FA"/>
<path d="M727.353 263.765L716.007 257.126L716.08 243.984L727.5 237.48L738.846 244.118L738.773 257.256L727.353 263.765Z" fill="#F6F8FA"/>
<path d="M751.263 264.013L739.929 257.372L740.002 244.231L751.422 237.729L762.768 244.366L762.682 257.505L751.263 264.013Z" fill="#F6F8FA"/>
<path d="M550.466 283.029L539.122 276.389L539.198 263.249L550.621 256.744L561.962 263.382L561.889 276.526L550.466 283.029Z" fill="#F6F8FA"/>
<path d="M526.569 282.307L515.225 275.668L515.299 262.526L526.721 256.022L538.066 262.659L537.992 275.804L526.569 282.307Z" fill="#F6F8FA"/>
<path d="M573.908 283.268L562.564 276.63L562.64 263.487L574.062 256.984L585.404 263.621L585.329 276.762L573.908 283.268Z" fill="#F6F8FA"/>
<path d="M597.587 283.511L586.242 276.871L586.32 263.73L597.741 257.227L609.086 263.866L609.008 277.005L597.587 283.511Z" fill="#F6F8FA"/>
<path d="M621.024 283.751L609.684 277.115L609.756 263.972L621.178 257.464L632.523 264.102L632.449 277.247L621.024 283.751Z" fill="#F6F8FA"/>
<path d="M644.707 283.995L633.364 277.355L633.437 264.213L644.86 257.708L656.197 264.346L656.124 277.487L644.707 283.995Z" fill="#F6F8FA"/>
<path d="M668.141 284.237L656.794 277.594L656.88 264.454L668.299 257.95L679.646 264.587L679.56 277.727L668.141 284.237Z" fill="#F6F8FA"/>
<path d="M691.823 284.478L680.476 277.838L680.55 264.697L691.969 258.193L703.316 264.829L703.242 277.971L691.823 284.478Z" fill="#F6F8FA"/>
<path d="M715.263 284.719L703.916 278.077L703.99 264.936L715.409 258.432L726.756 265.07L726.682 278.208L715.263 284.719Z" fill="#F6F8FA"/>
<path d="M538.564 305.225L527.219 298.586L527.293 285.446L538.718 278.941L550.058 285.577L549.986 298.723L538.564 305.225Z" fill="#F6F8FA"/>
<path d="M562.003 305.466L550.659 298.827L550.734 285.684L562.158 279.182L573.5 285.818L573.423 298.959L562.003 305.466Z" fill="#F6F8FA"/>
<path d="M585.679 305.707L574.335 299.065L574.411 285.926L585.834 279.422L597.175 286.062L597.1 299.2L585.679 305.707Z" fill="#F6F8FA"/>
<path d="M609.118 305.951L597.777 299.312L597.85 286.169L609.273 279.661L620.616 286.301L620.541 299.444L609.118 305.951Z" fill="#F6F8FA"/>
<path d="M632.798 306.19L621.455 299.551L621.532 286.409L632.951 279.905L644.297 286.542L644.221 299.683L632.798 306.19Z" fill="#F6F8FA"/>
<path d="M656.233 306.432L644.893 299.788L644.97 286.647L656.392 280.142L667.738 286.782L667.653 299.922L656.233 306.432Z" fill="#F6F8FA"/>
<path d="M679.914 306.675L668.567 300.033L668.641 286.892L680.073 280.39L691.419 287.026L691.333 300.167L679.914 306.675Z" fill="#F6F8FA"/>
<path d="M703.353 306.916L692.019 300.274L692.08 287.131L703.512 280.628L714.846 287.265L714.772 300.406L703.353 306.916Z" fill="#F6F8FA"/>
<path d="M550.719 326.752L539.375 320.113L539.451 306.97L550.873 300.465L562.216 307.104L562.142 320.245L550.719 326.752Z" fill="#F6F8FA"/>
<path d="M574.158 326.989L562.813 320.347L562.888 307.209L574.312 300.704L585.653 307.344L585.579 320.482L574.158 326.989Z" fill="#F6F8FA"/>
<path d="M597.836 327.23L586.491 320.591L586.57 307.448L597.99 300.945L609.336 307.582L609.257 320.723L597.836 327.23Z" fill="#F6F8FA"/>
<path d="M621.274 327.473L609.931 320.832L610.003 307.692L621.428 301.187L632.773 307.821L632.696 320.967L621.274 327.473Z" fill="#F6F8FA"/>
<path d="M644.955 327.714L633.611 321.077L633.687 307.934L645.11 301.432L656.453 308.068L656.38 321.206L644.955 327.714Z" fill="#F6F8FA"/>
<path d="M668.387 327.955L657.053 321.311L657.127 308.172L668.546 301.665L679.893 308.304L679.819 321.447L668.387 327.955Z" fill="#F6F8FA"/>
<path d="M692.064 328.199L680.73 321.556L680.803 308.417L692.222 301.915L703.569 308.549L703.495 321.69L692.064 328.199Z" fill="#F6F8FA"/>
<path d="M715.52 328.439L704.173 321.798L704.247 308.655L715.666 302.152L727.013 308.789L726.927 321.927L715.52 328.439Z" fill="#F6F8FA"/>
<path d="M609.426 348.629L598.081 341.99L598.158 328.848L609.578 322.344L620.923 328.98L620.847 342.123L609.426 348.629Z" fill="#F6F8FA"/>
<path d="M632.866 348.874L621.523 342.231L621.597 329.088L633.024 322.584L644.365 329.222L644.289 342.363L632.866 348.874Z" fill="#F6F8FA"/>
<path d="M656.536 349.115L645.197 342.473L645.274 329.334L656.695 322.829L668.041 329.467L667.968 342.607L656.536 349.115Z" fill="#F6F8FA"/>
<path d="M620.976 370.267L609.633 363.63L609.709 350.488L621.132 343.983L632.474 350.619L632.398 363.76L620.976 370.267Z" fill="#F6F8FA"/>
<path d="M644.412 370.508L633.069 363.865L633.146 350.724L644.568 344.22L655.914 350.857L655.829 364L644.412 370.508Z" fill="#F6F8FA"/>
<path d="M668.095 370.748L656.749 364.108L656.822 350.968L668.254 344.464L679.6 351.1L679.515 364.24L668.095 370.748Z" fill="#F6F8FA"/>
<path d="M679.975 349.354L668.641 342.713L668.714 329.57L680.134 323.067L691.48 329.705L691.407 342.845L679.975 349.354Z" fill="#F6F8FA"/>
<path d="M608.941 391.905L597.597 385.265L597.671 372.123L609.094 365.618L620.437 372.258L620.362 385.396L608.941 391.905Z" fill="#F6F8FA"/>
<path d="M632.38 392.147L621.037 385.504L621.113 372.361L632.538 365.858L643.878 372.496L643.802 385.636L632.38 392.147Z" fill="#F6F8FA"/>
<path d="M656.062 392.384L644.717 385.745L644.792 372.605L656.209 366.1L667.555 372.739L667.482 385.877L656.062 392.384Z" fill="#F6F8FA"/>
<path d="M679.5 392.628L668.154 385.988L668.227 372.847L679.646 366.341L690.993 372.979L690.919 386.117L679.5 392.628Z" fill="#F6F8FA"/>
<path d="M620.779 413.303L609.434 406.663L609.51 393.523L620.933 387.019L632.276 393.655L632.202 406.795L620.779 413.303Z" fill="#F6F8FA"/>
<path d="M644.22 413.543L632.88 406.9L632.953 393.757L644.379 387.253L655.722 393.891L655.648 407.032L644.22 413.543Z" fill="#F6F8FA"/>
<path d="M667.895 413.784L656.549 407.142L656.634 394.001L668.054 387.498L679.4 394.136L679.327 407.276L667.895 413.784Z" fill="#F6F8FA"/>
<path d="M691.336 414.023L680.002 407.382L680.075 394.242L691.495 387.736L702.841 394.374L702.756 407.514L691.336 414.023Z" fill="#F6F8FA"/>
<path d="M656 434.939L644.662 428.297L644.737 415.156L656.159 408.652L667.505 415.29L667.432 428.429L656 434.939Z" fill="#F6F8FA"/>
<path d="M679.679 435.179L668.333 428.536L668.418 415.398L679.838 408.892L691.184 415.531L691.099 428.67L679.679 435.179Z" fill="#F6F8FA"/>
<path d="M654.947 477.971L643.6 471.33L643.672 458.191L655.093 451.686L666.44 458.323L666.366 471.463L654.947 477.971Z" fill="#F6F8FA"/>
<path d="M742.691 402.965L731.357 396.324L731.418 383.184L742.85 376.68L754.196 383.317L754.111 396.458L742.691 402.965Z" fill="#F6F8FA"/>
<path d="M631.78 434.939L620.438 428.297L620.511 415.157L631.932 408.652L643.277 415.29L643.2 428.429L631.78 434.939Z" fill="#F6F8FA"/>
<path d="M667.748 456.334L656.401 449.693L656.487 436.551L667.906 430.047L679.253 436.684L679.167 449.824L667.748 456.334Z" fill="#F6F8FA"/>
<path d="M643.528 456.334L632.187 449.695L632.259 436.552L643.681 430.05L655.025 436.686L654.951 449.824L643.528 456.334Z" fill="#F6F8FA"/>
<path d="M739.186 284.964L727.84 278.322L727.913 265.181L739.333 258.679L750.679 265.315L750.606 278.456L739.186 284.964Z" fill="#F6F8FA"/>
<path d="M976.664 202.625L965.33 195.983L965.403 182.843L976.823 176.34L988.169 182.975L988.096 196.118L976.664 202.625Z" fill="#F6F8FA"/>
<path d="M1083.64 96.7398L1072.31 90.0968L1072.38 76.9539L1083.8 70.4515L1095.15 77.0907L1095.08 90.2312L1083.64 96.7398Z" fill="#F6F8FA"/>
<path d="M1107.32 96.9816L1095.99 90.3412L1096.06 77.1994L1107.48 70.697L1118.83 77.3338L1118.76 90.4743L1107.32 96.9816Z" fill="#F6F8FA"/>
<path d="M47.2844 109.697L35.9405 103.059L36.0162 89.9168L47.4382 83.4131L58.7809 90.0499L58.7064 103.193L47.2844 109.697Z" fill="#F6F8FA"/>
<path d="M22.5215 110.665L11.1777 104.026L11.2509 90.8841L22.6754 84.3804L34.0169 91.0172L33.9448 104.16L22.5215 110.665Z" fill="#F6F8FA"/>
<path d="M36.106 132.309L24.7609 125.67L24.8354 112.527L36.2599 106.023L47.6026 112.661L47.5281 125.805L36.106 132.309Z" fill="#F6F8FA"/>
<path d="M70.7256 109.938L59.3805 103.298L59.4574 90.1587L70.8794 83.6562L82.2197 90.2931L82.1464 103.434L70.7256 109.938Z" fill="#F6F8FA"/>
<path d="M94.4012 110.182L83.0586 103.542L83.1343 90.3988L94.5551 83.8976L105.899 90.5331L105.821 103.676L94.4012 110.182Z" fill="#F6F8FA"/>
<path d="M36.106 88.4259L24.7609 81.7855L24.8354 68.6438L36.2599 62.1389L47.6026 68.7769L47.5281 81.9186L36.106 88.4259Z" fill="#F6F8FA"/>
<path d="M11.3451 89.3888L0 82.7495L0.0745452 69.6066L11.4966 63.1042L22.8392 69.7434L22.7672 82.8851L11.3451 89.3888Z" fill="#F6F8FA"/>
<path d="M59.5467 88.6641L48.2028 82.0248L48.2773 68.8843L59.6993 62.3795L71.0433 69.0187L70.9675 82.1568L59.5467 88.6641Z" fill="#F6F8FA"/>
<path d="M83.2229 88.9079L71.879 82.2662L71.9548 69.1233L83.3768 62.622L94.7194 69.2601L94.6437 82.4005L83.2229 88.9079Z" fill="#F6F8FA"/>
<path d="M153.657 89.3888L142.312 82.7495L142.387 69.6066L153.811 63.1042L165.154 69.7385L165.08 82.8851L153.657 89.3888Z" fill="#F6F8FA"/>
<path d="M177.099 89.6288L165.754 82.9895L165.829 69.849L177.253 63.3441L188.596 69.9809L188.52 83.1214L177.099 89.6288Z" fill="#F6F8FA"/>
<path d="M200.778 89.8725L189.432 83.2296L189.511 70.0879L200.931 63.5879L212.275 70.2247L212.197 83.3627L200.778 89.8725Z" fill="#F6F8FA"/>
<path d="M165.793 68.1531L154.45 61.5139L154.526 48.3734L165.947 41.8661L177.292 48.5053L177.217 61.6483L165.793 68.1531Z" fill="#F6F8FA"/>
<path d="M189.233 68.3941L177.888 61.7548L177.964 48.6143L189.387 42.1106L200.731 48.7487L200.655 61.8867L189.233 68.3941Z" fill="#F6F8FA"/>
<path d="M212.913 68.6369L201.568 61.9952L201.646 48.8535L213.067 42.3523L224.411 48.989L224.335 62.1295L212.913 68.6369Z" fill="#F6F8FA"/>
<path d="M117.839 110.418L106.497 103.782L106.57 90.6412L117.993 84.1338L129.337 90.7719L129.261 103.916L117.839 110.418Z" fill="#F6F8FA"/>
<path d="M141.519 110.665L130.175 104.026L130.251 90.8841L141.673 84.3804L153.015 91.0172L152.939 104.159L141.519 110.665Z" fill="#F6F8FA"/>
<path d="M164.956 110.907L153.613 104.263L153.689 91.1211L165.113 84.6174L176.456 91.2555L176.38 104.397L164.956 110.907Z" fill="#F6F8FA"/>
<path d="M188.635 111.147L177.295 104.505L177.367 91.366L188.789 84.8599L200.134 91.4991L200.06 104.637L188.635 111.147Z" fill="#F6F8FA"/>
<path d="M212.077 111.387L200.737 104.748L200.806 91.6048L212.23 85.0998L223.573 91.7379L223.495 104.878L212.077 111.387Z" fill="#F6F8FA"/>
<path d="M235.996 111.634L224.653 104.991L224.727 91.8514L236.148 85.3489L247.491 91.9833L247.416 105.123L235.996 111.634Z" fill="#F6F8FA"/>
<path d="M259.432 111.872L248.089 105.23L248.164 92.0894L259.588 85.587L270.93 92.2213L270.855 105.362L259.432 111.872Z" fill="#F6F8FA"/>
<path d="M246.764 174.946L235.419 168.305L235.494 155.163L246.918 148.66L258.26 155.298L258.186 168.442L246.764 174.946Z" fill="#F6F8FA"/>
<path d="M270.202 175.185L258.859 168.544L258.934 155.404L270.358 148.901L281.699 155.538L281.626 168.678L270.202 175.185Z" fill="#F6F8FA"/>
<path d="M199.192 174.581L187.849 167.942L187.923 154.799L199.348 148.296L210.688 154.933L210.616 168.078L199.192 174.581Z" fill="#F6F8FA"/>
<path d="M175.754 174.3L164.409 167.659L164.483 154.518L175.905 148.014L187.248 154.652L187.176 167.794L175.754 174.3Z" fill="#F6F8FA"/>
<path d="M222.871 174.581L211.527 167.939L211.601 154.801L223.026 148.296L234.366 154.935L234.292 168.074L222.871 174.581Z" fill="#F6F8FA"/>
<path d="M164.036 195.495L152.691 188.854L152.766 175.713L164.19 169.211L175.532 175.847L175.455 188.988L164.036 195.495Z" fill="#F6F8FA"/>
<path d="M187.472 195.734L176.129 189.095L176.201 175.952L187.625 169.448L198.968 176.084L198.894 189.227L187.472 195.734Z" fill="#F6F8FA"/>
<path d="M211.153 195.976L199.809 189.337L199.882 176.195L211.305 169.692L222.649 176.328L222.574 189.469L211.153 195.976Z" fill="#F6F8FA"/>
<path d="M234.59 196.22L223.247 189.576L223.321 176.435L234.747 169.93L246.089 176.57L246.012 189.71L234.59 196.22Z" fill="#F6F8FA"/>
<path d="M258.268 196.458L246.925 189.819L247 176.678L258.423 170.173L269.767 176.81L269.691 189.951L258.268 196.458Z" fill="#F6F8FA"/>
<path d="M281.948 196.096L270.605 189.456L270.68 176.313L282.099 169.81L293.444 176.447L293.369 189.588L281.948 196.096Z" fill="#F6F8FA"/>
<path d="M305.927 196.094L294.582 189.455L294.658 176.312L306.078 169.811L317.421 176.446L317.345 189.587L305.927 196.094Z" fill="#F6F8FA"/>
<path d="M186.634 238.448L175.292 231.809L175.367 218.666L186.788 212.164L198.133 218.801L198.056 231.941L186.634 238.448Z" fill="#F6F8FA"/>
<path d="M222.273 259.284L210.928 252.641L211.004 239.501L222.427 233L233.771 239.635L233.695 252.778L222.273 259.284Z" fill="#F6F8FA"/>
<path d="M235.127 280.441L223.782 273.799L223.859 260.656L235.281 254.156L246.626 260.793L246.548 273.931L235.127 280.441Z" fill="#F6F8FA"/>
<path d="M258.806 280.441L247.462 273.799L247.54 260.656L258.959 254.156L270.305 260.793L270.229 273.931L258.806 280.441Z" fill="#F6F8FA"/>
<path d="M270.828 302.238L259.484 295.596L259.56 282.453L270.982 275.952L282.325 282.59L282.249 295.728L270.828 302.238Z" fill="#F6F8FA"/>
<path d="M295.669 302.238L284.326 295.596L284.403 282.453L295.825 275.952L307.168 282.59L307.092 295.728L295.669 302.238Z" fill="#F6F8FA"/>
<path d="M333.816 282.959L322.47 276.319L322.548 263.177L333.969 256.674L345.313 263.313L345.237 276.451L333.816 282.959Z" fill="#F6F8FA"/>
<path d="M175.213 216.891L163.87 210.252L163.945 197.109L175.367 190.602L186.709 197.241L186.636 210.384L175.213 216.891Z" fill="#F6F8FA"/>
<path d="M198.895 217.133L187.55 210.494L187.625 197.351L199.049 190.849L210.392 197.483L210.315 210.626L198.895 217.133Z" fill="#F6F8FA"/>
<path d="M222.329 217.375L210.986 210.732L211.061 197.589L222.488 191.087L233.831 197.723L233.752 210.864L222.329 217.375Z" fill="#F6F8FA"/>
<path d="M210.852 238.326L199.508 231.686L199.583 218.545L211.005 212.041L222.348 218.676L222.273 231.819L210.852 238.326Z" fill="#F6F8FA"/>
<path d="M234.289 238.57L222.946 231.927L223.021 218.784L234.447 212.281L245.788 218.916L245.711 232.059L234.289 238.57Z" fill="#F6F8FA"/>
<path d="M246.009 217.614L234.666 210.975L234.74 197.835L246.163 191.332L257.507 197.969L257.431 211.108L246.009 217.614Z" fill="#F6F8FA"/>
<path d="M270.204 217.857L258.862 211.215L258.935 198.074L270.357 191.57L281.699 198.207L281.622 211.347L270.204 217.857Z" fill="#F6F8FA"/>
<path d="M294.125 217.372L282.782 210.73L282.856 197.589L294.277 191.088L305.622 197.724L305.545 210.864L294.125 217.372Z" fill="#F6F8FA"/>
<path d="M326.941 343.828L315.599 337.185L315.672 324.042L327.099 317.54L338.442 324.177L338.364 337.32L326.941 343.828Z" fill="#F6F8FA"/>
<path d="M350.622 344.07L339.279 337.428L339.351 324.288L350.776 317.786L362.121 324.422L362.044 337.563L350.622 344.07Z" fill="#F6F8FA"/>
<path d="M338.778 321.954L327.436 315.311L327.51 302.168L338.934 295.664L350.277 302.302L350.201 315.443L338.778 321.954Z" fill="#F6F8FA"/>
<path d="M362.461 322.192L351.118 315.553L351.19 302.412L362.615 295.907L373.957 302.547L373.883 315.685L362.461 322.192Z" fill="#F6F8FA"/>
<path d="M315.102 365.585L303.762 358.945L303.837 345.802L315.263 339.297L326.604 345.936L326.527 359.079L315.102 365.585Z" fill="#F6F8FA"/>
<path d="M338.778 365.828L327.436 359.184L327.508 346.046L338.93 339.542L350.277 346.18L350.201 359.319L338.778 365.828Z" fill="#F6F8FA"/>
<path d="M326.525 386.504L315.183 379.86L315.257 366.718L326.684 360.212L338.024 366.852L337.948 379.991L326.525 386.504Z" fill="#F6F8FA"/>
<path d="M350.206 386.741L338.863 380.1L338.935 366.96L350.36 360.456L361.705 367.093L361.628 380.234L350.206 386.741Z" fill="#F6F8FA"/>
<path d="M374.06 344.31L362.717 337.668L362.792 324.526L374.211 318.023L385.556 324.66L385.478 337.8L374.06 344.31Z" fill="#F6F8FA"/>
<path d="M397.98 344.555L386.635 337.916L386.712 324.773L398.133 318.271L409.475 324.908L409.399 338.048L397.98 344.555Z" fill="#F6F8FA"/>
<path d="M385.481 365.707L374.139 359.065L374.214 345.923L385.639 339.419L396.982 346.055L396.906 359.196L385.481 365.707Z" fill="#F6F8FA"/>
<path d="M409.161 365.947L397.819 359.306L397.891 346.165L409.315 339.663L420.658 346.3L420.583 359.439L409.161 365.947Z" fill="#F6F8FA"/>
<path d="M432.6 366.188L421.255 359.547L421.329 346.404L432.75 339.901L444.094 346.538L444.018 359.677L432.6 366.188Z" fill="#F6F8FA"/>
<path d="M456.524 366.433L445.181 359.791L445.254 346.651L456.675 340.148L468.017 346.785L467.943 359.923L456.524 366.433Z" fill="#F6F8FA"/>
<path d="M373.642 386.624L362.3 379.981L362.374 366.84L373.801 360.335L385.141 366.972L385.066 380.113L373.642 386.624Z" fill="#F6F8FA"/>
<path d="M397.32 386.864L385.98 380.222L386.053 367.081L397.476 360.578L408.82 367.216L408.744 380.356L397.32 386.864Z" fill="#F6F8FA"/>
<path d="M420.762 387.103L409.422 380.462L409.492 367.319L420.916 360.816L432.259 367.454L432.181 380.594L420.762 387.103Z" fill="#F6F8FA"/>
<path d="M337.946 407.899L326.603 401.255L326.679 388.114L338.103 381.609L349.446 388.246L349.368 401.389L337.946 407.899Z" fill="#F6F8FA"/>
<path d="M361.626 408.138L350.285 401.498L350.358 388.357L361.781 381.853L373.125 388.491L373.05 401.631L361.626 408.138Z" fill="#F6F8FA"/>
<path d="M385.064 408.019L373.721 401.376L373.797 388.236L385.221 381.732L396.564 388.368L396.488 401.51L385.064 408.019Z" fill="#F6F8FA"/>
<path d="M408.746 408.259L397.403 401.617L397.477 388.479L408.899 381.973L420.245 388.612L420.169 401.752L408.746 408.259Z" fill="#F6F8FA"/>
<path d="M349.664 429.532L338.319 422.892L338.396 409.749L349.823 403.245L361.163 409.883L361.086 423.024L349.664 429.532Z" fill="#F6F8FA"/>
<path d="M373.344 429.777L362.003 423.133L362.075 409.995L373.499 403.493L384.842 410.129L384.768 423.267L373.344 429.777Z" fill="#F6F8FA"/>
<path d="M396.783 429.653L385.443 423.009L385.516 409.871L396.943 403.364L408.283 410.002L408.208 423.144L396.783 429.653Z" fill="#F6F8FA"/>
<path d="M361.202 450.69L349.86 444.048L349.935 430.905L361.36 424.403L372.703 431.039L372.624 444.182L361.202 450.69Z" fill="#F6F8FA"/>
<path d="M384.886 450.932L373.543 444.29L373.618 431.149L385.04 424.647L396.385 431.284L396.311 444.424L384.886 450.932Z" fill="#F6F8FA"/>
<path d="M408.322 450.812L396.98 444.168L397.057 431.027L408.481 424.523L419.824 431.161L419.746 444.303L408.322 450.812Z" fill="#F6F8FA"/>
<path d="M349.49 472.088L338.147 465.447L338.222 452.304L349.646 445.8L360.988 452.436L360.912 465.579L349.49 472.088Z" fill="#F6F8FA"/>
<path d="M373.168 472.327L361.825 465.685L361.899 452.547L373.322 446.042L384.666 452.681L384.592 465.82L373.168 472.327Z" fill="#F6F8FA"/>
<path d="M396.604 472.208L385.262 465.564L385.337 452.422L396.764 445.918L408.104 452.555L408.029 465.698L396.604 472.208Z" fill="#F6F8FA"/>
<path d="M338.189 493.565L326.845 486.921L326.921 473.78L338.345 467.276L349.688 473.913L349.61 487.056L338.189 493.565Z" fill="#F6F8FA"/>
<path d="M361.923 536.841L350.578 530.197L350.655 517.055L362.079 510.551L373.422 517.189L373.345 530.329L361.923 536.841Z" fill="#F6F8FA"/>
<path d="M385.901 536.841L374.556 530.197L374.633 517.055L386.059 510.551L397.4 517.189L397.323 530.329L385.901 536.841Z" fill="#F6F8FA"/>
<path d="M397.918 557.674L386.575 551.032L386.652 537.889L398.076 531.387L409.419 538.024L409.341 551.164L397.918 557.674Z" fill="#F6F8FA"/>
<path d="M361.866 493.804L350.523 487.164L350.597 474.025L362.02 467.52L373.365 474.157L373.29 487.297L361.866 493.804Z" fill="#F6F8FA"/>
<path d="M385.304 493.682L373.961 487.04L374.038 473.898L385.462 467.395L396.805 474.033L396.727 487.174L385.304 493.682Z" fill="#F6F8FA"/>
<path d="M350.505 515.603L339.162 508.959L339.234 495.821L350.657 489.316L362.001 495.953L361.928 509.093L350.505 515.603Z" fill="#F6F8FA"/>
<path d="M373.939 515.481L362.596 508.84L362.671 495.697L374.098 489.192L385.44 495.83L385.362 508.972L373.939 515.481Z" fill="#F6F8FA"/>
<path d="M420.464 429.897L409.121 423.255L409.196 410.115L420.616 403.613L431.963 410.249L431.887 423.389L420.464 429.897Z" fill="#F6F8FA"/>
<path d="M432.186 408.503L420.843 401.86L420.917 388.719L432.337 382.214L443.682 388.854L443.606 401.992L432.186 408.503Z" fill="#F6F8FA"/>
<path d="M444.683 387.346L433.338 380.706L433.413 367.566L444.834 361.064L456.177 367.7L456.101 380.84L444.683 387.346Z" fill="#F6F8FA"/>
<path d="M329.936 195.976L318.591 189.334L318.666 176.195L330.09 169.692L341.433 176.327L341.358 189.469L329.936 195.976Z" fill="#F6F8FA"/>
<path d="M140.653 152.497L129.311 145.855L129.383 132.715L140.808 126.207L152.152 132.846L152.076 145.989L140.653 152.497Z" fill="#F6F8FA"/>
<path d="M164.334 152.734L152.989 146.095L153.064 132.952L164.486 126.449L175.831 133.086L175.755 146.227L164.334 152.734Z" fill="#F6F8FA"/>
<path d="M187.771 152.98L176.427 146.334L176.502 133.194L187.929 126.689L199.269 133.328L199.193 146.468L187.771 152.98Z" fill="#F6F8FA"/>
<path d="M211.45 153.22L200.107 146.578L200.182 133.438L211.604 126.936L222.947 133.57L222.872 146.711L211.45 153.22Z" fill="#F6F8FA"/>
<path d="M234.886 153.459L223.544 146.819L223.616 133.676L235.038 127.174L246.38 133.808L246.305 146.951L234.886 153.459Z" fill="#F6F8FA"/>
<path d="M258.809 153.704L247.464 147.06L247.541 133.922L258.96 127.418L270.303 134.054L270.23 147.194L258.809 153.704Z" fill="#F6F8FA"/>
<path d="M247.386 132.062L236.042 125.423L236.117 112.28L247.541 105.775L258.885 112.413L258.809 125.557L247.386 132.062Z" fill="#F6F8FA"/>
<path d="M129.232 131.34L117.89 124.701L117.963 111.559L129.386 105.056L140.73 111.693L140.654 124.833L129.232 131.34Z" fill="#F6F8FA"/>
<path d="M152.67 131.581L141.33 124.937L141.404 111.796L152.829 105.292L164.17 111.929L164.094 125.072L152.67 131.581Z" fill="#F6F8FA"/>
<path d="M176.352 131.822L165.008 125.182L165.081 112.043L176.504 105.538L187.848 112.176L187.775 125.314L176.352 131.822Z" fill="#F6F8FA"/>
<path d="M199.793 132.062L188.448 125.421L188.522 112.28L199.943 105.775L211.288 112.413L211.211 125.554L199.793 132.062Z" fill="#F6F8FA"/>
<path d="M223.714 132.309L212.368 125.665L212.444 112.527L223.867 106.023L235.207 112.659L235.133 125.799L223.714 132.309Z" fill="#F6F8FA"/>
<path d="M282.245 153.943L270.904 147.304L270.979 134.163L282.401 127.657L293.744 134.295L293.668 147.436L282.245 153.943Z" fill="#F6F8FA"/>
<path d="M398.486 69.6847L387.142 63.0419L387.215 49.9026L398.64 43.3977L409.985 50.0369L409.908 63.175L398.486 69.6847Z" fill="#F6F8FA"/>
<path d="M421.923 69.9238L410.58 63.2845L410.654 50.1416L422.075 43.6392L433.419 50.2748L433.343 63.4152L421.923 69.9238Z" fill="#F6F8FA"/>
<path d="M445.846 70.1704L434.502 63.5263L434.575 50.3882L445.998 43.8858L457.34 50.5226L457.264 63.6606L445.846 70.1704Z" fill="#F6F8FA"/>
<path d="M469.281 70.4075L457.94 63.7659L458.013 50.6279L469.438 44.1229L480.779 50.7598L480.705 63.9002L469.281 70.4075Z" fill="#F6F8FA"/>
<path d="M410.204 90.8401L398.862 84.1996L398.934 71.0567L410.357 64.553L421.701 71.1886L421.625 84.3291L410.204 90.8401Z" fill="#F6F8FA"/>
<path d="M434.128 91.0838L422.782 84.4434L422.858 71.3029L434.278 64.8017L445.621 71.4361L445.545 84.5753L434.128 91.0838Z" fill="#F6F8FA"/>
<path d="M457.561 91.3238L446.218 84.6846L446.294 71.5441L457.717 65.0392L469.06 71.6748L468.983 84.8165L457.561 91.3238Z" fill="#F6F8FA"/>
<path d="M398.785 112.481L387.442 105.841L387.517 92.6989L398.939 86.1989L410.279 92.8332L410.206 105.974L398.785 112.481Z" fill="#F6F8FA"/>
<path d="M422.223 112.72L410.88 106.078L410.955 92.9379L422.379 86.4354L433.72 93.071L433.646 106.213L422.223 112.72Z" fill="#F6F8FA"/>
</svg>
