<svg width="235" height="58" viewBox="0 0 235 58" fill="none" xmlns="http://www.w3.org/2000/svg">
<rect width="235" height="58" rx="8" fill="url(#paint0_linear_120_3403)" fill-opacity="0.1"/>
<g opacity="0.5">
<path d="M51 23.1549H38.8024V11.042H27.1129C27.1129 17.7338 21.6918 23.1549 15 23.1549V34.8443H27.1129V46.9573H38.8024C38.8024 40.2655 44.3082 34.8443 51 34.8443V23.1549Z" fill="#F6F8FA"/>
</g>
<path d="M67.092 25.5V15.98H68.38V25.5H67.092ZM68.016 17.03V15.98H73.546V17.03H68.016ZM68.016 21.342V20.292H73.028V21.342H68.016ZM80.8463 18.066V25.5H79.6143V18.066H80.8463ZM79.6143 22.462H80.2023C80.165 23.1713 80.0203 23.764 79.7683 24.24C79.5163 24.716 79.185 25.0753 78.7743 25.318C78.3637 25.5513 77.8923 25.668 77.3603 25.668C76.847 25.668 76.4037 25.57 76.0303 25.374C75.657 25.1687 75.3723 24.87 75.1763 24.478C74.9803 24.086 74.8823 23.6053 74.8823 23.036V18.066H76.1143V22.784C76.1143 23.1573 76.1703 23.484 76.2823 23.764C76.3943 24.0347 76.567 24.2447 76.8003 24.394C77.0337 24.5433 77.3323 24.618 77.6963 24.618C77.995 24.618 78.261 24.5573 78.4943 24.436C78.737 24.3147 78.9377 24.1513 79.0963 23.946C79.2643 23.7313 79.3903 23.498 79.4743 23.246C79.5677 22.9847 79.6143 22.7233 79.6143 22.462ZM82.812 25.5V15.42H84.044V25.5H82.812ZM85.9976 25.5V15.42H87.2296V25.5H85.9976ZM89.1551 22.21V21.16H92.8791V22.21H89.1551ZM95.7396 19.97C95.7396 20.2687 95.8236 20.4973 95.9916 20.656C96.1689 20.8147 96.4023 20.936 96.6916 21.02C96.9809 21.104 97.2983 21.174 97.6436 21.23C97.9889 21.2767 98.3296 21.3373 98.6656 21.412C99.0109 21.4867 99.3283 21.5987 99.6176 21.748C99.9069 21.888 100.136 22.0887 100.304 22.35C100.481 22.6113 100.57 22.9613 100.57 23.4C100.57 23.8573 100.444 24.2587 100.192 24.604C99.9396 24.94 99.5896 25.2013 99.1416 25.388C98.6936 25.5747 98.1756 25.668 97.5876 25.668C96.7103 25.668 95.9776 25.458 95.3896 25.038C94.8109 24.6087 94.4516 23.9553 94.3116 23.078H95.5436C95.6276 23.5913 95.8516 23.988 96.2156 24.268C96.5889 24.548 97.0603 24.688 97.6296 24.688C98.1896 24.688 98.6143 24.576 98.9036 24.352C99.1929 24.1187 99.3376 23.8293 99.3376 23.484C99.3376 23.1947 99.2489 22.9707 99.0716 22.812C98.9036 22.6533 98.6749 22.5367 98.3856 22.462C98.1056 22.378 97.7929 22.308 97.4476 22.252C97.1116 22.196 96.7756 22.1307 96.4396 22.056C96.1036 21.9813 95.7909 21.874 95.5016 21.734C95.2216 21.5847 94.9929 21.3793 94.8156 21.118C94.6476 20.8473 94.5636 20.4927 94.5636 20.054C94.5636 19.6713 94.6616 19.3167 94.8576 18.99C95.0536 18.6633 95.3523 18.3973 95.7536 18.192C96.1549 17.9867 96.6589 17.884 97.2656 17.884C97.8069 17.884 98.2876 17.9727 98.7076 18.15C99.1369 18.3273 99.4916 18.6073 99.7716 18.99C100.052 19.3727 100.229 19.872 100.304 20.488H99.0716C98.9783 19.9093 98.7729 19.4987 98.4556 19.256C98.1383 19.0133 97.7183 18.892 97.1956 18.892C96.7383 18.892 96.3789 18.9947 96.1176 19.2C95.8656 19.4053 95.7396 19.662 95.7396 19.97ZM102.203 23.358V16.358H103.435V23.358C103.435 23.806 103.523 24.1373 103.701 24.352C103.887 24.5667 104.251 24.674 104.793 24.674H105.045V25.556C104.979 25.5933 104.872 25.6213 104.723 25.64C104.583 25.6587 104.424 25.668 104.247 25.668C103.556 25.668 103.043 25.4813 102.707 25.108C102.371 24.7253 102.203 24.142 102.203 23.358ZM101.167 19.046V18.066H105.073V19.046H101.167ZM107.38 20.488H106.148C106.232 19.9373 106.404 19.4707 106.666 19.088C106.927 18.696 107.277 18.3973 107.716 18.192C108.154 17.9867 108.677 17.884 109.284 17.884C109.946 17.884 110.497 18.0053 110.936 18.248C111.374 18.4907 111.701 18.8313 111.916 19.27C112.13 19.6993 112.238 20.2033 112.238 20.782V23.708C112.238 24.1373 112.256 24.492 112.294 24.772C112.34 25.052 112.41 25.2947 112.504 25.5H111.202C111.108 25.3133 111.052 25.08 111.034 24.8C111.015 24.52 111.006 24.2447 111.006 23.974V20.81C111.006 20.2127 110.856 19.7553 110.558 19.438C110.268 19.1113 109.806 18.948 109.172 18.948C108.64 18.948 108.224 19.088 107.926 19.368C107.636 19.6387 107.454 20.012 107.38 20.488ZM111.188 20.978V21.902C110.357 21.902 109.676 21.944 109.144 22.028C108.621 22.1027 108.215 22.2147 107.926 22.364C107.636 22.504 107.436 22.672 107.324 22.868C107.212 23.064 107.156 23.2787 107.156 23.512C107.156 23.8573 107.286 24.128 107.548 24.324C107.818 24.5107 108.168 24.604 108.598 24.604C109.055 24.604 109.466 24.4967 109.83 24.282C110.194 24.0673 110.478 23.7827 110.684 23.428C110.898 23.064 111.006 22.672 111.006 22.252H111.664C111.626 22.8587 111.505 23.3813 111.3 23.82C111.104 24.2493 110.847 24.5993 110.53 24.87C110.222 25.1407 109.89 25.3413 109.536 25.472C109.181 25.6027 108.826 25.668 108.472 25.668C107.958 25.668 107.506 25.5887 107.114 25.43C106.731 25.2713 106.432 25.0333 106.218 24.716C106.003 24.3987 105.896 24.0067 105.896 23.54C105.896 23.0267 106.031 22.5927 106.302 22.238C106.582 21.874 106.997 21.5987 107.548 21.412C108.07 21.2347 108.616 21.118 109.186 21.062C109.755 21.006 110.422 20.978 111.188 20.978ZM120.403 20.628H119.171C119.069 20.0587 118.845 19.6387 118.499 19.368C118.154 19.088 117.734 18.948 117.239 18.948C116.558 18.948 116.035 19.1953 115.671 19.69C115.317 20.1753 115.139 20.8753 115.139 21.79C115.139 22.6953 115.326 23.3953 115.699 23.89C116.073 24.3753 116.6 24.618 117.281 24.618C117.776 24.618 118.191 24.4873 118.527 24.226C118.873 23.9553 119.106 23.554 119.227 23.022H120.459C120.291 23.946 119.918 24.618 119.339 25.038C118.761 25.458 118.065 25.668 117.253 25.668C116.553 25.668 115.951 25.514 115.447 25.206C114.943 24.8887 114.556 24.4407 114.285 23.862C114.015 23.2833 113.879 22.5927 113.879 21.79C113.879 20.95 114.015 20.2407 114.285 19.662C114.556 19.0833 114.943 18.6447 115.447 18.346C115.951 18.038 116.549 17.884 117.239 17.884C117.79 17.884 118.289 17.9867 118.737 18.192C119.185 18.3973 119.554 18.7053 119.843 19.116C120.142 19.5173 120.329 20.0213 120.403 20.628ZM121.982 25.5V15.42H123.214V25.5H121.982ZM123.004 21.468L126.42 18.066H127.932L124.46 21.468H123.004ZM123.004 21.468L124.446 21.272L128.128 25.5H126.56L123.004 21.468ZM134.912 25.668C134.259 25.668 133.694 25.514 133.218 25.206C132.742 24.898 132.378 24.4547 132.126 23.876C131.874 23.288 131.748 22.5927 131.748 21.79C131.748 20.53 132.033 19.564 132.602 18.892C133.172 18.22 133.942 17.884 134.912 17.884C135.771 17.884 136.452 18.22 136.956 18.892C137.47 19.5547 137.726 20.5207 137.726 21.79C137.726 22.574 137.61 23.26 137.376 23.848C137.152 24.4267 136.83 24.8747 136.41 25.192C135.99 25.5093 135.491 25.668 134.912 25.668ZM134.996 24.604C135.65 24.604 136.144 24.366 136.48 23.89C136.826 23.4047 136.998 22.7047 136.998 21.79C136.998 20.8847 136.821 20.1847 136.466 19.69C136.121 19.1953 135.631 18.948 134.996 18.948C134.352 18.948 133.858 19.1953 133.512 19.69C133.176 20.1753 133.008 20.8753 133.008 21.79C133.008 22.686 133.181 23.3813 133.526 23.876C133.881 24.3613 134.371 24.604 134.996 24.604ZM136.998 25.5V15.42H138.23V25.5H136.998ZM146.017 21.076L145.317 21.734C145.317 20.8473 145.13 20.1613 144.757 19.676C144.393 19.1907 143.875 18.948 143.203 18.948C142.512 18.948 141.985 19.1953 141.621 19.69C141.257 20.1753 141.075 20.8753 141.075 21.79C141.075 22.686 141.266 23.3813 141.649 23.876C142.032 24.3613 142.573 24.604 143.273 24.604C143.796 24.604 144.234 24.478 144.589 24.226C144.953 23.974 145.2 23.5913 145.331 23.078H146.619C146.414 23.946 146.012 24.5947 145.415 25.024C144.827 25.4533 144.113 25.668 143.273 25.668C142.554 25.668 141.934 25.514 141.411 25.206C140.898 24.898 140.501 24.4547 140.221 23.876C139.95 23.288 139.815 22.5927 139.815 21.79C139.815 20.95 139.95 20.2407 140.221 19.662C140.501 19.0833 140.893 18.6447 141.397 18.346C141.91 18.038 142.512 17.884 143.203 17.884C143.903 17.884 144.5 18.038 144.995 18.346C145.499 18.654 145.886 19.0927 146.157 19.662C146.428 20.222 146.563 20.8987 146.563 21.692V22H140.333V21.076H146.017ZM149.93 25.5L147.158 18.066H148.488L150.546 23.834L150.826 24.8H150.644L150.91 23.834L152.968 18.066H154.214L151.442 25.5H149.93ZM161.083 21.076L160.383 21.734C160.383 20.8473 160.197 20.1613 159.823 19.676C159.459 19.1907 158.941 18.948 158.269 18.948C157.579 18.948 157.051 19.1953 156.687 19.69C156.323 20.1753 156.141 20.8753 156.141 21.79C156.141 22.686 156.333 23.3813 156.715 23.876C157.098 24.3613 157.639 24.604 158.339 24.604C158.862 24.604 159.301 24.478 159.655 24.226C160.019 23.974 160.267 23.5913 160.397 23.078H161.685C161.48 23.946 161.079 24.5947 160.481 25.024C159.893 25.4533 159.179 25.668 158.339 25.668C157.621 25.668 157 25.514 156.477 25.206C155.964 24.898 155.567 24.4547 155.287 23.876C155.017 23.288 154.881 22.5927 154.881 21.79C154.881 20.95 155.017 20.2407 155.287 19.662C155.567 19.0833 155.959 18.6447 156.463 18.346C156.977 18.038 157.579 17.884 158.269 17.884C158.969 17.884 159.567 18.038 160.061 18.346C160.565 18.654 160.953 19.0927 161.223 19.662C161.494 20.222 161.629 20.8987 161.629 21.692V22H155.399V21.076H161.083ZM163.271 25.5V15.42H164.503V25.5H163.271ZM169.481 25.668C168.771 25.668 168.16 25.514 167.647 25.206C167.143 24.898 166.755 24.4547 166.485 23.876C166.214 23.288 166.079 22.5927 166.079 21.79C166.079 20.95 166.214 20.2407 166.485 19.662C166.765 19.0833 167.161 18.6447 167.675 18.346C168.188 18.038 168.79 17.884 169.481 17.884C170.19 17.884 170.797 18.0427 171.301 18.36C171.814 18.668 172.206 19.116 172.477 19.704C172.747 20.2827 172.883 20.978 172.883 21.79C172.883 22.6207 172.743 23.3253 172.463 23.904C172.192 24.4827 171.8 24.9213 171.287 25.22C170.783 25.5187 170.181 25.668 169.481 25.668ZM169.481 24.604C170.171 24.604 170.699 24.3613 171.063 23.876C171.436 23.3907 171.623 22.6953 171.623 21.79C171.623 20.8847 171.436 20.1847 171.063 19.69C170.699 19.1953 170.171 18.948 169.481 18.948C168.79 18.948 168.258 19.1953 167.885 19.69C167.521 20.1753 167.339 20.8753 167.339 21.79C167.339 22.686 167.525 23.3813 167.899 23.876C168.272 24.3613 168.799 24.604 169.481 24.604ZM177.8 17.884C178.463 17.884 179.028 18.038 179.494 18.346C179.97 18.654 180.334 19.0973 180.586 19.676C180.838 20.2547 180.964 20.95 180.964 21.762C180.964 23.022 180.68 23.988 180.11 24.66C179.541 25.332 178.771 25.668 177.8 25.668C176.942 25.668 176.256 25.3367 175.742 24.674C175.238 24.002 174.986 23.0313 174.986 21.762C174.986 20.978 175.098 20.2967 175.322 19.718C175.556 19.1393 175.882 18.6913 176.302 18.374C176.732 18.0473 177.231 17.884 177.8 17.884ZM177.716 18.948C177.063 18.948 176.564 19.1907 176.218 19.676C175.882 20.152 175.714 20.8473 175.714 21.762C175.714 22.6673 175.887 23.3673 176.232 23.862C176.587 24.3567 177.082 24.604 177.716 24.604C178.36 24.604 178.85 24.3613 179.186 23.876C179.532 23.3813 179.704 22.6767 179.704 21.762C179.704 20.866 179.532 20.1753 179.186 19.69C178.841 19.1953 178.351 18.948 177.716 18.948ZM175.714 28.58H174.482V18.066H175.714V28.58ZM188.372 21.076L187.672 21.734C187.672 20.8473 187.486 20.1613 187.112 19.676C186.748 19.1907 186.23 18.948 185.558 18.948C184.868 18.948 184.34 19.1953 183.976 19.69C183.612 20.1753 183.43 20.8753 183.43 21.79C183.43 22.686 183.622 23.3813 184.004 23.876C184.387 24.3613 184.928 24.604 185.628 24.604C186.151 24.604 186.59 24.478 186.944 24.226C187.308 23.974 187.556 23.5913 187.686 23.078H188.974C188.769 23.946 188.368 24.5947 187.77 25.024C187.182 25.4533 186.468 25.668 185.628 25.668C184.91 25.668 184.289 25.514 183.766 25.206C183.253 24.898 182.856 24.4547 182.576 23.876C182.306 23.288 182.17 22.5927 182.17 21.79C182.17 20.95 182.306 20.2407 182.576 19.662C182.856 19.0833 183.248 18.6447 183.752 18.346C184.266 18.038 184.868 17.884 185.558 17.884C186.258 17.884 186.856 18.038 187.35 18.346C187.854 18.654 188.242 19.0927 188.512 19.662C188.783 20.222 188.918 20.8987 188.918 21.692V22H182.688V21.076H188.372ZM190.56 25.5V18.066H191.792V25.5H190.56ZM191.792 21.342H191.232C191.288 20.5393 191.442 19.886 191.694 19.382C191.955 18.8687 192.282 18.4907 192.674 18.248C193.075 18.0053 193.514 17.884 193.99 17.884C194.139 17.884 194.275 17.9027 194.396 17.94C194.527 17.968 194.625 18.01 194.69 18.066V19.172C194.587 19.1347 194.471 19.1113 194.34 19.102C194.209 19.0833 194.069 19.074 193.92 19.074C193.547 19.074 193.225 19.13 192.954 19.242C192.693 19.3447 192.473 19.4987 192.296 19.704C192.128 19.9093 192.002 20.152 191.918 20.432C191.834 20.7027 191.792 21.006 191.792 21.342Z" fill="#F6F8FA"/>
<path d="M74.0007 32.833C70.3247 32.833 67.334 35.8237 67.334 39.4997C67.334 43.1757 70.3247 46.1663 74.0007 46.1663C77.6767 46.1663 80.6673 43.1757 80.6673 39.4997C80.6673 35.8237 77.6767 32.833 74.0007 32.833ZM68.6673 39.4997C68.6673 38.9003 68.7713 38.325 68.9547 37.787L70.0007 38.833L71.334 40.1663V41.4997L72.6673 42.833L73.334 43.4997V44.787C70.708 44.457 68.6673 42.2143 68.6673 39.4997ZM78.2207 42.7483C77.7853 42.3977 77.1253 42.1663 76.6673 42.1663V41.4997C76.6673 41.1461 76.5268 40.8069 76.2768 40.5569C76.0267 40.3068 75.6876 40.1663 75.334 40.1663H72.6673V38.1663C73.0209 38.1663 73.3601 38.0259 73.6101 37.7758C73.8602 37.5258 74.0007 37.1866 74.0007 36.833V36.1663H74.6673C75.0209 36.1663 75.3601 36.0259 75.6101 35.7758C75.8602 35.5258 76.0007 35.1866 76.0007 34.833V34.559C77.9527 35.3517 79.334 37.2663 79.334 39.4997C79.3337 40.6761 78.942 41.819 78.2207 42.7483Z" fill="#F6F8FA"/>
<path d="M88.936 43.5V35.34H90.04V43.5H88.936ZM89.728 43.5V42.6H94.144V43.5H89.728ZM97.9593 43.644C97.3513 43.644 96.8273 43.512 96.3873 43.248C95.9553 42.984 95.6233 42.604 95.3913 42.108C95.1593 41.604 95.0433 41.008 95.0433 40.32C95.0433 39.6 95.1593 38.992 95.3913 38.496C95.6313 38 95.9713 37.624 96.4113 37.368C96.8513 37.104 97.3673 36.972 97.9593 36.972C98.5673 36.972 99.0873 37.108 99.5193 37.38C99.9593 37.644 100.295 38.028 100.527 38.532C100.759 39.028 100.875 39.624 100.875 40.32C100.875 41.032 100.755 41.636 100.515 42.132C100.283 42.628 99.9473 43.004 99.5073 43.26C99.0753 43.516 98.5593 43.644 97.9593 43.644ZM97.9593 42.732C98.5513 42.732 99.0033 42.524 99.3153 42.108C99.6353 41.692 99.7953 41.096 99.7953 40.32C99.7953 39.544 99.6353 38.944 99.3153 38.52C99.0033 38.096 98.5513 37.884 97.9593 37.884C97.3673 37.884 96.9113 38.096 96.5913 38.52C96.2793 38.936 96.1233 39.536 96.1233 40.32C96.1233 41.088 96.2833 41.684 96.6033 42.108C96.9233 42.524 97.3753 42.732 97.9593 42.732ZM103.015 38.76C103.015 39.016 103.087 39.212 103.231 39.348C103.383 39.484 103.583 39.588 103.831 39.66C104.079 39.732 104.351 39.792 104.647 39.84C104.943 39.88 105.235 39.932 105.523 39.996C105.819 40.06 106.091 40.156 106.339 40.284C106.587 40.404 106.783 40.576 106.927 40.8C107.079 41.024 107.155 41.324 107.155 41.7C107.155 42.092 107.047 42.436 106.831 42.732C106.615 43.02 106.315 43.244 105.931 43.404C105.547 43.564 105.103 43.644 104.599 43.644C103.847 43.644 103.219 43.464 102.715 43.104C102.219 42.736 101.911 42.176 101.791 41.424H102.847C102.919 41.864 103.111 42.204 103.423 42.444C103.743 42.684 104.147 42.804 104.635 42.804C105.115 42.804 105.479 42.708 105.727 42.516C105.975 42.316 106.099 42.068 106.099 41.772C106.099 41.524 106.023 41.332 105.871 41.196C105.727 41.06 105.531 40.96 105.283 40.896C105.043 40.824 104.775 40.764 104.479 40.716C104.191 40.668 103.903 40.612 103.615 40.548C103.327 40.484 103.059 40.392 102.811 40.272C102.571 40.144 102.375 39.968 102.223 39.744C102.079 39.512 102.007 39.208 102.007 38.832C102.007 38.504 102.091 38.2 102.259 37.92C102.427 37.64 102.683 37.412 103.027 37.236C103.371 37.06 103.803 36.972 104.323 36.972C104.787 36.972 105.199 37.048 105.559 37.2C105.927 37.352 106.231 37.592 106.471 37.92C106.711 38.248 106.863 38.676 106.927 39.204H105.871C105.791 38.708 105.615 38.356 105.343 38.148C105.071 37.94 104.711 37.836 104.263 37.836C103.871 37.836 103.563 37.924 103.339 38.1C103.123 38.276 103.015 38.496 103.015 38.76ZM111.541 41.544V40.656H115.753V41.544H111.541ZM116.389 43.5L113.905 37.128L113.641 36.336H113.689L113.425 37.128L110.941 43.5H109.849L113.053 35.34H114.325L117.541 43.5H116.389ZM118.617 43.5V37.128H119.673V43.5H118.617ZM119.673 39.732H119.169C119.209 39.124 119.333 38.616 119.541 38.208C119.757 37.8 120.045 37.492 120.405 37.284C120.765 37.076 121.177 36.972 121.641 36.972C122.097 36.972 122.485 37.06 122.805 37.236C123.125 37.404 123.369 37.656 123.537 37.992C123.713 38.328 123.801 38.744 123.801 39.24V43.5H122.745V39.456C122.745 39.136 122.693 38.86 122.589 38.628C122.493 38.388 122.341 38.204 122.133 38.076C121.933 37.94 121.673 37.872 121.353 37.872C121.089 37.872 120.853 37.928 120.645 38.04C120.437 38.144 120.261 38.284 120.117 38.46C119.973 38.636 119.861 38.836 119.781 39.06C119.709 39.276 119.673 39.5 119.673 39.732ZM127.753 43.548C127.217 43.548 126.753 43.416 126.361 43.152C125.977 42.888 125.681 42.512 125.473 42.024C125.265 41.536 125.161 40.952 125.161 40.272C125.161 39.2 125.393 38.384 125.857 37.824C126.321 37.256 126.953 36.972 127.753 36.972C128.609 36.972 129.245 37.26 129.661 37.836C130.077 38.404 130.285 39.212 130.285 40.26C130.285 41.34 130.057 42.16 129.601 42.72C129.153 43.272 128.537 43.548 127.753 43.548ZM127.945 42.636C128.505 42.636 128.929 42.432 129.217 42.024C129.513 41.616 129.661 41.028 129.661 40.26C129.661 39.508 129.509 38.924 129.205 38.508C128.909 38.092 128.489 37.884 127.945 37.884C127.393 37.884 126.969 38.088 126.673 38.496C126.385 38.904 126.241 39.496 126.241 40.272C126.241 41.024 126.389 41.608 126.685 42.024C126.981 42.432 127.401 42.636 127.945 42.636ZM130.717 43.692C130.717 44.284 130.601 44.772 130.369 45.156C130.137 45.54 129.825 45.824 129.433 46.008C129.041 46.2 128.601 46.296 128.113 46.296C127.361 46.296 126.737 46.116 126.241 45.756C125.745 45.396 125.441 44.852 125.329 44.124H126.385C126.449 44.54 126.633 44.86 126.937 45.084C127.249 45.308 127.637 45.42 128.101 45.42C128.573 45.42 128.949 45.284 129.229 45.012C129.517 44.748 129.661 44.32 129.661 43.728V37.128H130.717V43.692ZM137.402 39.708L136.802 40.272C136.802 39.512 136.642 38.924 136.322 38.508C136.01 38.092 135.566 37.884 134.99 37.884C134.398 37.884 133.946 38.096 133.634 38.52C133.322 38.936 133.166 39.536 133.166 40.32C133.166 41.088 133.33 41.684 133.658 42.108C133.986 42.524 134.45 42.732 135.05 42.732C135.498 42.732 135.874 42.624 136.178 42.408C136.49 42.192 136.702 41.864 136.814 41.424H137.918C137.742 42.168 137.398 42.724 136.886 43.092C136.382 43.46 135.77 43.644 135.05 43.644C134.434 43.644 133.902 43.512 133.454 43.248C133.014 42.984 132.674 42.604 132.434 42.108C132.202 41.604 132.086 41.008 132.086 40.32C132.086 39.6 132.202 38.992 132.434 38.496C132.674 38 133.01 37.624 133.442 37.368C133.882 37.104 134.398 36.972 134.99 36.972C135.59 36.972 136.102 37.104 136.526 37.368C136.958 37.632 137.29 38.008 137.522 38.496C137.754 38.976 137.87 39.556 137.87 40.236V40.5H132.53V39.708H137.402ZM139.278 43.5V34.86H140.334V43.5H139.278ZM147 39.708L146.4 40.272C146.4 39.512 146.24 38.924 145.92 38.508C145.608 38.092 145.164 37.884 144.588 37.884C143.996 37.884 143.544 38.096 143.232 38.52C142.92 38.936 142.764 39.536 142.764 40.32C142.764 41.088 142.928 41.684 143.256 42.108C143.584 42.524 144.048 42.732 144.648 42.732C145.096 42.732 145.472 42.624 145.776 42.408C146.088 42.192 146.3 41.864 146.412 41.424H147.516C147.34 42.168 146.996 42.724 146.484 43.092C145.98 43.46 145.368 43.644 144.648 43.644C144.032 43.644 143.5 43.512 143.052 43.248C142.612 42.984 142.272 42.604 142.032 42.108C141.8 41.604 141.684 41.008 141.684 40.32C141.684 39.6 141.8 38.992 142.032 38.496C142.272 38 142.608 37.624 143.04 37.368C143.48 37.104 143.996 36.972 144.588 36.972C145.188 36.972 145.7 37.104 146.124 37.368C146.556 37.632 146.888 38.008 147.12 38.496C147.352 38.976 147.468 39.556 147.468 40.236V40.5H142.128V39.708H147ZM149.655 38.76C149.655 39.016 149.727 39.212 149.871 39.348C150.023 39.484 150.223 39.588 150.471 39.66C150.719 39.732 150.991 39.792 151.287 39.84C151.583 39.88 151.875 39.932 152.163 39.996C152.459 40.06 152.731 40.156 152.979 40.284C153.227 40.404 153.423 40.576 153.567 40.8C153.719 41.024 153.795 41.324 153.795 41.7C153.795 42.092 153.687 42.436 153.471 42.732C153.255 43.02 152.955 43.244 152.571 43.404C152.187 43.564 151.743 43.644 151.239 43.644C150.487 43.644 149.859 43.464 149.355 43.104C148.859 42.736 148.551 42.176 148.431 41.424H149.487C149.559 41.864 149.751 42.204 150.063 42.444C150.383 42.684 150.787 42.804 151.275 42.804C151.755 42.804 152.119 42.708 152.367 42.516C152.615 42.316 152.739 42.068 152.739 41.772C152.739 41.524 152.663 41.332 152.511 41.196C152.367 41.06 152.171 40.96 151.923 40.896C151.683 40.824 151.415 40.764 151.119 40.716C150.831 40.668 150.543 40.612 150.255 40.548C149.967 40.484 149.699 40.392 149.451 40.272C149.211 40.144 149.015 39.968 148.863 39.744C148.719 39.512 148.647 39.208 148.647 38.832C148.647 38.504 148.731 38.2 148.899 37.92C149.067 37.64 149.323 37.412 149.667 37.236C150.011 37.06 150.443 36.972 150.963 36.972C151.427 36.972 151.839 37.048 152.199 37.2C152.567 37.352 152.871 37.592 153.111 37.92C153.351 38.248 153.503 38.676 153.567 39.204H152.511C152.431 38.708 152.255 38.356 151.983 38.148C151.711 37.94 151.351 37.836 150.903 37.836C150.511 37.836 150.203 37.924 149.979 38.1C149.763 38.276 149.655 38.496 149.655 38.76Z" fill="#F6F8FA"/>
<path d="M175.001 36.1667H171.001C170.824 36.1667 170.654 36.2369 170.529 36.3619C170.404 36.487 170.334 36.6565 170.334 36.8333V38.8333H169.001V34.1667C169.001 33.9899 168.93 33.8203 168.805 33.6953C168.68 33.5702 168.511 33.5 168.334 33.5H163.001C162.824 33.5 162.654 33.5702 162.529 33.6953C162.404 33.8203 162.334 33.9899 162.334 34.1667V44.8333C162.334 45.0101 162.404 45.1797 162.529 45.3047C162.654 45.4298 162.824 45.5 163.001 45.5H175.001C175.177 45.5 175.347 45.4298 175.472 45.3047C175.597 45.1797 175.667 45.0101 175.667 44.8333V36.8333C175.667 36.6565 175.597 36.487 175.472 36.3619C175.347 36.2369 175.177 36.1667 175.001 36.1667ZM166.334 35.5H167.667V36.8333H166.334V35.5ZM165.001 42.1667H163.667V40.8333H165.001V42.1667ZM165.001 39.5H163.667V38.1667H165.001V39.5ZM165.001 36.8333H163.667V35.5H165.001V36.8333ZM167.667 42.1667H166.334V40.8333H167.667V42.1667ZM167.667 39.5H166.334V38.1667H167.667V39.5ZM173.667 42.1667H172.334V40.8333H173.667V42.1667ZM173.667 39.5H172.334V38.1667H173.667V39.5Z" fill="#F6F8FA"/>
<path d="M190.656 37.692H189.504C189.352 37.196 189.076 36.816 188.676 36.552C188.284 36.28 187.828 36.144 187.308 36.144C186.78 36.144 186.324 36.276 185.94 36.54C185.564 36.804 185.272 37.184 185.064 37.68C184.864 38.168 184.764 38.752 184.764 39.432C184.764 40.112 184.864 40.696 185.064 41.184C185.264 41.672 185.552 42.048 185.928 42.312C186.312 42.568 186.772 42.696 187.308 42.696C187.812 42.696 188.256 42.568 188.64 42.312C189.024 42.056 189.304 41.684 189.48 41.196H190.644C190.492 41.708 190.252 42.148 189.924 42.516C189.596 42.884 189.204 43.164 188.748 43.356C188.3 43.548 187.816 43.644 187.296 43.644C186.536 43.644 185.88 43.476 185.328 43.14C184.784 42.796 184.364 42.312 184.068 41.688C183.78 41.056 183.636 40.304 183.636 39.432C183.636 38.56 183.784 37.808 184.08 37.176C184.384 36.544 184.812 36.056 185.364 35.712C185.916 35.368 186.576 35.196 187.344 35.196C187.872 35.196 188.36 35.292 188.808 35.484C189.264 35.668 189.652 35.948 189.972 36.324C190.3 36.692 190.528 37.148 190.656 37.692ZM192.008 43.5V37.128H193.064V43.5H192.008ZM193.064 39.936H192.584C192.632 39.248 192.764 38.688 192.98 38.256C193.204 37.816 193.484 37.492 193.82 37.284C194.164 37.076 194.54 36.972 194.948 36.972C195.076 36.972 195.192 36.988 195.296 37.02C195.408 37.044 195.492 37.08 195.548 37.128V38.076C195.46 38.044 195.36 38.024 195.248 38.016C195.136 38 195.016 37.992 194.888 37.992C194.568 37.992 194.292 38.04 194.06 38.136C193.836 38.224 193.648 38.356 193.496 38.532C193.352 38.708 193.244 38.916 193.172 39.156C193.1 39.388 193.064 39.648 193.064 39.936ZM201.359 39.708L200.759 40.272C200.759 39.512 200.599 38.924 200.279 38.508C199.967 38.092 199.523 37.884 198.947 37.884C198.355 37.884 197.903 38.096 197.591 38.52C197.279 38.936 197.123 39.536 197.123 40.32C197.123 41.088 197.287 41.684 197.615 42.108C197.943 42.524 198.407 42.732 199.007 42.732C199.455 42.732 199.831 42.624 200.135 42.408C200.447 42.192 200.659 41.864 200.771 41.424H201.875C201.699 42.168 201.355 42.724 200.843 43.092C200.339 43.46 199.727 43.644 199.007 43.644C198.391 43.644 197.859 43.512 197.411 43.248C196.971 42.984 196.631 42.604 196.391 42.108C196.159 41.604 196.043 41.008 196.043 40.32C196.043 39.6 196.159 38.992 196.391 38.496C196.631 38 196.967 37.624 197.399 37.368C197.839 37.104 198.355 36.972 198.947 36.972C199.547 36.972 200.059 37.104 200.483 37.368C200.915 37.632 201.247 38.008 201.479 38.496C201.711 38.976 201.827 39.556 201.827 40.236V40.5H196.487V39.708H201.359ZM208.637 43.5L207.257 38.736L207.089 37.86H207.149L206.969 38.736L205.601 43.5H204.293L202.397 37.128H203.537L204.845 42.072L205.037 42.876H204.965L205.157 42.072L206.609 37.128H207.749L209.201 42.072L209.381 42.864H209.309L209.477 42.072L210.785 37.128H211.877L209.969 43.5H208.637ZM215.963 41.544V40.656H220.175V41.544H215.963ZM220.811 43.5L218.327 37.128L218.063 36.336H218.111L217.847 37.128L215.363 43.5H214.271L217.475 35.34H218.747L221.963 43.5H220.811ZM223.135 43.5V35.34H224.239V43.5H223.135Z" fill="#F6F8FA"/>
<defs>
<linearGradient id="paint0_linear_120_3403" x1="-87.5" y1="29" x2="113.301" y2="-210.002" gradientUnits="userSpaceOnUse">
<stop stop-color="#F6F8FA" stop-opacity="0"/>
<stop offset="1" stop-color="#F6F8FA"/>
</linearGradient>
</defs>
</svg>
